{
.appVersion = "3134";
.formatVersion = 3;
axes = (
{
default = 300;
name = Weight;
tag = wght;
}
);
customParameters = (
{
name = vendorID;
value = "    ";
},
{
name = panose;
value = (
0,
0,
0,
0,
0,
0,
0,
0,
0,
0
);
},
{
name = unicodeRanges;
value = (
0,
1,
2,
5,
6,
7,
31,
32
);
},
{
name = codePageRanges;
value = (
"1252",
"1250",
"1253",
"1254",
"1257"
);
},
{
name = fsType;
value = (
);
},
{
name = glyphOrder;
value = (
.notdef,
.null,
space,
uni000D,
exclam,
quotedbl,
numbersign,
dollar,
percent,
ampersand,
quotesingle,
parenleft,
parenright,
asterisk,
plus,
comma,
hyphen,
period,
slash,
zero,
one,
two,
three,
four,
five,
six,
seven,
eight,
nine,
colon,
semicolon,
less,
equal,
greater,
question,
at,
A,
B,
C,
D,
E,
F,
G,
H,
J,
K,
L,
M,
N,
O,
P,
Q,
R,
S,
T,
U,
V,
W,
X,
Y,
Z,
bracketleft,
backslash,
bracketright,
asciicircum,
underscore,
grave,
a,
b,
c,
d,
e,
f,
g,
h,
i,
j,
k,
l,
m,
n,
o,
p,
q,
r,
s,
t,
u,
v,
w,
x,
y,
z,
braceleft,
bar,
braceright,
asciitilde,
uni00A0,
exclamdown,
cent,
sterling,
currency,
yen,
brokenbar,
section,
dieresis,
copyright,
ordfeminine,
guillemotleft,
logicalnot,
uni00AD,
registered,
degree,
plusminus,
uni00B2,
uni00B3,
acute,
uni00B5,
paragraph,
periodcentered,
cedilla,
uni00B9,
ordmasculine,
guillemotright,
onequarter,
onehalf,
threequarters,
questiondown,
Agrave,
Aacute,
Acircumflex,
Atilde,
Adieresis,
Aring,
AE,
Egrave,
Eacute,
Ecircumflex,
Edieresis,
Eth,
Ntilde,
Ograve,
Oacute,
Ocircumflex,
Otilde,
Odieresis,
multiply,
Oslash,
Ugrave,
Uacute,
Ucircumflex,
Udieresis,
Yacute,
Thorn,
germandbls,
agrave,
aacute,
acircumflex,
atilde,
adieresis,
aring,
ae,
ccedilla,
egrave,
eacute,
ecircumflex,
edieresis,
igrave,
iacute,
idieresis,
eth,
ntilde,
ograve,
oacute,
ocircumflex,
otilde,
odieresis,
divide,
oslash,
ugrave,
uacute,
ucircumflex,
udieresis,
yacute,
thorn,
ydieresis,
Amacron,
amacron,
Abreve,
abreve,
Aogonek,
aogonek,
Cacute,
cacute,
Ccircumflex,
ccircumflex,
cdotaccent,
Ccaron,
ccaron,
Dcaron,
dcaron,
Dcroat,
dcroat,
Emacron,

glyphs = (
{
glyphname = .notdef;
layers = (
{
layerId = m01;
shapes = (
{
closed = 1;
nodes = (
(519,720,l),
(519,0,l),
(-6,0,l),
(-6,720,l)
);
},
{
closed = 1;
nodes = (
(91,663,l),
(256,419,l),
(421,663,l)
);
},
{
closed = 1;
nodes = (
(454,599,l),
(294,360,l),
(454,123,l)
);
},
{
closed = 1;
nodes = (
(256,303,l),
(91,57,l),
(421,57,l)
);
},
{
closed = 1;
nodes = (
(219,360,l),
(59,600,l),
(59,123,l)
);
}
);
width = 515;
},
{
layerId = "4F54520B-6C1D-43AE-845C-9A591DE39CE0";
shapes = (
{
closed = 1;
nodes = (
(528,720,l),
(528,0,l),
(2,0,l),
(2,720,l)
);
},
{
closed = 1;
nodes = (
(100,663,l),
(265,419,l),
(429,663,l)
);
},
{
closed = 1;
nodes = (
(462,598,l),
(303,360,l),
(462,124,l)
);
},
{
closed = 1;
nodes = (
(265,303,l),
(100,57,l),
(429,57,l)
);
},
{
closed = 1;
nodes = (
(227,360,l),
(68,599,l),
(68,124,l)
);
}
);
width = 529;
},
{
layerId = "35043653-3C0A-484D-8455-0CC3777AD120";
shapes = (
{
closed = 1;
nodes = (
(565,720,l),
(565,0,l),
(36,0,l),
(36,720,l)
);
},
{
closed = 1;
nodes = (
(138,663,l),
(301,421,l),
(462,663,l)
);
},
{
closed = 1;
nodes = (
(495,593,l),
(340,360,l),
(495,128,l)
);
},
{
closed = 1;
nodes = (
(301,300,l),
(138,57,l),
(462,57,l)
);
},
{
closed = 1;
nodes = (
(261,360,l),
(106,594,l),
(106,128,l)
);
}
);
width = 600;
}
);
note = ".notdef";
},
{
glyphname = exclam;
layers = (
{
layerId = m01;
shapes = (
{
closed = 1;
nodes = (
(189,621,l),
(172,203,l),
(117,203,l),
(99,621,l),
(95,705,l),
(193,705,l)
);
},
{
closed = 1;
nodes = (
(169,109,o),
(204,74,o),
(204,50,qs),
(204,23,o),
(170,-10,o),
(145,-10,qs),
(120,-10,o),
(85,24,o),
(85,50,qs),
(85,74,o),
(121,109,o),
(145,109,qs)
);
}
);
width = 290;
},
{
layerId = "4F54520B-6C1D-43AE-845C-9A591DE39CE0";
shapes = (
{
closed = 1;
nodes = (
(206,620,l),
(182,207,l),
(120,207,l),
(95,620,l),
(92,704,l),
(209,704,l)
);
},
{
closed = 1;
nodes = (
(180,121,o),
(218,83,o),
(218,56,q),
(218,26,o),
(181,-11,o),
(151,-11,q),
(122,-11,o),
(83,26,o),
(83,56,q),
(83,83,o),
(124,121,o),
(151,121,q)
);
}
);
width = 299;
},
{
layerId = "35043653-3C0A-484D-8455-0CC3777AD120";
shapes = (
{
closed = 1;
nodes = (
(278,615,l),
(220,228,l),
(120,228,l),
(62,615,l),
(62,700,l),
(278,700,l)
);
},
{
closed = 1;
nodes = (
(216,180,o),
(277,130,o),
(277,84,q),
(277,38,o),
(216,-13,o),
(169,-13,q),
(122,-13,o),
(62,38,o),
(62,84,q),
(62,130,o),
(122,180,o),
(169,180,q)
);
}
);
width = 341;
}
);
note = exclam;
unicode = 33;
},
{
glyphname = quotedbl;
layers = (
{
layerId = m01;
shapes = (
{
closed = 1;
nodes = (
(97,708,l),
(188,708,l),
(188,708,l),
(176,655,l),
(126,443,l),
(71,443,l)
);
},
{
closed = 1;
nodes = (
(367,708,l),
(367,708,l),
(355,655,l),
(305,443,l),
(250,443,l),
(276,708,l)
);
}
);
width = 437;
},
{
layerId = "4F54520B-6C1D-43AE-845C-9A591DE39CE0";
shapes = (
{
closed = 1;
nodes = (
(99,707,l),
(209,707,l),
(209,707,l),
(199,662,l),
(136,426,l),
(74,426,l)
);
},
{
closed = 1;
nodes = (
(401,707,l),
(401,707,l),
(391,662,l),
(328,426,l),
(266,426,l),
(291,707,l)
);
}
);
width = 474;
},
{
layerId = "35043653-3C0A-484D-8455-0CC3777AD120";
shapes = (
{
closed = 1;
nodes = (
(111,700,l),
(315,700,l),
(315,699,l),
(315,697,l),
(188,341,l),
(89,341,l)
);
},
{
closed = 1;
nodes = (
(572,700,l),
(572,699,l),
(572,697,l),
(445,341,l),
(345,341,l),
(368,700,l)
);
}
);
width = 660;
}
);
note = quotedbl;
unicode = 34;
},
{
glyphname = numbersign;
layers = (
{
layerId = m01;
shapes = (
{
closed = 1;
nodes = (
(23,195,l),
(23,266,l),
(139,266,l),
(167,446,l),
(56,446,l),
(56,518,l),
(177,518,l),
(206,706,l),
(278,706,l),
(251,518,l),
(414,518,l),
(441,706,l),
(513,706,l),
(487,518,l),
(586,518,l),
(586,446,l),
(476,446,l),
(447,266,l),
(553,266,l),
(553,194,l),
(436,194,l),
(408,0,l),
(335,0,l),
(363,194,l),
(200,194,l),
(171,0,l),
(98,0,l),
(128,195,l)
);
},
{
closed = 1;
nodes = (
(211,266,l),
(374,266,l),
(403,446,l),
(239,446,l)
);
}
);
width = 608;
},
{
layerId = "4F54520B-6C1D-43AE-845C-9A591DE39CE0";
shapes = (
{
closed = 1;
nodes = (
(25,185,l),
(25,271,l),
(139,271,l),
(166,440,l),
(58,440,l),
(58,527,l),
(179,527,l),
(206,705,l),
(291,705,l),
(264,527,l),
(421,527,l),
(447,705,l),
(532,705,l),
(506,527,l),
(602,527,l),
(602,440,l),
(492,440,l),
(465,271,l),
(569,271,l),
(569,184,l),
(451,184,l),
(424,0,l),
(339,0,l),
(366,184,l),
(209,184,l),
(181,0,l),
(96,0,l),
(125,185,l)
);
},
{
closed = 1;
nodes = (
(222,270,l),
(381,270,l),
(408,440,l),
(249,440,l)
);
}
);
width = 625;
},
{
layerId = "35043653-3C0A-484D-8455-0CC3777AD120";
shapes = (
{
closed = 1;
nodes = (
(33,135,l),
(33,296,l),
(139,296,l),
(158,408,l),
(66,408,l),
(66,569,l),
(186,569,l),
(208,700,l),
(353,700,l),
(330,569,l),
(457,569,l),
(479,700,l),
(624,700,l),
(602,569,l),
(680,569,l),
(680,408,l),
(574,408,l),
(555,296,l),
(647,296,l),
(647,135,l),
(528,135,l),
(504,0,l),
(359,0,l),
(383,135,l),
(256,135,l),
(233,0,l),
(88,0,l),
(111,135,l)
);
},
{
closed = 1;
nodes = (
(279,292,l),
(413,292,l),
(433,412,l),
(300,412,l)
);
}
);
width = 712;
}
);
note = numbersign;
unicode = 35;
},
{
glyphname = dollar;
layers = (
{
layerId = m01;
shapes = (
{
closed = 1;
nodes = (
(254,-4,l),
(186,-4,o),
(73,52,o),
(31,98,q),
(79,151,l),
(115,114,o),
(201,68,o),
(254,65,q),
(254,322,l),
(159,356,o),
(60,453,o),
(60,525,qs),
(60,601,o),
(170,702,o),
(254,710,q),
(254,777,l),
(319,777,l),
(319,711,l),
(380,705,o),
(460,658,o),
(484,624,q),
(433,572,l),
(415,599,o),
(353,634,o),
(318,638,q),
(318,389,l),
(423,352,o),
(519,260,o),
(519,192,qs),
(519,113,o),
(407,6,o),
(319,-4,q),
(319,-95,l),
(254,-95,l)
);
},
{
closed = 1;
nodes = (
(319,66,l),
(378,75,o),
(437,135,o),
(437,179,qs),
(437,226,o),
(372,284,o),
(319,302,q)
);
},
{
closed = 1;
nodes = (
(254,640,l),
(200,634,o),
(142,578,o),
(142,534,qs),
(142,490,o),
(202,435,o),
(254,412,q)
);
}
);
width = 564;
},
{
layerId = "4F54520B-6C1D-43AE-845C-9A591DE39CE0";
shapes = (
{
closed = 1;
nodes = (
(258,-3,l),
(189,-3,o),
(74,53,o),
(29,101,q),
(87,165,l),
(122,128,o),
(208,82,o),
(259,78,q),
(259,314,l),
(158,348,o),
(57,444,o),
(57,519,q),
(57,597,o),
(169,701,o),
(258,709,q),
(258,774,l),
(330,774,l),
(330,709,l),
(391,703,o),
(474,655,o),
(502,620,q),
(443,559,l),
(424,586,o),
(364,620,o),
(328,624,q),
(328,396,l),
(437,360,o),
(536,267,o),
(536,195,q),
(536,115,o),
(421,7,o),
(330,-3,q),
(330,-96,l),
(258,-96,l)
);
},
{
closed = 1;
nodes = (
(329,79,l),
(384,87,o),
(438,141,o),
(438,182,q),
(438,226,o),
(378,278,o),
(329,294,q)
);
},
{
closed = 1;
nodes = (
(259,626,l),
(208,621,o),
(155,569,o),
(155,529,q),
(155,487,o),
(211,438,o),
(259,418,q)
);
}
);
width = 578;
},
{
layerId = "35043653-3C0A-484D-8455-0CC3777AD120";
shapes = (
{
closed = 1;
nodes = (
(278,2,l),
(209,2,o),
(74,59,o),
(18,115,q),
(129,234,l),
(158,198,o),
(242,150,o),
(284,145,q),
(284,272,l),
(159,301,o),
(41,400,o),
(41,490,q),
(41,579,o),
(167,693,o),
(280,701,q),
(280,758,l),
(384,758,l),
(384,698,l),
(446,691,o),
(552,639,o),
(589,599,q),
(492,491,l),
(469,519,o),
(414,549,o),
(379,555,q),
(379,430,l),
(503,401,o),
(618,301,o),
(618,212,q),
(618,121,o),
(490,10,o),
(382,0,q),
(382,-98,l),
(278,-98,l)
);
},
{
closed = 1;
nodes = (
(378,146,l),
(412,150,o),
(445,178,o),
(445,199,q),
(445,222,o),
(408,246,o),
(378,256,q)
);
},
{
closed = 1;
nodes = (
(285,555,l),
(250,552,o),
(217,525,o),
(217,505,q),
(217,480,o),
(256,454,o),
(285,447,q)
);
}
);
width = 646;
}
);
note = dollar;
unicode = 36;
},
{
glyphname = percent;
layers = (
{
layerId = m01;
shapes = (
{
closed = 1;
nodes = (
(161,361,o),
(86,409,o),
(44,492,o),
(44,543,qs),
(44,593,o),
(87,675,o),
(163,723,o),
(210,723,qs),
(259,723,o),
(334,676,o),
(375,594,o),
(375,544,qs),
(375,495,o),
(335,411,o),
(259,361,o),
(209,361,qs)
);
},
{
closed = 1;
nodes = (
(165,663,o),
(111,596,o),
(111,543,qs),
(111,488,o),
(165,421,o),
(210,421,qs),
(257,421,o),
(308,486,o),
(308,539,qs),
(308,590,o),
(257,663,o),
(209,663,qs)
);
},
{
closed = 1;
nodes = (
(579,-11,o),
(505,37,o),
(464,118,o),
(464,168,qs),
(464,218,o),
(507,300,o),
(582,348,o),
(629,348,qs),
(677,348,o),
(753,301,o),
(794,219,o),
(794,169,qs),
(794,121,o),
(753,39,o),
(677,-11,o),
(628,-11,qs)
);
},
{
closed = 1;
nodes = (
(583,288,o),
(531,222,o),
(531,168,qs),
(531,112,o),
(586,49,o),
(629,49,qs),
(674,49,o),
(727,116,o),
(727,168,qs),
(727,218,o),
(676,288,o),
(628,288,qs)
);
},
{
closed = 1;
nodes = (
(142,-4,l),
(624,723,l),
(690,709,l),
(208,-19,l)
);
}
);
width = 838;
},
{
layerId = "4F54520B-6C1D-43AE-845C-9A591DE39CE0";
shapes = (
{
closed = 1;
nodes = (
(160,357,o),
(85,405,o),
(43,488.529,o),
(43,539.854,q),
(43,590.172,o),
(86.026,672.694,o),
(164,721,o),
(211.55,721,q),
(261.123,721,o),
(337,673,o),
(379,591,o),
(379,541,q),
(379,491.632,o),
(338,407,o),
(262,356,o),
(208,357,q)
);
},
{
closed = 1;
nodes = (
(173.286,656,o),
(119,589,o),
(119,540,q),
(119,488.156,o),
(170,425,o),
(211.576,425,q),
(255,425,o),
(303,487,o),
(303,536,q),
(303,584.121,o),
(256,653,o),
(217.519,656,q)
);
},
{
closed = 1;
nodes = (
(589,-11,o),
(513,37,o),
(471,120,o),
(471,170,q),
(471,220.379,o),
(514,303,o),
(590.765,351,o),
(638.871,351,q),
(688,351,o),
(764,304,o),
(806,221.379,o),
(806,171,q),
(806,122.262,o),
(765,39,o),
(688,-11,o),
(636.485,-11,q)
);
},
{
closed = 1;
nodes = (
(599.327,287,o),
(547,221,o),
(547,170.436,q),
(547,118,o),
(599,58,o),
(638.58,58,q),
(680,58,o),
(730,121,o),
(730,169.977,q),
(730,217.07,o),
(683,283,o),
(644.61,287,q)
);
},
{
closed = 1;
nodes = (
(138,-3,l),
(629,719,l),
(707,708,l),
(215,-16,l)
);
}
);
width = 849;
},
{
layerId = "35043653-3C0A-484D-8455-0CC3777AD120";
shapes = (
{
closed = 1;
nodes = (
(165,333,o),
(83,384,o),
(38,470,o),
(38,522,q),
(38,574,o),
(83,660,o),
(166,710,o),
(219,710,q),
(272,710,o),
(354,659,o),
(399,574,o),
(399,523,q),
(399,471,o),
(354,384,o),
(271,333,o),
(218,333,q)
);
},
{
closed = 1;
nodes = (
(192,600,o),
(160,556,o),
(160,523,q),
(160,489,o),
(194,443,o),
(219,443,q),
(245,443,o),
(277,488,o),
(277,522,q),
(277,553,o),
(247,600,o),
(218,600,q)
);
},
{
closed = 1;
nodes = (
(634,-10,o),
(551,41,o),
(506,128,o),
(506,179,q),
(506,231,o),
(551,317,o),
(634,367,o),
(687,367,q),
(740,367,o),
(822,317,o),
(867,232,o),
(867,180,q),
(867,129,o),
(821,42,o),
(739,-10,o),
(687,-10,q)
);
},
{
closed = 1;
nodes = (
(659,257,o),
(628,214,o),
(628,180,q),
(628,147,o),
(662,100,o),
(687,100,q),
(713,100,o),
(745,145,o),
(745,179,q),
(745,210,o),
(715,257,o),
(686,257,q)
);
},
{
closed = 1;
nodes = (
(115,0,l),
(655,700,l),
(790,700,l),
(250,0,l)
);
}
);
width = 904;
}
);
note = percent;
unicode = 37;
},
{
glyphname = ampersand;
layers = (
{
layerId = m01;
shapes = (
{
closed = 1;
nodes = (
(267,352,l),
(205,325,o),
(142,249,o),
(142,196,qs),
(142,137,o),
(220,57,o),
(282,57,qs),
(330,57,o),
(410,106,o),
(445,150,q)
);
},
{
closed = 1;
nodes = (
(653,347,l),
(642,324,ls),
(605,249,o),
(545,158,q),
(678,12,l),
(586,-5,l),
(493,91,l),
(445,41,o),
(341,-11,o),
(277,-11,qs),
(214,-11,o),
(113,39,o),
(55,131,o),
(55,192,qs),
(55,269,o),
(142,375,o),
(225,406,q),
(191,448,o),
(156,522,o),
(156,561,qs),
(156,608,o),
(201,679,o),
(281,719,o),
(330,719,qs),
(379,719,o),
(456,678,o),
(500,609,o),
(500,568,qs),
(500,505,o),
(419,420,o),
(343,388,q),
(497,217,l),
(547,295,o),
(580,371,q)
);
},
{
closed = 1;
nodes = (
(236,535,o),
(268,477,o),
(301,438,q),
(355,458,o),
(420,523,o),
(420,563,qs),
(420,602,o),
(368,651,o),
(329,651,qs),
(289,651,o),
(236,602,o),
(236,562,qs)
);
}
);
width = 684;
},
{
layerId = "4F54520B-6C1D-43AE-845C-9A591DE39CE0";
shapes = (
{
closed = 1;
nodes = (
(270,340,l),
(215,315,o),
(158,245,o),
(158,197,q),
(158,143,o),
(231,69,o),
(288,69,q),
(331,69,o),
(404,113,o),
(438,152,q)
);
},
{
closed = 1;
nodes = (
(662,346,l),
(651,324,l),
(612,244,o),
(556,161,q),
(688,16,l),
(582,-5,l),
(494,86,l),
(446,38,o),
(343,-11,o),
(280,-11,q),
(216,-11,o),
(112,39,o),
(53,131,o),
(53,192,q),
(53,267,o),
(138,372,o),
(218,403,q),
(186,445,o),
(153,517,o),
(153,556,q),
(153,603,o),
(199,678,o),
(282,719,o),
(335,719,q),
(386,719,o),
(466,677,o),
(511,605,o),
(511,563,q),
(511,500,o),
(431,414,o),
(357,383,q),
(499,227,l),
(545,299,o),
(579,373,q)
);
},
{
closed = 1;
nodes = (
(247,529,o),
(277,475,o),
(307,439,q),
(358,459,o),
(419,520,o),
(419,558,q),
(419,595,o),
(371,640,o),
(334,640,q),
(296,640,o),
(247,593,o),
(247,555,q)
);
}
);
width = 695;
},
{
layerId = "35043653-3C0A-484D-8455-0CC3777AD120";
shapes = (
{
closed = 1;
nodes = (
(286,278,l),
(260,263,o),
(236,224,o),
(236,200,q),
(236,169,o),
(282,131,o),
(318,131,q),
(339,131,o),
(380,146,o),
(401,161,q)
);
},
{
closed = 1;
nodes = (
(708,341,l),
(698,322,l),
(642,219,o),
(609,173,q),
(735,34,l),
(560,-5,l),
(500,59,l),
(454,24,o),
(351,-12,o),
(292,-12,q),
(220,-12,o),
(107,37,o),
(42,129,o),
(42,192,q),
(42,258,o),
(112,356,o),
(184,388,q),
(160,423,o),
(138,493,o),
(138,529,q),
(138,580,o),
(192,667,o),
(292,719,o),
(358,719,q),
(421,719,o),
(515,672,o),
(566,589,o),
(566,537,q),
(566,476,o),
(494,386,o),
(429,355,q),
(507,274,l),
(538,319,o),
(573,385,q)
);
},
{
closed = 1;
nodes = (
(302,503,o),
(319,467,o),
(338,442,q),
(376,461,o),
(412,504,o),
(412,530,q),
(412,556,o),
(382,586,o),
(358,586,q),
(331,586,o),
(302,549,o),
(302,522,q)
);
}
);
width = 748;
}
);
note = ampersand;
unicode = 38;
},
{
glyphname = quotesingle;
layers = (
{
layerId = m01;
shapes = (
{
closed = 1;
nodes = (
(188,708,l),
(188,708,l),
(176,655,l),
(126,443,l),
(71,443,l),
(96,708,l)
);
}
);
width = 259;
},
{
layerId = "4F54520B-6C1D-43AE-845C-9A591DE39CE0";
shapes = (
{
closed = 1;
nodes = (
(210,707,l),
(210,707,l),
(200,662,l),
(137,426,l),
(74,426,l),
(99,707,l)
);
}
);
width = 284;
},
{
layerId = "35043653-3C0A-484D-8455-0CC3777AD120";
shapes = (
{
closed = 1;
nodes = (
(366,700,l),
(366,699,l),
(366,697,l),
(239,341,l),
(136,341,l),
(158,700,l)
);
}
);
width = 408;
}
);
note = quotesingle;
unicode = 39;
},
{
glyphname = parenleft;
layers = (
{
layerId = m01;
shapes = (
{
closed = 1;
nodes = (
(303,-164,l),
(194,-75,o),
(76,150,o),
(76,284,qs),
(76,417,o),
(189,639,o),
(301,737,q),
(345,686,l),
(249,593,o),
(158,401,o),
(158,284,qs),
(158,166,o),
(252,-24,o),
(344,-114,q)
);
}
);
width = 396;
},
{
layerId = "4F54520B-6C1D-43AE-845C-9A591DE39CE0";
shapes = (
{
closed = 1;
nodes = (
(310,-158,l),
(197,-74,o),
(75,148,o),
(75,285,q),
(75,419,o),
(193,636,o),
(309,732,q),
(361,671,l),
(265,583,o),
(174,399,o),
(174,285,q),
(174,169,o),
(268,-14,o),
(360,-99,q)
);
}
);
width = 409;
},
{
layerId = "35043653-3C0A-484D-8455-0CC3777AD120";
shapes = (
{
closed = 1;
nodes = (
(342,-130,l),
(208,-61,o),
(70,139,o),
(70,287,q),
(70,432,o),
(212,631,o),
(346,706,q),
(441,597,l),
(343,530,o),
(256,385,o),
(256,287,q),
(256,185,o),
(349,41,o),
(441,-23,q)
);
}
);
width = 474;
}
);
note = parenleft;
unicode = 40;
},
{
glyphname = parenright;
layers = (
{
layerId = m01;
shapes = (
{
closed = 1;
nodes = (
(96,737,l),
(209,637,o),
(322,415,o),
(322,284,qs),
(322,152,o),
(205,-70,o),
(95,-164,q),
(52,-114,l),
(150,-24,o),
(240,169,o),
(240,284,qs),
(240,407,o),
(146,599,o),
(51,686,q)
);
}
);
width = 398;
},
{
layerId = "4F54520B-6C1D-43AE-845C-9A591DE39CE0";
shapes = (
{
closed = 1;
nodes = (
(102,732,l),
(219,635,o),
(336,418,o),
(336,285,q),
(336,150,o),
(215,-70,o),
(101,-158,q),
(49,-99,l),
(147,-12,o),
(237,173,o),
(237,285,q),
(237,404,o),
(143,590,o),
(48,671,q)
);
}
);
width = 411;
},
{
layerId = "35043653-3C0A-484D-8455-0CC3777AD120";
shapes = (
{
closed = 1;
nodes = (
(129,706,l),
(266,633,o),
(405,433,o),
(405,287,q),
(405,139,o),
(269,-60,o),
(133,-130,q),
(34,-23,l),
(132,44,o),
(219,189,o),
(219,287,q),
(219,389,o),
(126,533,o),
(34,597,q)
);
}
);
width = 474;
}
);
note = parenright;
unicode = 41;
},
{
glyphname = asterisk;
layers = (
{
layerId = m01;
shapes = (
{
closed = 1;
nodes = (
(115,725,l),
(178,644,l),
(239,725,l),
(289,693,l),
(228,607,l),
(325,573,l),
(306,515,l),
(208,548,l),
(208,440,l),
(147,440,l),
(147,549,l),
(48,515,l),
(28,573,l),
(128,608,l),
(65,690,l)
);
}
);
width = 353;
},
{
layerId = "4F54520B-6C1D-43AE-845C-9A591DE39CE0";
shapes = (
{
closed = 1;
nodes = (
(118,723,l),
(183,637,l),
(247,723,l),
(300,688,l),
(236,598,l),
(338,563,l),
(318,502,l),
(215,536,l),
(215,423,l),
(151,423,l),
(151,537,l),
(47,502,l),
(26,563,l),
(131,599,l),
(65,686,l)
);
}
);
width = 364;
},
{
layerId = "35043653-3C0A-484D-8455-0CC3777AD120";
shapes = (
{
closed = 1;
nodes = (
(132,710,l),
(209,602,l),
(286,710,l),
(352,663,l),
(277,552,l),
(400,510,l),
(375,435,l),
(251,476,l),
(251,340,l),
(169,340,l),
(169,478,l),
(42,435,l),
(18,510,l),
(144,554,l),
(66,663,l)
);
}
);
width = 417;
}
);
note = asterisk;
unicode = 42;
},
{
glyphname = plus;
layers = (
{
layerId = m01;
shapes = (
{
closed = 1;
nodes = (
(538,382,l),
(538,308,l),
(330,308,l),
(330,100,l),
(253,100,l),
(253,308,l),
(47,308,l),
(47,382,l),
(253,382,l),
(253,589,l),
(330,589,l),
(330,382,l)
);
}
);
width = 585;
},
{
layerId = "4F54520B-6C1D-43AE-845C-9A591DE39CE0";
shapes = (
{
closed = 1;
nodes = (
(547,391,l),
(547,301,l),
(346,301,l),
(346,99,l),
(253,99,l),
(253,301,l),
(53,301,l),
(53,391,l),
(253,391,l),
(253,592,l),
(346,592,l),
(346,391,l)
);
}
);
width = 600;
},
{
layerId = "35043653-3C0A-484D-8455-0CC3777AD120";
shapes = (
{
closed = 1;
nodes = (
(593,436,l),
(593,268,l),
(424,268,l),
(424,96,l),
(250,96,l),
(250,268,l),
(81,268,l),
(81,436,l),
(250,436,l),
(250,608,l),
(424,608,l),
(424,436,l)
);
}
);
width = 674;
}
);
note = plus;
unicode = 43;
},
{
glyphname = comma;
layers = (
{
layerId = m01;
shapes = (
{
closed = 1;
nodes = (
(35,-139,l),
(79,120,l),
(178,120,l),
(104,-139,l)
);
}
);
width = 252;
},
{
layerId = "4F54520B-6C1D-43AE-845C-9A591DE39CE0";
shapes = (
{
closed = 1;
nodes = (
(30,-143,l),
(77,133,l),
(188,133,l),
(110,-143,l)
);
}
);
width = 257;
},
{
layerId = "35043653-3C0A-484D-8455-0CC3777AD120";
shapes = (
{
closed = 1;
nodes = (
(7,-164,l),
(69,197,l),
(240,197,l),
(137,-164,l)
);
}
);
width = 280;
}
);
note = comma;
unicode = 44;
},
{
glyphname = hyphen;
layers = (
{
layerId = m01;
shapes = (
{
closed = 1;
nodes = (
(31,234,l),
(31,311,l),
(302,311,l),
(302,234,l)
);
}
);
width = 333;
},
{
layerId = "4F54520B-6C1D-43AE-845C-9A591DE39CE0";
shapes = (
{
closed = 1;
nodes = (
(30,227,l),
(30,319,l),
(310,319,l),
(310,227,l)
);
}
);
width = 339;
},
{
layerId = "35043653-3C0A-484D-8455-0CC3777AD120";
shapes = (
{
closed = 1;
nodes = (
(22,189,l),
(22,356,l),
(350,356,l),
(350,189,l)
);
}
);
width = 371;
}
);
note = hyphen;
unicode = 45;
},
{
glyphname = period;
layers = (
{
layerId = m01;
shapes = (
{
closed = 1;
nodes = (
(169,110,o),
(204,75,o),
(204,51,qs),
(204,26,o),
(169,-10,o),
(145,-10,qs),
(120,-10,o),
(85,26,o),
(85,51,qs),
(85,76,o),
(120,110,o),
(145,110,qs)
);
}
);
width = 290;
},
{
layerId = "4F54520B-6C1D-43AE-845C-9A591DE39CE0";
shapes = (
{
closed = 1;
nodes = (
(178,126,o),
(218,87,o),
(218,58,q),
(218,29,o),
(178,-11,o),
(150,-11,q),
(121,-11,o),
(81,29,o),
(81,58,q),
(81,88,o),
(120,126,o),
(150,126,q)
);
}
);
width = 300;
},
{
layerId = "35043653-3C0A-484D-8455-0CC3777AD120";
shapes = (
{
closed = 1;
nodes = (
(224,206,o),
(287,149,o),
(287,97,q),
(287,45,o),
(224,-13,o),
(174,-13,q),
(124,-13,o),
(62,45,o),
(62,97,q),
(62,148,o),
(122,206,o),
(174,206,q)
);
}
);
width = 350;
}
);
note = period;
unicode = 46;
},
{
glyphname = slash;
layers = (
{
layerId = m01;
shapes = (
{
closed = 1;
nodes = (
(2,-77,l),
(431,783,l),
(508,783,l),
(77,-77,l)
);
}
);
width = 502;
},
{
layerId = "4F54520B-6C1D-43AE-845C-9A591DE39CE0";
shapes = (
{
closed = 1;
nodes = (
(2,-86,l),
(433,786,l),
(523,786,l),
(89,-86,l)
);
}
);
width = 518;
},
{
layerId = "35043653-3C0A-484D-8455-0CC3777AD120";
shapes = (
{
closed = 1;
nodes = (
(-1,-128,l),
(442,798,l),
(596,798,l),
(153,-128,l)
);
}
);
width = 595;
}
);
note = slash;
unicode = 47;
},
{
glyphname = zero;
layers = (
{
layerId = m01;
shapes = (
{
closed = 1;
nodes = (
(131,267,o),
(173,134,o),
(253,62,o),
(311,62,qs),
(367,62,o),
(447,136,o),
(489,267,o),
(489,352,qs),
(489,439,o),
(447,568,o),
(366,638,o),
(310,640,qs),
(244,643,o),
(164,552,o),
(131,420,o),
(131,357,qs)
);
},
{
closed = 1;
nodes = (
(576,244,o),
(515,79,o),
(395,-14,o),
(309,-14,qs),
(224,-14,o),
(105,76,o),
(44,241,o),
(44,354,qs),
(44,462,o),
(105,627,o),
(225,719,o),
(310,719,qs),
(405,719,o),
(524,614,o),
(576,448,o),
(576,352,qs)
);
}
);
width = 619;
},
{
layerId = "4F54520B-6C1D-43AE-845C-9A591DE39CE0";
shapes = (
{
closed = 1;
nodes = (
(148,272,o),
(188.279,146.137,o),
(265,78,o),
(320.051,78,q),
(373.203,78,o),
(449.136,147.878,o),
(489,271.581,o),
(489,351.846,q),
(489,434,o),
(448,557,o),
(371,626,o),
(318.213,626,q),
(256,626,o),
(179.54,541.121,o),
(148,418,o),
(148,356,q)
);
},
{
closed = 1;
nodes = (
(591,243.548,o),
(530,80,o),
(406,-14,o),
(317.988,-14,q),
(231,-14,o),
(106.711,76.706,o),
(43,243,o),
(43,353,q),
(43,460,o),
(107,625,o),
(232,718,o),
(319,718,q),
(415,718,o),
(538,614,o),
(594,448,o),
(591,350.598,q)
);
}
);
width = 636;
},
{
layerId = "35043653-3C0A-484D-8455-0CC3777AD120";
shapes = (
{
closed = 1;
nodes = (
(233,296,o),
(266,208,o),
(325,158,o),
(363,158,q),
(401,158,o),
(459,207,o),
(491,295,o),
(491,350,q),
(491,405,o),
(458,493,o),
(399,542,o),
(361,542,q),
(316,542,o),
(259,483,o),
(233,396,o),
(233,352,q)
);
},
{
closed = 1;
nodes = (
(686,253,o),
(606,85,o),
(458,-14,o),
(361,-14,q),
(264,-14,o),
(117,84,o),
(38,250,o),
(38,350,q),
(38,449,o),
(118,616,o),
(266,714,o),
(363,714,q),
(460,714,o),
(607,616,o),
(686,450,o),
(686,352,q)
);
}
);
width = 723;
}
);
note = zero;
unicode = 48;
},
{
glyphname = one;
layers = (
{
layerId = m01;
shapes = (
{
closed = 1;
nodes = (
(116,0,l),
(116,630,l),
(8,630,l),
(8,708,l),
(200,708,l),
(200,0,l)
);
}
);
width = 309;
},
{
layerId = "4F54520B-6C1D-43AE-845C-9A591DE39CE0";
shapes = (
{
closed = 1;
nodes = (
(125,0,l),
(125,612,l),
(9,612,l),
(9,708,l),
(227,708,l),
(227,0,l)
);
}
);
width = 330;
},
{
layerId = "35043653-3C0A-484D-8455-0CC3777AD120";
shapes = (
{
closed = 1;
nodes = (
(169,0,l),
(169,524,l),
(14,524,l),
(14,705,l),
(360,705,l),
(360,0,l)
);
}
);
width = 435;
}
);
note = one;
unicode = 49;
},
{
glyphname = two;
layers = (
{
layerId = m01;
shapes = (
{
closed = 1;
nodes = (
(498,476,o),
(432,358,o),
(355,266,qs),
(196,76,l),
(512,76,l),
(512,0,l),
(35,0,l),
(289,310,ls),
(353,389,o),
(409,494,o),
(409,536,qs),
(409,581,o),
(349,642,o),
(285,642,qs),
(224,642,o),
(150,572,o),
(140,513,q),
(47,513,l),
(59,583,o),
(120,675,o),
(217,720,o),
(283,720,qs),
(339,720,o),
(437,673,o),
(498,586,o),
(498,528,qs)
);
}
);
width = 584;
},
{
layerId = "4F54520B-6C1D-43AE-845C-9A591DE39CE0";
shapes = (
{
closed = 1;
nodes = (
(506,468,o),
(443,353,o),
(367,262,q),
(224,90,l),
(519,90,l),
(519,0,l),
(29,0,l),
(288,313,l),
(347,384,o),
(400,485,o),
(400,525,q),
(400,568,o),
(342,626,o),
(283,626,q),
(226,626,o),
(155,560,o),
(147,503,q),
(40,503,l),
(50,575,o),
(114,671,o),
(215,717,o),
(283,717,q),
(341,717,o),
(444,671,o),
(506,582,o),
(506,522,q)
);
}
);
width = 586;
},
{
layerId = "35043653-3C0A-484D-8455-0CC3777AD120";
shapes = (
{
closed = 1;
nodes = (
(547,431,o),
(493,326,o),
(429,242,q),
(366,158,l),
(554,158,l),
(554,0,l),
(0,0,l),
(280,328,l),
(317,372,o),
(352,444,o),
(352,472,q),
(352,505,o),
(309,543,o),
(274,543,q),
(236,543,o),
(181,498,o),
(181,453,q),
(4,453,l),
(4,534,o),
(79,652,o),
(204,712,o),
(279,712,q),
(350,712,o),
(472,663,o),
(547,562,o),
(547,489,q)
);
}
);
width = 595;
}
);
note = two;
unicode = 50;
},
{
glyphname = three;
layers = (
{
layerId = m01;
shapes = (
{
closed = 1;
nodes = (
(313,442,l),
(377,440,o),
(479,388,o),
(537,291,o),
(537,225,qs),
(537,160,o),
(474,51,o),
(363,-13,o),
(295,-13,qs),
(207,-13,o),
(83,78,o),
(55,156,q),
(124,206,l),
(148,135,o),
(231,63,o),
(296,63,qs),
(364,63,o),
(452,149,o),
(452,221,qs),
(452,301,o),
(354,377,o),
(273,377,qs),
(235,377,o),
(201,370,q),
(190,415,l),
(402,642,l),
(96,642,l),
(96,718,l),
(508,718,l),
(508,644,l)
);
}
);
width = 609;
},
{
layerId = "4F54520B-6C1D-43AE-845C-9A591DE39CE0";
shapes = (
{
closed = 1;
nodes = (
(331,438,l),
(393,435,o),
(492,384,o),
(548,289,o),
(548,224,q),
(548,159,o),
(484,50,o),
(371,-13,o),
(301,-13,q),
(212,-13,o),
(85,73,o),
(51,148,q),
(131,208,l),
(158,143,o),
(239,78,o),
(300,78,q),
(363,78,o),
(445,156,o),
(445,222,q),
(445,294,o),
(354,364,o),
(277,364,q),
(229,364,o),
(204,358,q),
(190,412,l),
(393,626,l),
(94,626,l),
(94,715,l),
(521,715,l),
(521,630,l)
);
}
);
width = 615;
},
{
layerId = "35043653-3C0A-484D-8455-0CC3777AD120";
shapes = (
{
closed = 1;
nodes = (
(420,418,l),
(473,407,o),
(554,359,o),
(601,278,o),
(601,221,q),
(601,151,o),
(533,45,o),
(410,-14,o),
(328,-14,q),
(235,-14,o),
(86,51,o),
(33,110,q),
(168,219,l),
(201,186,o),
(278,152,o),
(317,152,q),
(361,152,o),
(412,192,o),
(412,225,q),
(412,259,o),
(352,297,o),
(298,297,q),
(257,297,o),
(216,297,q),
(188,398,l),
(349,543,l),
(81,543,l),
(81,700,l),
(587,700,l),
(587,561,l)
);
}
);
width = 642;
}
);
note = three;
unicode = 51;
},
{
glyphname = four;
layers = (
{
layerId = m01;
shapes = (
{
closed = 1;
nodes = (
(485,226,l),
(583,226,l),
(583,153,l),
(485,153,l),
(485,0,l),
(403,0,l),
(403,153,l),
(29,153,l),
(13,229,l),
(358,712,l),
(485,712,l)
);
},
{
closed = 1;
nodes = (
(110,226,l),
(403,226,l),
(403,635,l)
);
}
);
width = 619;
},
{
layerId = "4F54520B-6C1D-43AE-845C-9A591DE39CE0";
shapes = (
{
closed = 1;
nodes = (
(501,235,l),
(598,235,l),
(598,150,l),
(501,150,l),
(501,0,l),
(401,0,l),
(401,150,l),
(33,150,l),
(15,237,l),
(363,711,l),
(501,711,l)
);
},
{
closed = 1;
nodes = (
(129,235,l),
(419.656,235,l),
(401,609,l)
);
}
);
width = 632;
},
{
layerId = "35043653-3C0A-484D-8455-0CC3777AD120";
shapes = (
{
closed = 1;
nodes = (
(581,281,l),
(670,281,l),
(670,136,l),
(581,136,l),
(581,0,l),
(393,0,l),
(393,136,l),
(54,136,l),
(22,274,l),
(385,705,l),
(581,705,l)
);
},
{
closed = 1;
nodes = (
(226,281,l),
(503.373,281,l),
(393,481,l)
);
}
);
width = 695;
}
);
note = four;
unicode = 52;
},
{
glyphname = five;
layers = (
{
layerId = m01;
shapes = (
{
closed = 1;
nodes = (
(71,381,l),
(103,705,l),
(474,705,l),
(467,630,l),
(171,630,l),
(149,424,l),
(182,434,o),
(230,444,o),
(256,444,qs),
(323,444,o),
(433,389,o),
(497,288,o),
(497,222,qs),
(497,152,o),
(434,46,o),
(320,-13,o),
(245,-13,qs),
(177,-13,o),
(75,34,o),
(23,83,q),
(72,139,l),
(110,102,o),
(196,62,o),
(245,62,qs),
(322,62,o),
(412,148,o),
(412,218,qs),
(412,261,o),
(365,330,o),
(284,369,o),
(234,369,qs),
(187,369,o),
(136,350,q)
);
}
);
width = 562;
},
{
layerId = "4F54520B-6C1D-43AE-845C-9A591DE39CE0";
shapes = (
{
closed = 1;
nodes = (
(72,375,l),
(102,704,l),
(490,704,l),
(484,615,l),
(185,615,l),
(165,426,l),
(201,437,o),
(247,447,o),
(273,447,q),
(339,447,o),
(450,393,o),
(514,292,o),
(514,225,q),
(514,154,o),
(450,46,o),
(333,-13,o),
(256,-13,q),
(184,-13,o),
(77,35,o),
(23,85,q),
(83,154,l),
(123,116,o),
(207,77,o),
(255,77,q),
(328,77,o),
(412,156,o),
(412,221,q),
(412,262,o),
(369,325,o),
(293,360,o),
(246,360,q),
(198,360,o),
(146,339,q)
);
}
);
width = 574;
},
{
layerId = "35043653-3C0A-484D-8455-0CC3777AD120";
shapes = (
{
closed = 1;
nodes = (
(79,345,l),
(99,700,l),
(567,700,l),
(567,540,l),
(252,540,l),
(246,434,l),
(272,446,o),
(325,459,o),
(358,459,q),
(423,459,o),
(532,410,o),
(598,310,o),
(598,237,q),
(598,160,o),
(525,47,o),
(394,-14,o),
(309,-14,q),
(220,-14,o),
(83,43,o),
(25,97,q),
(136,227,l),
(181,189,o),
(263,151,o),
(306,151,q),
(354,151,o),
(409,197,o),
(409,235,q),
(409,260,o),
(383,297,o),
(337,316,o),
(306,316,q),
(252,316,o),
(194,281,q)
);
}
);
width = 635;
}
);
note = five;
unicode = 53;
},
{
glyphname = six;
layers = (
{
layerId = m01;
shapes = (
{
closed = 1;
nodes = (
(206,399,l),
(232,417,o),
(280,428,o),
(315,428,qs),
(377,428,o),
(479,376,o),
(538,279,o),
(538,215,qs),
(538,150,o),
(474,45,o),
(364,-14,o),
(296,-14,qs),
(227,-14,o),
(115,44,o),
(49,152,o),
(49,224,qs),
(49,273,o),
(93,366,o),
(146,447,qs),
(317,706,l),
(412,706,l)
);
},
{
closed = 1;
nodes = (
(364,58,o),
(452,145,o),
(452,213,qs),
(452,277,o),
(364,360,o),
(295,360,qs),
(248,360,o),
(175,320,o),
(135,250,o),
(135,209,qs),
(135,167,o),
(179,98,o),
(252,58,o),
(295,58,qs)
);
}
);
width = 590;
},
{
layerId = "4F54520B-6C1D-43AE-845C-9A591DE39CE0";
shapes = (
{
closed = 1;
nodes = (
(219,402,l),
(245,421,o),
(295.313,433,o),
(332,433,q),
(394,433,o),
(493.466,381,o),
(551,284,o),
(551,218.632,q),
(551,152.244,o),
(486,45,o),
(372.017,-14,o),
(301.554,-14,q),
(230.056,-14,o),
(114,44,o),
(47,152,o),
(47,224,q),
(47,274,o),
(92,373,o),
(149,458,q),
(313,706,l),
(426,706,l)
);
},
{
closed = 1;
nodes = (
(367,71,o),
(448,152.387,o),
(448,216,q),
(448,275.646,o),
(366,353,o),
(300,353,q),
(256.231,353,o),
(188.25,316.273,o),
(151,252,o),
(151,212.976,q),
(151,173,o),
(194.682,104,o),
(267.155,64,o),
(301,71,q)
);
}
);
width = 600;
},
{
layerId = "35043653-3C0A-484D-8455-0CC3777AD120";
shapes = (
{
closed = 1;
nodes = (
(285,414,l),
(316,438,o),
(367,458,o),
(414,458,q),
(476,458,o),
(566,407,o),
(615,309,o),
(615,240,q),
(615,163,o),
(542,48,o),
(413,-14,o),
(333,-14,q),
(242,-14,o),
(107,46,o),
(34,153,o),
(34,222,q),
(34,278,o),
(88,401,o),
(164,515,q),
(292,706,l),
(495,706,l)
);
},
{
closed = 1;
nodes = (
(374,137,o),
(426,189,o),
(426,229,q),
(426,268,o),
(372,319,o),
(327,319,q),
(297,319,o),
(253,296,o),
(230,255,o),
(230,230,q),
(230,203,o),
(256,160,o),
(301,137,o),
(329,137,q)
);
}
);
width = 649;
}
);
note = six;
unicode = 54;
},
{
glyphname = seven;
layers = (
{
layerId = m01;
shapes = (
{
closed = 1;
nodes = (
(84,0,l),
(428,630,l),
(38,630,l),
(38,705,l),
(517,705,l),
(517,629,l),
(177,0,l)
);
}
);
width = 513;
},
{
layerId = "4F54520B-6C1D-43AE-845C-9A591DE39CE0";
shapes = (
{
closed = 1;
nodes = (
(78,0,l),
(416,615,l),
(37,615,l),
(37,704,l),
(526,704,l),
(526,617,l),
(191,0,l)
);
}
);
width = 521;
},
{
layerId = "35043653-3C0A-484D-8455-0CC3777AD120";
shapes = (
{
closed = 1;
nodes = (
(45,0,l),
(353,537,l),
(29,537,l),
(29,700,l),
(568,700,l),
(568,554,l),
(259,0,l)
);
}
);
width = 558;
}
);
note = seven;
unicode = 55;
},
{
glyphname = eight;
layers = (
{
layerId = m01;
shapes = (
{
closed = 1;
nodes = (
(496,344,o),
(567,254,o),
(567,192,qs),
(567,132,o),
(502,39,o),
(389,-12,o),
(319,-12,qs),
(250,-12,o),
(137,41,o),
(72,133,o),
(72,190,qs),
(72,252,o),
(142,342,o),
(209,370,q),
(155,394,o),
(99,477,o),
(99,531,qs),
(99,584,o),
(158,670,o),
(259,718,o),
(319,718,qs),
(378,718,o),
(480,669,o),
(541,582,o),
(541,528,qs),
(541,475,o),
(480,395,o),
(429,369,q)
);
},
{
closed = 1;
nodes = (
(378,403,o),
(458,472,o),
(458,526,qs),
(458,577,o),
(378,646,o),
(319,646,qs),
(259,646,o),
(192,584,o),
(192,526,qs),
(192,489,o),
(229,433,o),
(288,403,o),
(319,403,qs)
);
},
{
closed = 1;
nodes = (
(366,60,o),
(440,96,o),
(481,158,o),
(481,196,qs),
(481,255,o),
(390,331,o),
(319,331,qs),
(273,331,o),
(200,296,o),
(158,234,o),
(158,196,qs),
(158,154,o),
(203,92,o),
(277,60,o),
(319,60,qs)
);
}
);
width = 639;
},
{
layerId = "4F54520B-6C1D-43AE-845C-9A591DE39CE0";
shapes = (
{
closed = 1;
nodes = (
(505,343,o),
(575,254.184,o),
(575,193,q),
(575,132,o),
(508.539,39,o),
(393,-12,o),
(321.013,-12,q),
(250.054,-12,o),
(133.845,41.201,o),
(67,133.549,o),
(67,190.765,q),
(67,253,o),
(136,341,o),
(201,369,q),
(149,393,o),
(93,475,o),
(93,529,q),
(93,582,o),
(154,668,o),
(258.764,717,o),
(321,717,q),
(383,717,o),
(488,668,o),
(550,580.552,o),
(550,526.273,q),
(550,473,o),
(491,395,o),
(434.779,369.271,q)
);
},
{
closed = 1;
nodes = (
(376.18,405,o),
(451,470.073,o),
(451,521,q),
(451,568.6,o),
(377,633,o),
(321,633,q),
(266,633,o),
(192,569,o),
(192,520,q),
(192,485.785,o),
(228,434,o),
(287,405,o),
(321,405,q)
);
},
{
closed = 1;
nodes = (
(377,67,o),
(451,103,o),
(473,165,o),
(473,199.474,q),
(473,253,o),
(387,324,o),
(320.591,324,q),
(277.565,324,o),
(209.284,291.887,o),
(170,235,o),
(170,199.402,q),
(170,160.057,o),
(212.353,101.977,o),
(282,72,o),
(330,67,q)
);
}
);
width = 642;
},
{
layerId = "35043653-3C0A-484D-8455-0CC3777AD120";
shapes = (
{
closed = 1;
nodes = (
(553,337,o),
(617,251,o),
(617,196,q),
(617,134,o),
(543,40,o),
(412,-12,o),
(329,-12,q),
(246,-12,o),
(115,40,o),
(41,134,o),
(41,195,q),
(41,254,o),
(103,339,o),
(161,363,q),
(116,388,o),
(65,462,o),
(65,516,q),
(65,572,o),
(132,661,o),
(252,712,o),
(329,712,q),
(406,712,o),
(526,661,o),
(593,572,o),
(593,516,q),
(593,465,o),
(544,388,o),
(497,363,q)
);
},
{
closed = 1;
nodes = (
(367,416,o),
(415,462,o),
(415,493,q),
(415,524,o),
(368,567,o),
(329,567,q),
(290,567,o),
(243,525,o),
(243,494,q),
(243,472,o),
(267,436,o),
(306,416,o),
(329,416,q)
);
},
{
closed = 1;
nodes = (
(360,133,o),
(406,155,o),
(430,193,o),
(430,214,q),
(430,248,o),
(373,290,o),
(329,290,q),
(300,290,o),
(254,271,o),
(228,236,o),
(228,214,q),
(228,188,o),
(257,152,o),
(303,133,o),
(329,133,q)
);
}
);
width = 658;
}
);
note = eight;
unicode = 56;
},
{
glyphname = nine;
layers = (
{
layerId = m01;
shapes = (
{
closed = 1;
nodes = (
(380,306,l),
(354,286,o),
(307,272,o),
(275,272,qs),
(214,272,o),
(110,328,o),
(49,427,o),
(49,490,qs),
(49,554,o),
(113,660,o),
(223,720,o),
(290,720,qs),
(360,720,o),
(473,661,o),
(537,551,o),
(537,479,qs),
(537,420,o),
(487,316,o),
(439,248,qs),
(269,-2,l),
(176,-2,l)
);
},
{
closed = 1;
nodes = (
(246,647,o),
(175,606,o),
(135,536,o),
(135,494,qs),
(135,429,o),
(223,345,o),
(292,345,qs),
(337,345,o),
(410,385,o),
(451,454,o),
(451,495,qs),
(451,537,o),
(407,607,o),
(334,647,o),
(291,647,qs)
);
}
);
width = 586;
},
{
layerId = "4F54520B-6C1D-43AE-845C-9A591DE39CE0";
shapes = (
{
closed = 1;
nodes = (
(377,304,l),
(350,284,o),
(302,268,o),
(268,268,q),
(206,268,o),
(105,323,o),
(47,422,o),
(47,486,q),
(47,553,o),
(112,660,o),
(225,720,o),
(294,720,q),
(368,720,o),
(484,661,o),
(550,552,o),
(550,480,q),
(550,424,o),
(504,326,o),
(455,253,q),
(284,-2,l),
(172,-2,l)
);
},
{
closed = 1;
nodes = (
(253,634,o),
(187,596,o),
(150,531,o),
(150,492,q),
(150,431,o),
(232,352,o),
(297,352,q),
(340,352,o),
(408,390,o),
(446,454,o),
(446,492,q),
(446,532,o),
(405,597,o),
(336,634,o),
(296,634,q)
);
}
);
width = 597;
},
{
layerId = "35043653-3C0A-484D-8455-0CC3777AD120";
shapes = (
{
closed = 1;
nodes = (
(364,292,l),
(334,269,o),
(277,248,o),
(235,248,q),
(174,248,o),
(83,300,o),
(34,399,o),
(34,468,q),
(34,544,o),
(108,658,o),
(235,720,o),
(312,720,q),
(406,720,o),
(543,660,o),
(615,553,o),
(615,484,q),
(615,443,o),
(581,349,o),
(535,277,q),
(357,0,l),
(154,0,l)
);
},
{
closed = 1;
nodes = (
(290,569,o),
(246,546,o),
(223,505,o),
(223,479,q),
(223,440,o),
(277,387,o),
(322,387,q),
(352,387,o),
(396,411,o),
(419,452,o),
(419,478,q),
(419,505,o),
(393,547,o),
(348,569,o),
(320,569,q)
);
}
);
width = 649;
}
);
note = nine;
unicode = 57;
},
{
glyphname = colon;
layers = (
{
layerId = m01;
shapes = (
{
closed = 1;
nodes = (
(170,111,o),
(205,76,o),
(205,51,qs),
(205,26,o),
(169,-10,o),
(146,-10,qs),
(119,-10,o),
(85,25,o),
(85,52,qs),
(85,78,o),
(120,111,o),
(146,111,qs)
);
},
{
closed = 1;
nodes = (
(170,491,o),
(205,456,o),
(205,431,qs),
(205,405,o),
(170,370,o),
(146,370,qs),
(119,370,o),
(85,405,o),
(85,432,qs),
(85,458,o),
(120,491,o),
(146,491,qs)
);
}
);
width = 291;
},
{
layerId = "4F54520B-6C1D-43AE-845C-9A591DE39CE0";
shapes = (
{
closed = 1;
nodes = (
(179,127,o),
(219,88,o),
(219,59,q),
(219,30,o),
(179,-11,o),
(151,-11,q),
(119,-11,o),
(81,28,o),
(81,59,q),
(81,90,o),
(120,127,o),
(151,127,q)
);
},
{
closed = 1;
nodes = (
(179,501,o),
(219,462,o),
(219,433,q),
(219,403,o),
(179,364,o),
(151,364,q),
(119,364,o),
(81,402,o),
(81,433,q),
(81,464,o),
(120,501,o),
(151,501,q)
);
}
);
width = 301;
},
{
layerId = "35043653-3C0A-484D-8455-0CC3777AD120";
shapes = (
{
closed = 1;
nodes = (
(224,206,o),
(287,149,o),
(287,97,q),
(287,45,o),
(224,-13,o),
(174,-13,q),
(124,-13,o),
(62,45,o),
(62,97,q),
(62,148,o),
(122,206,o),
(174,206,q)
);
},
{
closed = 1;
nodes = (
(224,552,o),
(287,495,o),
(287,443,q),
(287,391,o),
(224,333,o),
(174,333,q),
(124,333,o),
(62,391,o),
(62,443,q),
(62,494,o),
(122,552,o),
(174,552,q)
);
}
);
width = 350;
}
);
note = colon;
unicode = 58;
},
{
glyphname = semicolon;
layers = (
{
layerId = m01;
shapes = (
{
closed = 1;
nodes = (
(148,491,o),
(184,455,o),
(184,431,qs),
(184,405,o),
(148,370,o),
(124,370,qs),
(97,370,o),
(63,405,o),
(63,431,qs),
(63,457,o),
(98,491,o),
(124,491,qs)
);
},
{
closed = 1;
nodes = (
(35,-139,l),
(78,120,l),
(179,120,l),
(105,-139,l)
);
}
);
width = 254;
},
{
layerId = "4F54520B-6C1D-43AE-845C-9A591DE39CE0";
shapes = (
{
closed = 1;
nodes = (
(155,501,o),
(196,462,o),
(196,433,q),
(196,403,o),
(155,364,o),
(127,364,q),
(97,364,o),
(58,402,o),
(58,433,q),
(58,463,o),
(97,501,o),
(127,501,q)
);
},
{
closed = 1;
nodes = (
(30,-143,l),
(77,133,l),
(189,133,l),
(110,-143,l)
);
}
);
width = 261;
},
{
layerId = "35043653-3C0A-484D-8455-0CC3777AD120";
shapes = (
{
closed = 1;
nodes = (
(193,552,o),
(256,495,o),
(256,443,q),
(256,391,o),
(193,333,o),
(143,333,q),
(93,333,o),
(31,391,o),
(31,443,q),
(31,494,o),
(91,552,o),
(143,552,q)
);
},
{
closed = 1;
nodes = (
(7,-164,l),
(69,197,l),
(240,197,l),
(137,-164,l)
);
}
);
width = 297;
}
);
note = semicolon;
unicode = 59;
},
{
glyphname = less;
layers = (
{
layerId = m01;
shapes = (
{
closed = 1;
nodes = (
(149,343,l),
(536,158,l),
(536,79,l),
(58,307,l),
(58,378,l),
(536,606,l),
(536,526,l)
);
}
);
width = 594;
},
{
layerId = "4F54520B-6C1D-43AE-845C-9A591DE39CE0";
shapes = (
{
closed = 1;
nodes = (
(167,345,l),
(544,172,l),
(544,77,l),
(63,300,l),
(63,388,l),
(544,611,l),
(544,515,l)
);
}
);
width = 606;
},
{
layerId = "35043653-3C0A-484D-8455-0CC3777AD120";
shapes = (
{
closed = 1;
nodes = (
(255,352,l),
(582,243,l),
(582,65,l),
(85,263,l),
(85,440,l),
(582,638,l),
(582,461,l)
);
}
);
width = 666;
}
);
note = less;
unicode = 60;
},
{
glyphname = equal;
layers = (
{
layerId = m01;
shapes = (
{
closed = 1;
nodes = (
(524,438,l),
(47,438,l),
(47,513,l),
(521,513,l)
);
},
{
closed = 1;
nodes = (
(521,196,l),
(47,196,l),
(47,271,l),
(521,271,l)
);
}
);
width = 568;
},
{
layerId = "4F54520B-6C1D-43AE-845C-9A591DE39CE0";
shapes = (
{
closed = 1;
nodes = (
(530,432,l),
(53,432,l),
(53,507,l),
(530,523,l)
);
},
{
closed = 1;
nodes = (
(530,186,l),
(53,186,l),
(53,265.732,l),
(530,276,l)
);
}
);
width = 582;
},
{
layerId = "35043653-3C0A-484D-8455-0CC3777AD120";
shapes = (
{
closed = 1;
nodes = (
(572,403,l),
(81,403,l),
(81,478,l),
(572,570,l)
);
},
{
closed = 1;
nodes = (
(572,134,l),
(81,134,l),
(81,237.155,l),
(572,301,l)
);
}
);
width = 653;
}
);
note = equal;
unicode = 61;
},
{
glyphname = greater;
layers = (
{
layerId = m01;
shapes = (
{
closed = 1;
nodes = (
(535,379,l),
(535,306,l),
(58,80,l),
(58,160,l),
(444,342,l),
(58,525,l),
(58,606,l)
);
}
);
width = 593;
},
{
layerId = "4F54520B-6C1D-43AE-845C-9A591DE39CE0";
shapes = (
{
closed = 1;
nodes = (
(543,389,l),
(543,299,l),
(63,78,l),
(63,174,l),
(439,344,l),
(63,514,l),
(63,611,l)
);
}
);
width = 605;
},
{
layerId = "35043653-3C0A-484D-8455-0CC3777AD120";
shapes = (
{
closed = 1;
nodes = (
(582,440,l),
(582,263,l),
(85,65,l),
(85,242,l),
(412,351,l),
(85,460,l),
(85,638,l)
);
}
);
width = 667;
}
);
note = greater;
unicode = 62;
},
{
glyphname = question;
layers = (
{
layerId = m01;
shapes = (
{
closed = 1;
nodes = (
(54,649,l),
(78,680,o),
(161,717,o),
(211,717,qs),
(264,717,o),
(344,675,o),
(388,600,o),
(388,551,qs),
(388,515,o),
(365,451,o),
(325,398,o),
(298,374,qs),
(257,337,o),
(224,273,o),
(224,222,qs),
(224,190,l),
(142,190,l),
(142,252,ls),
(142,309,o),
(191,387,o),
(236,429,qs),
(272,463,o),
(306,512,o),
(306,544,qs),
(306,583,o),
(251,641,o),
(201,641,qs),
(116,641,o),
(54,552,q)
);
},
{
closed = 1;
nodes = (
(213,109,o),
(249,73,o),
(249,50,qs),
(249,24,o),
(214,-9,o),
(188,-9,qs),
(163,-9,o),
(128,24,o),
(128,51,qs),
(128,74,o),
(165,109,o),
(188,109,qs)
);
}
);
width = 442;
},
{
layerId = "4F54520B-6C1D-43AE-845C-9A591DE39CE0";
shapes = (
{
closed = 1;
nodes = (
(51,643,l),
(78,677,o),
(165,716,o),
(218,716,q),
(273,716,o),
(358,674,o),
(405,596,o),
(405,544,q),
(405,506,o),
(381,443,o),
(340,390,o),
(311,366,q),
(273,332,o),
(242,274,o),
(242,227,q),
(242,195,l),
(144,195,l),
(144,254,l),
(144,311,o),
(192,385,o),
(237,427,q),
(270,458,o),
(304,506,o),
(304,536,q),
(304,572,o),
(250,625,o),
(204,625,q),
(117,625,o),
(51,536,q)
);
},
{
closed = 1;
nodes = (
(227,121,o),
(267,83,o),
(267,56,q),
(267,26,o),
(228,-10,o),
(198,-10,q),
(170,-10,o),
(131,26,o),
(131,56,q),
(131,83,o),
(171,121,o),
(198,121,q)
);
}
);
width = 456;
},
{
layerId = "35043653-3C0A-484D-8455-0CC3777AD120";
shapes = (
{
closed = 1;
nodes = (
(37,613,l),
(75,662,o),
(185,709,o),
(251,709,q),
(314,709,o),
(422,661,o),
(487,569,o),
(487,506,q),
(487,463,o),
(460,401,o),
(413,355,o),
(374,325,q),
(347,303,o),
(330,276,o),
(330,249,q),
(330,218,l),
(156,218,l),
(156,261,l),
(156,315,o),
(202,384,o),
(243,417,q),
(266,434,o),
(296,474,o),
(296,494,q),
(296,520,o),
(248,547,o),
(216,547,q),
(135,547,o),
(37,455,q)
);
},
{
closed = 1;
nodes = (
(297,180,o),
(358,130,o),
(358,84,q),
(358,38,o),
(297,-13,o),
(250,-13,q),
(203,-13,o),
(143,38,o),
(143,84,q),
(143,130,o),
(203,180,o),
(250,180,q)
);
}
);
width = 524;
}
);
note = question;
unicode = 63;
},
{
glyphname = at;
layers = (
{
layerId = m01;
shapes = (
{
closed = 1;
nodes = (
(313,244,o),
(371,175,o),
(419,175,qs),
(458,175,o),
(524,222,o),
(563,298,o),
(563,339,qs),
(563,391,o),
(505,452,o),
(455,452,qs),
(416,452,o),
(350,407,o),
(313,336,o),
(313,299,qs)
);
},
{
closed = 1;
nodes = (
(744,-8,l),
(683,-50,o),
(546,-93,o),
(469,-93,qs),
(349,-93,o),
(158,13,o),
(51,197,o),
(51,309,qs),
(51,421,o),
(160,609,o),
(348,719,o),
(462,719,qs),
(569,719,o),
(749,623,o),
(854,457,o),
(854,357,qs),
(854,281,o),
(806,168,o),
(723,109,o),
(671,109,qs),
(627,109,o),
(575,151,o),
(560,194,q),
(533,156,o),
(458,111,o),
(410,111,qs),
(360,111,o),
(281,158,o),
(235,242,o),
(235,296,qs),
(235,357,o),
(294,462,o),
(393,524,o),
(451,524,qs),
(499,524,o),
(562,482,o),
(583,446,q),
(593,511,l),
(663,505,l),
(626,239,l),
(626,202,o),
(658,158,o),
(687,158,qs),
(719,158,o),
(773,206,o),
(805,292,o),
(805,346,qs),
(805,437,o),
(715,587,o),
(557,674,o),
(461,674,qs),
(360,674,o),
(196,578,o),
(103,413,o),
(103,312,qs),
(103,210,o),
(196,45,o),
(366,-49,o),
(478,-49,qs),
(545,-49,o),
(660,-12,o),
(720,26,q)
);
}
);
width = 906;
},
{
layerId = "4F54520B-6C1D-43AE-845C-9A591DE39CE0";
shapes = (
{
closed = 1;
nodes = (
(323,243.105,o),
(377,178,o),
(424,178,q),
(460.833,178,o),
(523.167,222.325,o),
(560,294,o),
(560,333.677,q),
(560,384,o),
(505.222,445,o),
(458,445,q),
(419,445,o),
(358,403,o),
(323,334,o),
(323,295,q)
);
},
{
closed = 1;
nodes = (
(745,-21,l),
(683,-63,o),
(548,-105,o),
(471,-105,q),
(351,-105,o),
(158,3,o),
(49,190,o),
(49,303.287,q),
(49,416.575,o),
(159.326,606.736,o),
(349.613,718,o),
(465,718,q),
(573.864,718,o),
(757,620,o),
(864,452,o),
(864,352,q),
(864,274,o),
(814.689,159.686,o),
(729.421,100,o),
(676,100,q),
(629,100,o),
(572,142,o),
(557,184,q),
(528,145,o),
(456,102,o),
(407.785,102,q),
(357.561,102,o),
(278.206,149.718,o),
(232,235,o),
(232,290.149,q),
(232,352.447,o),
(291,459.681,o),
(390,523,o),
(448,523,q),
(496,523,o),
(559,483,o),
(581,446,q),
(591,510,l),
(675,501,l),
(637,237,l),
(635,199,o),
(667,152,o),
(698,152,q),
(730,152,o),
(782.744,200.358,o),
(814,287,o),
(814,343,q),
(814,435,o),
(722.911,585.633,o),
(563,673,o),
(464,673,q),
(361.857,673,o),
(196,576,o),
(101,407.898,o),
(101,305,q),
(101,201.87,o),
(194.744,35.042,o),
(366.104,-60,o),
(479,-60,q),
(548,-60,o),
(663,-24,o),
(721,13,q)
);
}
);
width = 913;
},
{
layerId = "35043653-3C0A-484D-8455-0CC3777AD120";
shapes = (
{
closed = 1;
nodes = (
(374,235,o),
(414,194,o),
(447,194,q),
(473,194,o),
(517,225,o),
(543,278,o),
(543,309,q),
(543,344,o),
(503,385,o),
(470,385,q),
(442,385,o),
(398,352,o),
(374,300,o),
(374,272,q)
);
},
{
closed = 1;
nodes = (
(748,-87,l),
(688,-124,o),
(558,-162,o),
(483,-162,q),
(357,-162,o),
(153,-46,o),
(37,155,o),
(37,275,q),
(37,394,o),
(154,596,o),
(357,714,o),
(480,714,q),
(601,714,o),
(799,609,o),
(911,430,o),
(911,325,q),
(911,238,o),
(852,117,o),
(755,57,o),
(698,57,q),
(639,57,o),
(564,99,o),
(544,133,q),
(512,97,o),
(442,59,o),
(397,59,q),
(345,59,o),
(262,109,o),
(214,200,o),
(214,260,q),
(214,330,o),
(275,450,o),
(376,520,o),
(435,520,q),
(481,520,o),
(547,480,o),
(569,446,q),
(581,507,l),
(736,483,l),
(690,225,l),
(683,182,o),
(713,122,o),
(751,122,q),
(784,122,o),
(832,168,o),
(859,260,o),
(859,325,q),
(859,421,o),
(764,577,o),
(592,667,o),
(480,667,q),
(366,667,o),
(188,564,o),
(89,385,o),
(89,275,q),
(89,164,o),
(187,-12,o),
(366,-112,o),
(483,-112,q),
(558,-112,o),
(673,-87,o),
(728,-55,q)
);
}
);
width = 948;
}
);
note = at;
unicode = 64;
},
{
glyphname = A;
layers = (
{
layerId = m01;
shapes = (
{
closed = 1;
nodes = (
(86,0,l),
(-5,0,l),
(303,705,l),
(373,705,l),
(682,0,l),
(589,0,l),
(505,197,l),
(171,197,l)
);
},
{
closed = 1;
nodes = (
(473,272,l),
(338,606,l),
(203,272,l)
);
}
);
width = 677;
},
{
layerId = "4F54520B-6C1D-43AE-845C-9A591DE39CE0";
shapes = (
{
closed = 1;
nodes = (
(104,0,l),
(-6,0,l),
(301,705,l),
(390,705,l),
(698,0,l),
(585,0,l),
(507,185,l),
(184,185,l)
);
},
{
closed = 1;
nodes = (
(471,273,l),
(345,584,l),
(220,273,l)
);
}
);
width = 692;
},
{
layerId = "35043653-3C0A-484D-8455-0CC3777AD120";
shapes = (
{
closed = 1;
nodes = (
(196,0,l),
(-8,0,l),
(290,705,l),
(477,705,l),
(775,0,l),
(567,0,l),
(516,125,l),
(246,125,l)
);
},
{
closed = 1;
nodes = (
(460,276,l),
(382,475,l),
(303,276,l)
);
}
);
width = 767;
}
);
note = A;
unicode = 65;
},
{
glyphname = B;
layers = (
{
layerId = m01;
shapes = (
{
closed = 1;
nodes = (
(281,705,ls),
(386,705,o),
(527,620,o),
(527,527,qs),
(527,469,o),
(475,384,o),
(425,366,q),
(509,355,o),
(591,262,o),
(591,194,qs),
(591,108,o),
(453,0,o),
(309,0,qs),
(80,0,l),
(80,705,l)
);
},
{
closed = 1;
nodes = (
(291,396,ls),
(366,396,o),
(443,462,o),
(443,515,qs),
(443,573,o),
(362,631,o),
(291,631,qs),
(164,631,l),
(164,396,l)
);
},
{
closed = 1;
nodes = (
(323,74,ls),
(418,74,o),
(507,137,o),
(507,198,qs),
(507,260,o),
(406,322,o),
(290,322,qs),
(164,322,l),
(164,74,l)
);
}
);
width = 637;
},
{
layerId = "4F54520B-6C1D-43AE-845C-9A591DE39CE0";
shapes = (
{
closed = 1;
nodes = (
(303,704,l),
(409,704,o),
(548,618,o),
(548,527,q),
(548,469,o),
(495,384,o),
(445,366,q),
(526,354,o),
(607,262,o),
(607,194,q),
(607,108,o),
(467,0,o),
(327,0,q),
(76,0,l),
(76,704,l)
);
},
{
closed = 1;
nodes = (
(304,400,l),
(374,400,o),
(446,460,o),
(446,510,q),
(446,563,o),
(372,617,o),
(305,617,q),
(178,617,l),
(178,400,l)
);
},
{
closed = 1;
nodes = (
(335,88,l),
(421,88,o),
(504,146,o),
(504,202,q),
(504,259,o),
(412,316,o),
(307,316,q),
(178,316,l),
(178,88,l)
);
}
);
width = 651;
},
{
layerId = "35043653-3C0A-484D-8455-0CC3777AD120";
shapes = (
{
closed = 1;
nodes = (
(415,700,l),
(526,700,o),
(653,607,o),
(653,524,q),
(653,466,o),
(596,387,o),
(545,366,q),
(612,346,o),
(684,263,o),
(684,195,q),
(684,104,o),
(543,0,o),
(417,0,q),
(58,0,l),
(58,700,l)
);
},
{
closed = 1;
nodes = (
(368,421,l),
(412,421,o),
(459,453,o),
(459,484,q),
(459,513,o),
(415,544,o),
(372,544,q),
(247,544,l),
(247,421,l)
);
},
{
closed = 1;
nodes = (
(396,156,l),
(441,156,o),
(490,191,o),
(490,222,q),
(490,251,o),
(441,285,o),
(394,285,q),
(247,285,l),
(247,156,l)
);
}
);
width = 718;
}
);
note = B;
unicode = 66;
},
{
glyphname = C;
layers = (
{
layerId = m01;
shapes = (
{
closed = 1;
nodes = (
(647,78,l),
(596,33,o),
(483,-14,o),
(412,-14,qs),
(311,-14,o),
(146,82,o),
(51,249,o),
(51,351,qs),
(51,453,o),
(145,622,o),
(312,719,o),
(415,719,qs),
(482,719,o),
(586,680,o),
(633,643,q),
(633,547,l),
(591,594,o),
(487,643,o),
(410,643,qs),
(332,643,o),
(208,565,o),
(138,432,o),
(138,352,qs),
(138,272,o),
(208,140,o),
(332,63,o),
(410,63,qs),
(479,63,o),
(583,120,o),
(647,175,q)
);
}
);
width = 706;
},
{
layerId = "4F54520B-6C1D-43AE-845C-9A591DE39CE0";
shapes = (
{
closed = 1;
nodes = (
(643,74,l),
(591,31,o),
(480,-14,o),
(410,-14,q),
(309,-14,o),
(144,82,o),
(49,249,o),
(49,351,q),
(49,453,o),
(144,621,o),
(310,718,o),
(414,718,q),
(480,718,o),
(585,680,o),
(630,645,q),
(630,532,l),
(590,577,o),
(486,625,o),
(412,625,q),
(337,625,o),
(220,552,o),
(155,427,o),
(155,352,q),
(155,277,o),
(220,152,o),
(337,80,o),
(412,80,q),
(480,80,o),
(583,134,o),
(643,187,q)
);
}
);
width = 699;
},
{
layerId = "35043653-3C0A-484D-8455-0CC3777AD120";
shapes = (
{
closed = 1;
nodes = (
(622,54,l),
(573,20,o),
(463,-14,o),
(398,-14,q),
(299,-14,o),
(134,81,o),
(37,248,o),
(37,350,q),
(37,451,o),
(133,618,o),
(302,714,o),
(406,714,q),
(470,714,o),
(573,682,o),
(617,652,q),
(617,455,l),
(581,492,o),
(481,537,o),
(424,537,q),
(367,537,o),
(282,488,o),
(237,403,o),
(237,352,q),
(237,298,o),
(281,212,o),
(366,163,o),
(424,163,q),
(479,163,o),
(575,205,o),
(622,248,q)
);
}
);
width = 665;
}
);
note = C;
unicode = 67;
},
{
glyphname = D;
layers = (
{
layerId = m01;
shapes = (
{
closed = 1;
nodes = (
(301,705,ls),
(408,705,o),
(579,617,o),
(677,457,o),
(677,353,qs),
(677,250,o),
(583,90,o),
(412,0,o),
(300,0,qs),
(80,0,l),
(80,705,l)
);
},
{
closed = 1;
nodes = (
(296,76,ls),
(388,76,o),
(519,146,o),
(587,270,o),
(587,351,qs),
(587,427,o),
(525,554,o),
(409,628,o),
(332,628,qs),
(165,628,l),
(165,76,l)
);
}
);
width = 729;
},
{
layerId = "4F54520B-6C1D-43AE-845C-9A591DE39CE0";
shapes = (
{
closed = 1;
nodes = (
(306,704,l),
(415,704,o),
(588,617,o),
(685,457,o),
(685,353,q),
(685,251,o),
(591,90,o),
(418,0,o),
(304,0,q),
(76,0,l),
(76,704,l)
);
},
{
closed = 1;
nodes = (
(302,92,l),
(388,92,o),
(512,157,o),
(577,275,o),
(577,351,q),
(577,417,o),
(521,536,o),
(414,611,o),
(342,611,q),
(180,611,l),
(180,92,l)
);
}
);
width = 734;
},
{
layerId = "35043653-3C0A-484D-8455-0CC3777AD120";
shapes = (
{
closed = 1;
nodes = (
(328,700,l),
(451,700,o),
(629,613,o),
(723,456,o),
(723,354,q),
(723,252,o),
(628,92,o),
(447,0,o),
(324,0,q),
(58,0,l),
(58,700,l)
);
},
{
closed = 1;
nodes = (
(331,172,l),
(389,172,o),
(476,215,o),
(524,295,o),
(524,351,q),
(524,406,o),
(476,486,o),
(389,528,o),
(331,528,q),
(252,528,l),
(252,172,l)
);
}
);
width = 761;
}
);
note = D;
unicode = 68;
},
{
glyphname = E;
layers = (
{
layerId = m01;
shapes = (
{
closed = 1;
nodes = (
(551,76,l),
(551,0,l),
(80,0,l),
(80,705,l),
(540,705,l),
(540,629,l),
(166,629,l),
(166,397,l),
(511,397,l),
(511,321,l),
(166,321,l),
(166,76,l)
);
}
);
width = 618;
},
{
layerId = "4F54520B-6C1D-43AE-845C-9A591DE39CE0";
shapes = (
{
closed = 1;
nodes = (
(564,91,l),
(564,0,l),
(76,0,l),
(76,704,l),
(554,704,l),
(554,613,l),
(180,613,l),
(180,402,l),
(524,402,l),
(524,314,l),
(180,314,l),
(180,91,l)
);
}
);
width = 628;
},
{
layerId = "35043653-3C0A-484D-8455-0CC3777AD120";
shapes = (
{
closed = 1;
nodes = (
(626,165,l),
(626,0,l),
(58,0,l),
(58,700,l),
(621,700,l),
(621,535,l),
(250,535,l),
(250,429,l),
(586,429,l),
(586,276,l),
(250,276,l),
(250,165,l)
);
}
);
width = 675;
}
);
note = E;
unicode = 69;
},
{
glyphname = F;
layers = (
{
layerId = m01;
shapes = (
{
closed = 1;
nodes = (
(80,0,l),
(80,705,l),
(537,705,l),
(537,629,l),
(165,629,l),
(165,389,l),
(506,389,l),
(506,313,l),
(165,313,l),
(165,0,l)
);
}
);
width = 589;
},
{
layerId = "4F54520B-6C1D-43AE-845C-9A591DE39CE0";
shapes = (
{
closed = 1;
nodes = (
(76,-2,l),
(76,704,l),
(551,704,l),
(551,613,l),
(180,613,l),
(180,393,l),
(519,393,l),
(519,303,l),
(180,303,l),
(180,-2,l)
);
}
);
width = 601;
},
{
layerId = "35043653-3C0A-484D-8455-0CC3777AD120";
shapes = (
{
closed = 1;
nodes = (
(58,0,l),
(58,700,l),
(618,700,l),
(618,530,l),
(252,530,l),
(252,411,l),
(583,411,l),
(583,250,l),
(252,250,l),
(252,0,l)
);
}
);
width = 659;
}
);
note = F;
unicode = 70;
},
{
glyphname = G;
layers = (
{
layerId = m01;
shapes = (
{
closed = 1;
nodes = (
(489,321,l),
(489,399,l),
(780,399,l),
(780,373,ls),
(780,264,o),
(701,88,o),
(538,-16,o),
(419,-16,qs),
(315,-16,o),
(146,83,o),
(51,251,o),
(51,352,qs),
(51,453,o),
(154,621,o),
(329,719,o),
(433,719,qs),
(496,719,o),
(611,685,o),
(663,647,q),
(663,553,l),
(622,594,o),
(508,643,o),
(439,643,qs),
(359,643,o),
(219,564,o),
(136,430,o),
(136,352,qs),
(136,271,o),
(212,138,o),
(344,62,o),
(425,62,qs),
(503,62,o),
(628,127,o),
(700,245,o),
(700,321,q)
);
}
);
width = 831;
},
{
layerId = "4F54520B-6C1D-43AE-845C-9A591DE39CE0";
shapes = (
{
closed = 1;
nodes = (
(474,312,l),
(474,401,l),
(770,401,l),
(770,372,l),
(770,258,o),
(689,83,o),
(529,-16,o),
(416,-16,q),
(312,-16,o),
(144,82,o),
(49,250,o),
(49,352,q),
(49,452,o),
(151,620,o),
(326,718,o),
(430,718,q),
(491,718,o),
(604,687,o),
(653,653,q),
(653,540,l),
(613,580,o),
(503,626,o),
(437,626,q),
(361,626,o),
(230,551,o),
(153,425,o),
(153,352,q),
(153,275,o),
(224,149,o),
(347,77,o),
(422,77,q),
(492,77,o),
(607,135,o),
(673,242,o),
(673,312,q)
);
}
);
width = 819;
},
{
layerId = "35043653-3C0A-484D-8455-0CC3777AD120";
shapes = (
{
closed = 1;
nodes = (
(400,267,l),
(400,409,l),
(722,409,l),
(722,369,l),
(722,227,o),
(629,56,o),
(484,-14,o),
(398,-14,q),
(300,-14,o),
(134,80,o),
(37,246,o),
(37,350,q),
(37,451,o),
(135,618,o),
(307,714,o),
(414,714,q),
(465,714,o),
(567,696,o),
(604,680,q),
(604,475,l),
(566,507,o),
(474,541,o),
(425,541,q),
(371,541,o),
(284,490,o),
(236,402,o),
(236,349,q),
(236,293,o),
(282,203,o),
(361,153,o),
(408,153,q),
(438,153,o),
(498,176,o),
(538,228,o),
(538,267,q)
);
}
);
width = 759;
}
);
note = G;
unicode = 71;
},
{
glyphname = H;
layers = (
{
layerId = m01;
shapes = (
{
closed = 1;
nodes = (
(164,706,l),
(164,398,l),
(546,398,l),
(546,706,l),
(630,706,l),
(630,0,l),
(546,0,l),
(546,320,l),
(164,320,l),
(164,0,l),
(80,0,l),
(80,706,l)
);
}
);
width = 709;
},
{
layerId = "4F54520B-6C1D-43AE-845C-9A591DE39CE0";
shapes = (
{
closed = 1;
nodes = (
(179,705,l),
(179,405,l),
(539,405,l),
(539,705,l),
(641,705,l),
(641,0,l),
(539,0,l),
(539,311,l),
(179,311,l),
(179,0,l),
(76,0,l),
(76,705,l)
);
}
);
width = 717;
},
{
layerId = "35043653-3C0A-484D-8455-0CC3777AD120";
shapes = (
{
closed = 1;
nodes = (
(252,700,l),
(252,438,l),
(501,438,l),
(501,700,l),
(695,700,l),
(695,0,l),
(501,0,l),
(501,266,l),
(252,266,l),
(252,0,l),
(58,0,l),
(58,700,l)
);
}
);
width = 754;
}
);
note = H;
unicode = 72;
},
{
glyphname = J;
layers = (
{
layerId = m01;
shapes = (
{
closed = 1;
nodes = (
(0,102,l),
(30,84,o),
(82,65,o),
(112,65,qs),
(162,65,o),
(210,131,o),
(210,207,qs),
(210,705,l),
(296,705,l),
(296,209,ls),
(296,137,o),
(252,39,o),
(169,-11,o),
(110,-11,qs),
(50,-11,o),
(0,22,q)
);
}
);
width = 368;
},
{
layerId = "4F54520B-6C1D-43AE-845C-9A591DE39CE0";
shapes = (
{
closed = 1;
nodes = (
(0,124,l),
(33,103,o),
(86,81,o),
(117,81,q),
(165,81,o),
(213,143,o),
(213,215,q),
(213,704,l),
(317,704,l),
(317,217,l),
(317,144,o),
(270,41,o),
(180,-11,o),
(117,-11,q),
(55,-11,o),
(0,25,q)
);
}
);
width = 386;
},
{
layerId = "35043653-3C0A-484D-8455-0CC3777AD120";
shapes = (
{
closed = 1;
nodes = (
(0,235,l),
(39,198,o),
(101,159,o),
(139,159,q),
(179,159,o),
(229,210,o),
(229,257,q),
(229,700,l),
(422,700,l),
(422,256,l),
(422,176,o),
(357,55,o),
(236,-12,o),
(154,-12,q),
(78,-12,o),
(0,41,q)
);
}
);
width = 475;
}
);
note = J;
unicode = 74;
},
{
glyphname = K;
layers = (
{
layerId = m01;
shapes = (
{
closed = 1;
nodes = (
(431,705,l),
(539,705,l),
(236,375,l),
(567,0,l),
(459,0,l),
(164,330,l),
(164,0,l),
(80,0,l),
(80,705,l),
(164,705,l),
(164,409,l)
);
}
);
width = 567;
},
{
layerId = "4F54520B-6C1D-43AE-845C-9A591DE39CE0";
shapes = (
{
closed = 1;
nodes = (
(441,704,l),
(570,704,l),
(273,379,l),
(595,0,l),
(466,0,l),
(179,336,l),
(179,0,l),
(76,0,l),
(76,704,l),
(179,704,l),
(179,410,l)
);
}
);
width = 593;
},
{
layerId = "35043653-3C0A-484D-8455-0CC3777AD120";
shapes = (
{
closed = 1;
nodes = (
(493,700,l),
(723,700,l),
(458,399,l),
(732,0,l),
(499,0,l),
(252,368,l),
(252,0,l),
(58,0,l),
(58,700,l),
(252,700,l),
(252,416,l)
);
}
);
width = 724;
}
);
note = K;
unicode = 75;
},
{
glyphname = L;
layers = (
{
layerId = m01;
shapes = (
{
closed = 1;
nodes = (
(510,76,l),
(510,0,l),
(80,0,l),
(80,705,l),
(165,705,l),
(165,76,l)
);
}
);
width = 526;
},
{
layerId = "4F54520B-6C1D-43AE-845C-9A591DE39CE0";
shapes = (
{
closed = 1;
nodes = (
(524,92,l),
(524,0,l),
(76,0,l),
(76,704,l),
(180,704,l),
(180,92,l)
);
}
);
width = 540;
},
{
layerId = "35043653-3C0A-484D-8455-0CC3777AD120";
shapes = (
{
closed = 1;
nodes = (
(591,170,l),
(591,0,l),
(58,0,l),
(58,700,l),
(252,700,l),
(252,170,l)
);
}
);
width = 607;
}
);
note = L;
unicode = 76;
},
{
glyphname = M;
layers = (
{
layerId = m01;
shapes = (
{
closed = 1;
nodes = (
(112,0,l),
(28,0,l),
(28,700,l),
(110,700,l),
(385,279,l),
(660,700,l),
(742,700,l),
(742,0,l),
(658,0,l),
(658,565,l),
(385,153,l),
(112,565,l)
);
}
);
width = 771;
},
{
layerId = "4F54520B-6C1D-43AE-845C-9A591DE39CE0";
shapes = (
{
closed = 1;
nodes = (
(128,0,l),
(26,0,l),
(26,700,l),
(129,700,l),
(386,304,l),
(643,700,l),
(745,700,l),
(745,0,l),
(643,0,l),
(643,538,l),
(386,149,l),
(128,538,l)
);
}
);
width = 773;
},
{
layerId = "35043653-3C0A-484D-8455-0CC3777AD120";
shapes = (
{
closed = 1;
nodes = (
(208,0,l),
(18,0,l),
(18,700,l),
(223,700,l),
(390,429,l),
(557,700,l),
(762,700,l),
(762,0,l),
(569,0,l),
(569,402,l),
(388,128,l),
(208,400,l)
);
}
);
width = 780;
}
);
note = M;
unicode = 77;
},
{
glyphname = N;
layers = (
{
layerId = m01;
shapes = (
{
closed = 1;
nodes = (
(584,705,l),
(666,705,l),
(666,0,l),
(582,0,l),
(162,577,l),
(162,0,l),
(80,0,l),
(80,700,l),
(165,700,l),
(584,126,l)
);
}
);
width = 746;
},
{
layerId = "4F54520B-6C1D-43AE-845C-9A591DE39CE0";
shapes = (
{
closed = 1;
nodes = (
(575,704,l),
(675,704,l),
(675,0,l),
(577,0,l),
(177,545,l),
(177,0,l),
(76,0,l),
(76,700,l),
(177,700,l),
(575,160,l)
);
}
);
width = 751;
},
{
layerId = "35043653-3C0A-484D-8455-0CC3777AD120";
shapes = (
{
closed = 1;
nodes = (
(527,700,l),
(719,700,l),
(719,0,l),
(549,0,l),
(250,384,l),
(250,0,l),
(58,0,l),
(58,700,l),
(239,700,l),
(527,330,l)
);
}
);
width = 778;
}
);
note = N;
unicode = 78;
},
{
glyphname = O;
layers = (
{
layerId = m01;
shapes = (
{
closed = 1;
nodes = (
(313,-14,o),
(145,83,o),
(51,251,o),
(51,352,qs),
(51,453,o),
(146,621,o),
(315,719,o),
(419,719,qs),
(522,719,o),
(688,620,o),
(782,453,o),
(782,354,qs),
(782,253,o),
(687,84,o),
(520,-14,o),
(417,-14,qs)
);
},
{
closed = 1;
nodes = (
(337,642,o),
(209,565,o),
(138,434,o),
(138,354,qs),
(138,273,o),
(209,140,o),
(337,63,o),
(418,63,qs),
(497,63,o),
(623,140,o),
(695,271,o),
(695,350,qs),
(695,428,o),
(625,562,o),
(498,642,o),
(418,642,qs)
);
}
);
width = 833;
},
{
layerId = "4F54520B-6C1D-43AE-845C-9A591DE39CE0";
shapes = (
{
closed = 1;
nodes = (
(307.113,-14,o),
(144,83,o),
(49,250,o),
(49,351,q),
(49,452,o),
(145,620,o),
(314,718,o),
(418,718,q),
(521.766,718,o),
(689,620,o),
(784,453,o),
(784,354,q),
(784,253,o),
(687.912,84,o),
(519,-14,o),
(408.087,-14,q)
);
},
{
closed = 1;
nodes = (
(341,625,o),
(221,553,o),
(154,429.45,o),
(154,354,q),
(154,277.454,o),
(220.649,151.766,o),
(340.805,79,o),
(416.841,79,q),
(491,79,o),
(611,152,o),
(678,276,o),
(678,355,q),
(678,433,o),
(610.036,567,o),
(486.731,647,o),
(419.787,625,q)
);
}
);
width = 832;
},
{
layerId = "35043653-3C0A-484D-8455-0CC3777AD120";
shapes = (
{
closed = 1;
nodes = (
(307,-14,o),
(135,84,o),
(37,250,o),
(37,350,q),
(37,449,o),
(136,616,o),
(308,714,o),
(414,714,q),
(520,714,o),
(692,617,o),
(791,451,o),
(791,352,q),
(791,250,o),
(689,83,o),
(516,-14,o),
(413,-14,q)
);
},
{
closed = 1;
nodes = (
(361,539,o),
(281,488,o),
(236,403,o),
(236,352,q),
(236,301,o),
(282,214,o),
(363,161,o),
(414,161,q),
(466,161,o),
(547,213,o),
(592,300,o),
(592,350,q),
(592,400,o),
(546,487,o),
(464,539,o),
(413,539,q)
);
}
);
width = 828;
}
);
note = O;
unicode = 79;
},
{
glyphname = P;
layers = (
{
layerId = m01;
shapes = (
{
closed = 1;
nodes = (
(307,705,ls),
(421,705,o),
(558,594,o),
(558,497,qs),
(558,429,o),
(490,331,o),
(373,279,o),
(300,279,qs),
(166,279,l),
(166,-2,l),
(80,-2,l),
(80,705,l)
);
},
{
closed = 1;
nodes = (
(298,355,ls),
(380,355,o),
(472,427,o),
(472,493,qs),
(472,561,o),
(383,629,o),
(300,629,qs),
(166,629,l),
(166,355,l)
);
}
);
width = 588;
},
{
layerId = "4F54520B-6C1D-43AE-845C-9A591DE39CE0";
shapes = (
{
closed = 1;
nodes = (
(316,704,l),
(434,704,o),
(573,590,o),
(573,490.049,q),
(573,419.981,o),
(504,319,o),
(383.305,266,o),
(308,266,q),
(180,266,l),
(180,-2,l),
(76,-2,l),
(94,704,l)
);
},
{
closed = 1;
nodes = (
(306,355,l),
(382.816,355,o),
(469,422.826,o),
(469,485,q),
(469,549.5,o),
(386,614,o),
(307.207,614,q),
(180,614,l),
(166.734,355,l)
);
}
);
width = 602;
},
{
layerId = "35043653-3C0A-484D-8455-0CC3777AD120";
shapes = (
{
closed = 1;
nodes = (
(358,700,l),
(492,700,o),
(649,570,o),
(649,454,q),
(649,373,o),
(572,259,o),
(436,200,o),
(348,200,q),
(252,200,l),
(252,0,l),
(58,0,l),
(58,700,l)
);
},
{
closed = 1;
nodes = (
(344,352,l),
(395,352,o),
(455,403,o),
(455,445,q),
(455,490,o),
(397,537,o),
(343,537,q),
(252,537,l),
(252,352,l)
);
}
);
width = 672;
}
);
note = P;
unicode = 80;
},
{
glyphname = Q;
layers = (
{
layerId = m01;
shapes = (
{
closed = 1;
nodes = (
(618,44,l),
(565,15,o),
(473,-14,o),
(417,-14,qs),
(313,-14,o),
(145,83,o),
(51,250,o),
(51,350,qs),
(51,451,o),
(146,620,o),
(315,719,o),
(419,719,qs),
(522,719,o),
(688,620,o),
(782,453,o),
(782,354,qs),
(782,281,o),
(732,154,o),
(686,104,q),
(780,30,l),
(780,-79,l)
);
},
{
closed = 1;
nodes = (
(337,642,o),
(209,565,o),
(138,434,o),
(138,354,qs),
(138,273,o),
(209,140,o),
(337,63,o),
(418,63,qs),
(497,63,o),
(623,140,o),
(695,271,o),
(695,350,qs),
(695,429,o),
(625,563,o),
(499,642,o),
(418,642,qs)
);
}
);
width = 828;
},
{
layerId = "4F54520B-6C1D-43AE-845C-9A591DE39CE0";
shapes = (
{
closed = 1;
nodes = (
(621,46,l),
(573,17,o),
(473,-14,o),
(416,-14,q),
(312,-14,o),
(144,83,o),
(49,250,o),
(49,350,q),
(49,451,o),
(145,620,o),
(314,718,o),
(418,718,q),
(521.766,718,o),
(689,620,o),
(784,452.372,o),
(784,353,q),
(784,283,o),
(738,163,o),
(695,114,q),
(791,34,l),
(791,-91,l)
);
},
{
closed = 1;
nodes = (
(348.776,630,o),
(221,553,o),
(154,428,o),
(154,352.898,q),
(154,276.857,o),
(221,152,o),
(341,79,o),
(416.938,79,q),
(491,79,o),
(611,152,o),
(678,276,o),
(678,350,q),
(678,424,o),
(611.929,550.451,o),
(493,625,o),
(429.634,630,q)
);
}
);
width = 837;
},
{
layerId = "35043653-3C0A-484D-8455-0CC3777AD120";
shapes = (
{
closed = 1;
nodes = (
(635,55,l),
(602,24,o),
(477,-14,o),
(413,-14,q),
(307,-14,o),
(135,83,o),
(37,250,o),
(37,350,q),
(37,449,o),
(136,616,o),
(308,714,o),
(414,714,q),
(520,714,o),
(693,617,o),
(791,450,o),
(791,350,q),
(791,293,o),
(766,205,o),
(737,163,q),
(847,52,l),
(847,-148,l)
);
},
{
closed = 1;
nodes = (
(361,539,o),
(281,488,o),
(236,401,o),
(236,350,q),
(236,300,o),
(282,213,o),
(363,161,o),
(414,161,q),
(466,161,o),
(547,212,o),
(592,298,o),
(592,350,q),
(592,400,o),
(546,487,o),
(464,539,o),
(413,539,q)
);
}
);
width = 884;
}
);
note = Q;
unicode = 81;
},
{
glyphname = R;
layers = (
{
layerId = m01;
shapes = (
{
closed = 1;
nodes = (
(80,705,l),
(299,705,ls),
(370,705,o),
(481,654,o),
(543,562,o),
(543,503,qs),
(543,423,o),
(438,319,o),
(349,304,q),
(578,0,l),
(475,0,l),
(256,299,l),
(166,299,l),
(166,0,l),
(80,0,l)
);
},
{
closed = 1;
nodes = (
(272,368,ls),
(357,368,o),
(457,432,o),
(457,500,qs),
(457,566,o),
(372,629,o),
(289,629,qs),
(166,629,l),
(166,368,l)
);
}
);
width = 586;
},
{
layerId = "4F54520B-6C1D-43AE-845C-9A591DE39CE0";
shapes = (
{
closed = 1;
nodes = (
(76,704,l),
(314,704,l),
(389,704,o),
(503,652,o),
(566,557,o),
(566,496,q),
(566,416,o),
(466,312,o),
(380,294,q),
(599,0,l),
(476,0,l),
(270,285,l),
(181,285,l),
(181,0,l),
(76,0,l)
);
},
{
closed = 1;
nodes = (
(290,367,l),
(369,367,o),
(462,428,o),
(462,492,q),
(462,554,o),
(381,613,o),
(304,613,q),
(181,613,l),
(181,367,l)
);
}
);
width = 604;
},
{
layerId = "35043653-3C0A-484D-8455-0CC3777AD120";
shapes = (
{
closed = 1;
nodes = (
(58,700,l),
(389,700,l),
(485,700,o),
(614,641,o),
(679,534,o),
(679,461,q),
(679,382,o),
(603,273,o),
(535,244,q),
(702,0,l),
(478,0,l),
(338,212,l),
(253,212,l),
(253,0,l),
(58,0,l)
);
},
{
closed = 1;
nodes = (
(380,364,l),
(429,364,o),
(484,410,o),
(484,449,q),
(484,490,o),
(429,532,o),
(379,532,q),
(253,532,l),
(253,364,l)
);
}
);
width = 695;
}
);
note = R;
unicode = 82;
},
{
glyphname = S;
layers = (
{
layerId = m01;
shapes = (
{
closed = 1;
nodes = (
(406,206,o),
(363,262,o),
(300,303,o),
(245,333,qs),
(180,367,o),
(101,421,o),
(46,500,o),
(46,554,qs),
(46,604,o),
(106,679,o),
(205,718,o),
(263,718,qs),
(313,718,o),
(400,690,o),
(434,661,q),
(434,558,l),
(398,605,o),
(310,643,o),
(264,643,qs),
(205,643,o),
(132,596,o),
(132,552,qs),
(132,521,o),
(172,472,o),
(232,435,o),
(284,408,qs),
(351,374,o),
(433,320,o),
(492,236,o),
(492,178,qs),
(492,112,o),
(424,26,o),
(314,-12,o),
(250,-12,qs),
(184,-12,o),
(77,27,o),
(31,71,q),
(31,164,l),
(85,110,o),
(199,63,o),
(256,63,qs),
(315,63,o),
(406,115,o),
(406,170,qs)
);
}
);
width = 537;
},
{
layerId = "4F54520B-6C1D-43AE-845C-9A591DE39CE0";
shapes = (
{
closed = 1;
nodes = (
(411,208,o),
(370,259,o),
(307,296,o),
(254,321,q),
(187,354,o),
(105,405,o),
(47,486,o),
(47,543,q),
(47,597,o),
(109,676,o),
(213,717,o),
(273,717,q),
(331,717,o),
(426,686,o),
(463,654,q),
(463,539,l),
(423,587,o),
(326,629,o),
(276,629,q),
(219,629,o),
(151,585,o),
(151,544,q),
(151,515,o),
(189,470,o),
(247,437,o),
(299,413,q),
(367,381,o),
(453,327,o),
(515,240,o),
(515,179,q),
(515,114,o),
(445,28,o),
(332,-12,o),
(266,-12,q),
(196,-12,o),
(78,30,o),
(29,77,q),
(29,183,l),
(86,128,o),
(210,77,o),
(271,77,q),
(326,77,o),
(411,124,o),
(411,175,q)
);
}
);
width = 557;
},
{
layerId = "35043653-3C0A-484D-8455-0CC3777AD120";
shapes = (
{
closed = 1;
nodes = (
(433,216,o),
(400,242,o),
(350,258,o),
(304,269,q),
(225,289,o),
(125,329,o),
(51,415,o),
(51,488,q),
(51,561,o),
(126,662,o),
(249,712,o),
(322,712,q),
(411,712,o),
(552,666,o),
(610,619,q),
(610,442,l),
(553,490,o),
(402,556,o),
(337,556,q),
(292,556,o),
(247,526,o),
(247,506,q),
(247,487,o),
(278,462,o),
(327,446,o),
(371,436,q),
(450,417,o),
(551,375,o),
(627,281,o),
(627,201,q),
(627,132,o),
(553,36,o),
(426,-12,o),
(346,-12,q),
(254,-12,o),
(82,46,o),
(18,104,q),
(18,278,l),
(84,222,o),
(262,149,o),
(343,149,q),
(381,149,o),
(433,167,o),
(433,197,q)
);
}
);
width = 657;
}
);
note = S;
unicode = 83;
},
{
glyphname = T;
layers = (
{
layerId = m01;
shapes = (
{
closed = 1;
nodes = (
(218,0,l),
(218,629,l),
(8,629,l),
(8,705,l),
(512,705,l),
(512,629,l),
(302,629,l),
(302,0,l)
);
}
);
width = 520;
},
{
layerId = "4F54520B-6C1D-43AE-845C-9A591DE39CE0";
shapes = (
{
closed = 1;
nodes = (
(219,0,l),
(219,613,l),
(9,613,l),
(9,704,l),
(531,704,l),
(531,613,l),
(321,613,l),
(321,0,l)
);
}
);
width = 540;
},
{
layerId = "35043653-3C0A-484D-8455-0CC3777AD120";
shapes = (
{
closed = 1;
nodes = (
(221,0,l),
(221,530,l),
(11,530,l),
(11,700,l),
(625,700,l),
(625,530,l),
(415,530,l),
(415,0,l)
);
}
);
width = 637;
}
);
note = T;
unicode = 84;
},
{
glyphname = U;
layers = (
{
layerId = m01;
shapes = (
{
closed = 1;
nodes = (
(71,706,l),
(155,706,l),
(155,288,ls),
(155,181,o),
(253,63,o),
(351,63,qs),
(446,63,o),
(546,174,o),
(546,285,qs),
(546,706,l),
(630,706,l),
(630,287,ls),
(630,144,o),
(488,-15,o),
(352,-15,qs),
(219,-15,o),
(71,146,o),
(71,284,qs)
);
}
);
width = 702;
},
{
layerId = "4F54520B-6C1D-43AE-845C-9A591DE39CE0";
shapes = (
{
closed = 1;
nodes = (
(68,705,l),
(171,705,l),
(171,292,l),
(171,190,o),
(264,80,o),
(356,80,q),
(445,80,o),
(540,185,o),
(540,289,q),
(540,705,l),
(642,705,l),
(642,291,l),
(642,145,o),
(495,-15,o),
(356,-15,q),
(218,-15,o),
(68,145,o),
(68,288,q)
);
}
);
width = 711;
},
{
layerId = "35043653-3C0A-484D-8455-0CC3777AD120";
shapes = (
{
closed = 1;
nodes = (
(52,700,l),
(249,700,l),
(249,311,l),
(249,237,o),
(317,162,o),
(378,162,q),
(440,162,o),
(507,233,o),
(507,306,q),
(507,700,l),
(704,700,l),
(704,312,l),
(704,148,o),
(531,-13,o),
(376,-13,q),
(221,-13,o),
(52,147,o),
(52,307,q)
);
}
);
width = 758;
}
);
note = U;
unicode = 85;
},
{
glyphname = V;
layers = (
{
layerId = m01;
shapes = (
{
closed = 1;
nodes = (
(325,88,l),
(557,705,l),
(649,705,l),
(374,0,l),
(273,0,l),
(-4,705,l),
(90,705,l)
);
}
);
width = 646;
},
{
layerId = "4F54520B-6C1D-43AE-845C-9A591DE39CE0";
shapes = (
{
closed = 1;
nodes = (
(332,116,l),
(552,704,l),
(664,704,l),
(388,-1,l),
(274,-1,l),
(-5,704,l),
(110,704,l)
);
}
);
width = 661;
},
{
layerId = "35043653-3C0A-484D-8455-0CC3777AD120";
shapes = (
{
closed = 1;
nodes = (
(368,257,l),
(527,700,l),
(740,700,l),
(456,-5,l),
(276,-5,l),
(-8,700,l),
(209,700,l)
);
}
);
width = 733;
}
);
note = V;
unicode = 86;
},
{
glyphname = W;
layers = (
{
layerId = m01;
shapes = (
{
closed = 1;
nodes = (
(458,706,l),
(539,706,l),
(717,126,l),
(901,705,l),
(989,705,l),
(755,0,l),
(675,0,l),
(496,582,l),
(323,0,l),
(241,0,l),
(4,705,l),
(95,705,l),
(285,126,l)
);
}
);
width = 993;
},
{
layerId = "4F54520B-6C1D-43AE-845C-9A591DE39CE0";
shapes = (
{
closed = 1;
nodes = (
(458,705,l),
(554,705,l),
(724,154,l),
(898,704,l),
(1005,704,l),
(771,-1,l),
(676,-1,l),
(503,551,l),
(336,-1,l),
(239,-1,l),
(3,704,l),
(113,704,l),
(292,154,l)
);
}
);
width = 1008;
},
{
layerId = "35043653-3C0A-484D-8455-0CC3777AD120";
shapes = (
{
closed = 1;
nodes = (
(459,702,l),
(626,702,l),
(761,295,l),
(883,700,l),
(1084,700,l),
(850,-5,l),
(681,-5,l),
(540,398,l),
(400,-5,l),
(231,-5,l),
(-3,700,l),
(202,700,l),
(324,295,l)
);
}
);
width = 1081;
}
);
note = W;
unicode = 87;
},
{
glyphname = X;
layers = (
{
layerId = m01;
shapes = (
{
closed = 1;
nodes = (
(316,426,l),
(507,705,l),
(603,705,l),
(363,363,l),
(616,0,l),
(519,0,l),
(313,296,l),
(109,0,l),
(10,0,l),
(265,361,l),
(22,705,l),
(121,705,l)
);
}
);
width = 627;
},
{
layerId = "4F54520B-6C1D-43AE-845C-9A591DE39CE0";
shapes = (
{
closed = 1;
nodes = (
(323,439,l),
(503,704,l),
(619,704,l),
(381,362,l),
(632,0,l),
(514,0,l),
(320,282,l),
(127,0,l),
(8,0,l),
(261,360,l),
(20,704,l),
(140,704,l)
);
}
);
width = 641;
},
{
layerId = "35043653-3C0A-484D-8455-0CC3777AD120";
shapes = (
{
closed = 1;
nodes = (
(357,503,l),
(482,700,l),
(700,700,l),
(470,358,l),
(710,0,l),
(487,0,l),
(353,211,l),
(218,0,l),
(0,0,l),
(240,356,l),
(10,700,l),
(233,700,l)
);
}
);
width = 710;
}
);
note = X;
unicode = 88;
},
{
glyphname = Y;
layers = (
{
layerId = m01;
shapes = (
{
closed = 1;
nodes = (
(269,0,l),
(269,280,l),
(-2,705,l),
(98,705,l),
(314,358,l),
(528,705,l),
(623,705,l),
(353,281,l),
(353,0,l)
);
}
);
width = 621;
},
{
layerId = "4F54520B-6C1D-43AE-845C-9A591DE39CE0";
shapes = (
{
closed = 1;
nodes = (
(267,0,l),
(267,277,l),
(-3,704,l),
(117,704,l),
(321,373,l),
(524,704,l),
(639,704,l),
(370,278,l),
(370,0,l)
);
}
);
width = 636;
},
{
layerId = "35043653-3C0A-484D-8455-0CC3777AD120";
shapes = (
{
closed = 1;
nodes = (
(259,0,l),
(259,262,l),
(-7,700,l),
(214,700,l),
(358,445,l),
(503,700,l),
(720,700,l),
(454,265,l),
(454,0,l)
);
}
);
width = 713;
}
);
note = Y;
unicode = 89;
},
{
glyphname = Z;
layers = (
{
layerId = m01;
shapes = (
{
closed = 1;
nodes = (
(596,75,l),
(596,0,l),
(14,0,l),
(14,72,l),
(514,630,l),
(42,630,l),
(42,705,l),
(617,705,l),
(617,632,l),
(124,75,l)
);
}
);
width = 642;
},
{
layerId = "4F54520B-6C1D-43AE-845C-9A591DE39CE0";
shapes = (
{
closed = 1;
nodes = (
(599,90,l),
(599,0,l),
(11,0,l),
(11,84,l),
(486,614,l),
(36,614,l),
(36,704,l),
(617,704,l),
(617,620,l),
(147,90,l)
);
}
);
width = 639;
},
{
layerId = "35043653-3C0A-484D-8455-0CC3777AD120";
shapes = (
{
closed = 1;
nodes = (
(615,164,l),
(615,0,l),
(-4,0,l),
(-4,141,l),
(347,536,l),
(8,536,l),
(8,700,l),
(615,700,l),
(615,559,l),
(264,164,l)
);
}
);
width = 624;
}
);
note = Z;
unicode = 90;
},
{
glyphname = bracketleft;
layers = (
{
layerId = m01;
shapes = (
{
closed = 1;
nodes = (
(160,660,l),
(160,-92,l),
(323,-92,l),
(323,-158,l),
(83,-158,l),
(83,726,l),
(323,726,l),
(323,660,l)
);
}
);
width = 377;
},
{
layerId = "4F54520B-6C1D-43AE-845C-9A591DE39CE0";
shapes = (
{
closed = 1;
nodes = (
(173,645,l),
(173,-77,l),
(338,-77,l),
(338,-153,l),
(80,-153,l),
(80,722,l),
(338,722,l),
(338,645,l)
);
}
);
width = 391;
},
{
layerId = "35043653-3C0A-484D-8455-0CC3777AD120";
shapes = (
{
closed = 1;
nodes = (
(235,571,l),
(235,-1,l),
(411,-1,l),
(411,-130,l),
(65,-130,l),
(65,700,l),
(411,700,l),
(411,571,l)
);
}
);
width = 459;
}
);
note = bracketleft;
unicode = 91;
},
{
glyphname = backslash;
layers = (
{
layerId = m01;
shapes = (
{
closed = 1;
nodes = (
(74,781,l),
(486,-111,l),
(413,-117,l),
(2,773,l)
);
}
);
width = 488;
},
{
layerId = "4F54520B-6C1D-43AE-845C-9A591DE39CE0";
shapes = (
{
closed = 1;
nodes = (
(85,784,l),
(501,-110,l),
(416,-119,l),
(2,774,l)
);
}
);
width = 502;
},
{
layerId = "35043653-3C0A-484D-8455-0CC3777AD120";
shapes = (
{
closed = 1;
nodes = (
(142,798,l),
(573,-103,l),
(431,-128,l),
(-1,776,l)
);
}
);
width = 572;
}
);
note = backslash;
unicode = 92;
},
{
glyphname = bracketright;
layers = (
{
layerId = m01;
shapes = (
{
closed = 1;
nodes = (
(217,-92,l),
(217,659,l),
(54,659,l),
(54,726,l),
(296,726,l),
(296,-159,l),
(54,-159,l),
(54,-92,l)
);
}
);
width = 380;
},
{
layerId = "4F54520B-6C1D-43AE-845C-9A591DE39CE0";
shapes = (
{
closed = 1;
nodes = (
(219,-77,l),
(219,644,l),
(53,644,l),
(53,722,l),
(313,722,l),
(313,-154,l),
(53,-154,l),
(53,-77,l)
);
}
);
width = 393;
},
{
layerId = "35043653-3C0A-484D-8455-0CC3777AD120";
shapes = (
{
closed = 1;
nodes = (
(226,-1,l),
(226,571,l),
(50,571,l),
(50,700,l),
(396,700,l),
(396,-130,l),
(50,-130,l),
(50,-1,l)
);
}
);
width = 460;
}
);
note = bracketright;
unicode = 93;
},
{
glyphname = asciicircum;
layers = (
{
layerId = m01;
shapes = (
{
closed = 1;
nodes = (
(283,706,l),
(464,418,l),
(388,418,l),
(247,642,l),
(106,418,l),
(33,418,l),
(211,706,l)
);
}
);
width = 497;
},
{
layerId = "4F54520B-6C1D-43AE-845C-9A591DE39CE0";
shapes = (
{
closed = 1;
nodes = (
(285,705,l),
(460,431,l),
(374,431,l),
(244,633,l),
(114,431,l),
(31,431,l),
(204,705,l)
);
}
);
width = 491;
},
{
layerId = "35043653-3C0A-484D-8455-0CC3777AD120";
shapes = (
{
closed = 1;
nodes = (
(294,699,l),
(438,493,l),
(305,493,l),
(229,590,l),
(153,493,l),
(22,493,l),
(166,699,l)
);
}
);
width = 459;
}
);
note = asciicircum;
unicode = 94;
},
{
glyphname = underscore;
layers = (
{
layerId = m01;
shapes = (
{
closed = 1;
nodes = (
(561,-82,l),
(561,-147,l),
(0,-147,l),
(0,-82,l)
);
}
);
width = 561;
},
{
layerId = "4F54520B-6C1D-43AE-845C-9A591DE39CE0";
shapes = (
{
closed = 1;
nodes = (
(568,-76,l),
(568,-149,l),
(0,-149,l),
(0,-76,l)
);
}
);
width = 568;
},
{
layerId = "35043653-3C0A-484D-8455-0CC3777AD120";
shapes = (
{
closed = 1;
nodes = (
(604,-44,l),
(604,-160,l),
(0,-160,l),
(0,-44,l)
);
}
);
width = 604;
}
);
note = underscore;
unicode = 95;
},
{
glyphname = grave;
layers = (
{
layerId = m01;
shapes = (
{
closed = 1;
nodes = (
(118,765,l),
(213,616,l),
(150,616,l),
(24,745,l)
);
}
);
width = 237;
},
{
layerId = "4F54520B-6C1D-43AE-845C-9A591DE39CE0";
shapes = (
{
closed = 1;
nodes = (
(125,771,l),
(222,616,l),
(147,616,l),
(17,745,l)
);
}
);
width = 242;
},
{
layerId = "35043653-3C0A-484D-8455-0CC3777AD120";
shapes = (
{
closed = 1;
nodes = (
(161,801,l),
(265,616,l),
(131,616,l),
(-16,744,l)
);
}
);
width = 269;
}
);
note = grave;
unicode = 96;
},
{
glyphname = a;
layers = (
{
layerId = m01;
shapes = (
{
closed = 1;
nodes = (
(398,228,l),
(368,245,o),
(302,266,o),
(258,266,qs),
(202,266,o),
(117,214,o),
(117,161,qs),
(117,110,o),
(195,57,o),
(253,57,qs),
(344,57,o),
(398,122,q)
);
},
{
closed = 1;
nodes = (
(480,0,l),
(396,49,l),
(361,18,o),
(285,-11,o),
(235,-11,qs),
(184,-11,o),
(93,28,o),
(35,110,o),
(35,171,qs),
(35,257,o),
(158,333,o),
(246,333,qs),
(291,333,o),
(367,317,o),
(398,299,q),
(398,318,ls),
(398,372,o),
(321,422,o),
(254,422,qs),
(150,422,o),
(67,372,q),
(67,450,l),
(107,468,o),
(205,492,o),
(257,492,qs),
(317,492,o),
(419,450,o),
(480,367,o),
(480,308,qs)
);
}
);
width = 548;
},
{
layerId = "4F54520B-6C1D-43AE-845C-9A591DE39CE0";
shapes = (
{
closed = 1;
nodes = (
(394,227,l),
(365,243,o),
(305,261,o),
(265,261,q),
(212,261,o),
(133,211,o),
(133,163,q),
(133,115,o),
(205,65,o),
(259,65,q),
(342,65,o),
(394,125,q)
);
},
{
closed = 1;
nodes = (
(493,-2,l),
(392,50,l),
(358,19,o),
(282,-11,o),
(232,-11,q),
(182,-11,o),
(91,32,o),
(34,114,o),
(34,169,q),
(34,255,o),
(156,332,o),
(245,332,q),
(289,332,o),
(364,317,o),
(394,300,q),
(394,318,l),
(394,371,o),
(319,419,o),
(252,419,q),
(150,419,o),
(69,372,q),
(69,460,l),
(113,478,o),
(209,502,o),
(263,502,q),
(328,502,o),
(433,458,o),
(493,371,o),
(493,309,q)
);
}
);
width = 559;
},
{
layerId = "35043653-3C0A-484D-8455-0CC3777AD120";
shapes = (
{
closed = 1;
nodes = (
(373,221,l),
(360,227,o),
(322,235,o),
(302,235,q),
(261,235,o),
(214,198,o),
(214,170,q),
(214,143,o),
(256,107,o),
(286,107,q),
(335,107,o),
(373,139,q)
);
},
{
closed = 1;
nodes = (
(558,-12,l),
(372,56,l),
(343,23,o),
(266,-12,o),
(214,-12,q),
(161,-12,o),
(77,28,o),
(29,104,o),
(29,157,q),
(29,239,o),
(145,327,o),
(241,327,q),
(278,327,o),
(348,315,o),
(373,306,q),
(373,315,l),
(373,362,o),
(308,404,o),
(240,404,q),
(157,404,o),
(76,373,q),
(76,507,l),
(129,528,o),
(228,549,o),
(290,549,q),
(383,549,o),
(502,495,o),
(558,390,o),
(558,311,q)
);
}
);
width = 611;
}
);
note = a;
unicode = 97;
},
{
glyphname = b;
layers = (
{
layerId = m01;
shapes = (
{
closed = 1;
nodes = (
(67,1,l),
(67,732,l),
(149,732,l),
(149,394,l),
(183,441,o),
(277,494,o),
(335,494,qs),
(400,494,o),
(509,430,o),
(572,315,o),
(572,241,qs),
(572,168,o),
(508,53,o),
(399,-10,o),
(333,-10,qs),
(280,-10,o),
(192,31,o),
(158,71,q)
);
},
{
closed = 1;
nodes = (
(271,422,o),
(192,375,o),
(146,292,o),
(146,241,qs),
(146,191,o),
(193,107,o),
(272,59,o),
(318,59,qs),
(367,59,o),
(445,105,o),
(490,188,o),
(490,240,qs),
(490,290,o),
(448,373,o),
(370,422,o),
(318,422,qs)
);
}
);
width = 606;
},
{
layerId = "4F54520B-6C1D-43AE-845C-9A591DE39CE0";
shapes = (
{
closed = 1;
nodes = (
(65,-1,l),
(65,732,l),
(165,732,l),
(165,407,l),
(199,453,o),
(290,504,o),
(347,504,q),
(413,504,o),
(521,440,o),
(584,321.927,o),
(584,245.95,q),
(584,171,o),
(520,54.062,o),
(411,-10,o),
(345.319,-10,q),
(292.575,-10,o),
(205,30,o),
(172,70,q)
);
},
{
closed = 1;
nodes = (
(279.006,417,o),
(205.058,372.892,o),
(162,295,o),
(162,246.02,q),
(162,198,o),
(205,119,o),
(279,74,o),
(322.607,74,q),
(369.058,74,o),
(443,118,o),
(485,196,o),
(485,244.908,q),
(485,291.935,o),
(445,370,o),
(371,417,o),
(323,417,q)
);
}
);
width = 618;
},
{
layerId = "35043653-3C0A-484D-8455-0CC3777AD120";
shapes = (
{
closed = 1;
nodes = (
(52,-12,l),
(52,730,l),
(242,730,l),
(242,469,l),
(275,509,o),
(350,553,o),
(406,553,q),
(471,553,o),
(581,484,o),
(646,356,o),
(646,271,q),
(646,186,o),
(581,57,o),
(472,-12,o),
(407,-12,q),
(357,-12,o),
(273,27,o),
(242,66,q)
);
},
{
closed = 1;
nodes = (
(318,394,o),
(268,362,o),
(239,306,o),
(239,270,q),
(239,235,o),
(268,179,o),
(318,147,o),
(348,147,q),
(379,147,o),
(430,178,o),
(459,235,o),
(459,272,q),
(459,304,o),
(432,360,o),
(381,394,o),
(348,394,q)
);
}
);
width = 675;
}
);
note = b;
unicode = 98;
},
{
glyphname = c;
layers = (
{
layerId = m01;
shapes = (
{
closed = 1;
nodes = (
(420,359,l),
(392,390,o),
(322,423,o),
(283,423,qs),
(236,423,o),
(160,377,o),
(118,296,o),
(118,247,qs),
(118,197,o),
(162,111,o),
(240,60,o),
(286,60,qs),
(365,60,o),
(425,125,q),
(425,35,l),
(392,15,o),
(319,-9,o),
(277,-9,qs),
(209,-9,o),
(98,57,o),
(35,170,o),
(35,240,qs),
(35,309,o),
(98,425,o),
(211,492,o),
(284,492,qs),
(321,492,o),
(394,472,o),
(420,452,q)
);
}
);
width = 470;
},
{
layerId = "4F54520B-6C1D-43AE-845C-9A591DE39CE0";
shapes = (
{
closed = 1;
nodes = (
(422,358,l),
(395,388,o),
(330,418,o),
(292,418,q),
(247,418,o),
(175,375,o),
(134,298,o),
(134,250,q),
(134,203,o),
(177,123,o),
(250,75,o),
(295,75,q),
(370,75,o),
(427,135,q),
(427,30,l),
(395,11,o),
(324,-10,o),
(284,-10,q),
(214,-10,o),
(100,57,o),
(34,174,o),
(34,245,q),
(34,315,o),
(99,433,o),
(215,502,o),
(290,502,q),
(327,502,o),
(397,484,o),
(422,466,q)
);
}
);
width = 471;
},
{
layerId = "35043653-3C0A-484D-8455-0CC3777AD120";
shapes = (
{
closed = 1;
nodes = (
(432,355,l),
(409,373,o),
(363,392,o),
(335,392,q),
(300,392,o),
(246,360,o),
(215,304,o),
(215,270,q),
(215,236,o),
(248,180,o),
(304,147,o),
(338,147,q),
(393,147,o),
(437,183,q),
(437,6,l),
(413,-3,o),
(348,-13,o),
(318,-13,q),
(238,-13,o),
(106,63,o),
(30,193,o),
(30,270,q),
(30,346,o),
(104,475,o),
(237,552,o),
(320,552,q),
(351,552,o),
(410,545,o),
(432,537,q)
);
}
);
width = 473;
}
);
note = c;
unicode = 99;
},
{
glyphname = d;
layers = (
{
layerId = m01;
shapes = (
{
closed = 1;
nodes = (
(446,77,l),
(410,34,o),
(330,-10,o),
(274,-10,qs),
(208,-10,o),
(99,52,o),
(35,167,o),
(35,241,qs),
(35,315,o),
(99,431,o),
(207,494,o),
(271,494,qs),
(331,494,o),
(425,444,o),
(456,398,q),
(456,732,l),
(538,732,l),
(538,1,l)
);
},
{
closed = 1;
nodes = (
(331,60,o),
(412,107,o),
(459,191,o),
(459,242,qs),
(459,293,o),
(410,376,o),
(330,424,o),
(284,424,qs),
(238,424,o),
(162,378,o),
(118,295,o),
(118,242,qs),
(118,193,o),
(158,110,o),
(234,60,o),
(284,60,qs)
);
}
);
width = 606;
},
{
layerId = "4F54520B-6C1D-43AE-845C-9A591DE39CE0";
shapes = (
{
closed = 1;
nodes = (
(444,76,l),
(409,34,o),
(329,-10,o),
(273,-10,q),
(207,-10,o),
(98,53,o),
(34,170.427,o),
(34,245.989,q),
(34,321.551,o),
(98,440,o),
(206.628,504,o),
(271,504,q),
(330,504,o),
(421,455,o),
(452,411,q),
(452,732,l),
(534,732,l),
(552,-1,l)
);
},
{
closed = 1;
nodes = (
(330,73,o),
(411,120,o),
(455,198,o),
(455,246.519,q),
(455,295.038,o),
(410,374,o),
(334,419,o),
(291.012,419,q),
(248.024,419,o),
(177,376,o),
(134,297,o),
(134,246.932,q),
(134,200.643,o),
(171.931,122.234,o),
(244,75,o),
(283,73,q)
);
}
);
width = 618;
},
{
layerId = "35043653-3C0A-484D-8455-0CC3777AD120";
shapes = (
{
closed = 1;
nodes = (
(433,72,l),
(401,33,o),
(324,-12,o),
(269,-12,q),
(204,-12,o),
(94,57,o),
(29,185,o),
(29,270,q),
(29,355,o),
(94,484,o),
(203,553,o),
(268,553,q),
(324,553,o),
(401,511,o),
(433,475,q),
(433,730,l),
(623,730,l),
(623,-12,l)
);
},
{
closed = 1;
nodes = (
(356,147,o),
(407,178,o),
(436,235,o),
(436,272,q),
(436,307,o),
(407,363,o),
(356,394,o),
(326,394,q),
(296,394,o),
(246,363,o),
(216,306,o),
(216,270,q),
(216,239,o),
(244,182,o),
(294,147,o),
(326,147,q)
);
}
);
width = 675;
}
);
note = d;
unicode = 100;
},
{
glyphname = e;
layers = (
{
layerId = m01;
shapes = (
{
closed = 1;
nodes = (
(455,44,l),
(423,19,o),
(336,-11,o),
(285,-11,qs),
(214,-11,o),
(100,53,o),
(35,167,o),
(35,239,qs),
(35,310,o),
(93,427,o),
(198,495,o),
(266,495,qs),
(332,495,o),
(432,434,o),
(491,330,o),
(499,266,q),
(124,175,l),
(142,122,o),
(226,59,o),
(290,59,qs),
(337,59,o),
(419,96,o),
(455,132,q)
);
},
{
closed = 1;
nodes = (
(119,240,l),
(416,316,l),
(403,364,o),
(324,425,o),
(269,425,qs),
(221,425,o),
(151,375,o),
(115,294,o),
(115,249,q)
);
}
);
width = 533;
},
{
layerId = "4F54520B-6C1D-43AE-845C-9A591DE39CE0";
shapes = (
{
closed = 1;
nodes = (
(467,44,l),
(433,18,o),
(341,-12,o),
(290,-12,q),
(217,-12,o),
(100,54,o),
(34,171,o),
(34,244,q),
(34,317,o),
(95,436,o),
(204,504,o),
(274,504,q),
(343,504,o),
(446,439,o),
(506,329,o),
(513,262,q),
(141,171,l),
(159,124,o),
(236,69,o),
(294,69,q),
(342,69,o),
(432,107,o),
(467,142,q)
);
},
{
closed = 1;
nodes = (
(134,245,l),
(412,317,l),
(400,364,o),
(326,422,o),
(274,422,q),
(229,422,o),
(164,374,o),
(131,296,o),
(131,252,q)
);
}
);
width = 546;
},
{
layerId = "35043653-3C0A-484D-8455-0CC3777AD120";
shapes = (
{
closed = 1;
nodes = (
(527,42,l),
(480,11,o),
(364,-17,o),
(312,-17,q),
(230,-17,o),
(101,57,o),
(30,187,o),
(30,269,q),
(30,348,o),
(103,475,o),
(231,548,o),
(312,548,q),
(397,548,o),
(518,463,o),
(580,323,o),
(580,240,q),
(225,148,l),
(242,134,o),
(287,121,o),
(315,121,q),
(369,121,o),
(492,159,o),
(527,190,q)
);
},
{
closed = 1;
nodes = (
(210,272,l),
(394,319,l),
(385,361,o),
(336,407,o),
(301,407,q),
(269,407,o),
(228,368,o),
(210,308,o),
(210,275,q)
);
}
);
width = 609;
}
);
note = e;
unicode = 101;
},
{
glyphname = f;
layers = (
{
layerId = m01;
shapes = (
{
closed = 1;
nodes = (
(326,658,l),
(302,668,o),
(275,668,qs),
(229,668,o),
(189,611,o),
(189,553,qs),
(189,482,l),
(310,482,l),
(310,413,l),
(189,413,l),
(189,0,l),
(110,0,l),
(110,413,l),
(12,413,l),
(110,484,l),
(110,557,ls),
(110,650,o),
(191,736,o),
(265,736,qs),
(294,736,o),
(326,726,q)
);
}
);
width = 322;
},
{
layerId = "4F54520B-6C1D-43AE-845C-9A591DE39CE0";
shapes = (
{
closed = 1;
nodes = (
(339,646,l),
(309,657,o),
(283,657,q),
(240,657,o),
(199,604,o),
(199,552,q),
(199,491,l),
(325,491,l),
(325,409,l),
(204,409,l),
(204,0,l),
(107,0,l),
(107,409,l),
(11,409,l),
(107,493,l),
(107,556,l),
(107,649,o),
(191,736,o),
(268,736,q),
(309,736,o),
(339,725,q)
);
}
);
width = 335;
},
{
layerId = "35043653-3C0A-484D-8455-0CC3777AD120";
shapes = (
{
closed = 1;
nodes = (
(401,588,l),
(365,599,o),
(324,599,q),
(294,599,o),
(246,572,o),
(246,548,q),
(246,535,l),
(400,535,l),
(400,389,l),
(279,389,l),
(279,0,l),
(90,0,l),
(90,389,l),
(7,389,l),
(90,535,l),
(90,550,l),
(90,646,o),
(191,737,o),
(285,737,q),
(349,737,o),
(401,722,q)
);
}
);
width = 399;
}
);
note = f;
unicode = 102;
},
{
glyphname = g;
layers = (
{
layerId = m01;
shapes = (
{
closed = 1;
nodes = (
(337,89,o),
(415,132,o),
(461,208,o),
(461,255,qs),
(461,304,o),
(415,381,o),
(337,424,o),
(289,424,qs),
(216,424,o),
(123,332,o),
(123,258,qs),
(123,211,o),
(165,134,o),
(241,89,o),
(290,89,qs)
);
},
{
closed = 1;
nodes = (
(461,115,l),
(424,68,o),
(333,19,o),
(274,19,qs),
(208,19,o),
(101,79,o),
(39,186,o),
(39,253,qs),
(39,323,o),
(102,433,o),
(210,494,o),
(274,494,qs),
(331,494,o),
(417,451,o),
(450,412,q),
(542,482,l),
(542,56,ls),
(542,-24,o),
(475,-137,o),
(354,-194,o),
(274,-194,qs),
(218,-194,o),
(118,-168,o),
(80,-147,q),
(80,-57,l),
(122,-91,o),
(218,-124,o),
(274,-124,qs),
(369,-124,o),
(461,-39,o),
(461,55,qs)
);
}
);
width = 611;
},
{
layerId = "4F54520B-6C1D-43AE-845C-9A591DE39CE0";
shapes = (
{
closed = 1;
nodes = (
(341.251,107,o),
(414.69,147.109,o),
(458,218,o),
(458,263,q),
(458,308.811,o),
(414.597,380.799,o),
(341,421,o),
(296.174,421,q),
(228,421,o),
(140,334,o),
(140,264.872,q),
(140,220.967,o),
(179.864,149.037,o),
(252,107,o),
(297,107,q)
);
},
{
closed = 1;
nodes = (
(458,118,l),
(420,72,o),
(332,24,o),
(274,24,q),
(207.618,24,o),
(100,85,o),
(38,193.209,o),
(38,260.966,q),
(38,331.757,o),
(102,443,o),
(210,504,o),
(274,504,q),
(331,504,o),
(415,462,o),
(448,423,q),
(557,492,l),
(557,69,l),
(557,-14,o),
(486,-130,o),
(359.821,-189,o),
(276.397,-189,q),
(218,-189,o),
(118,-162,o),
(75,-138.73,q),
(75,-39,l),
(118,-72,o),
(219,-108,o),
(276,-108,q),
(367,-108,o),
(459,-22.202,o),
(458,64,q)
);
}
);
width = 623;
},
{
layerId = "35043653-3C0A-484D-8455-0CC3777AD120";
shapes = (
{
closed = 1;
nodes = (
(364,196,o),
(414,223,o),
(442,272,o),
(442,302,q),
(442,331,o),
(414,378,o),
(364,405,o),
(332,405,q),
(284,405,o),
(222,345,o),
(222,299,q),
(222,269,o),
(251,222,o),
(301,196,o),
(332,196,q)
);
},
{
closed = 1;
nodes = (
(442,130,l),
(408,91,o),
(330,48,o),
(274,48,q),
(208,48,o),
(99,110,o),
(35,225,o),
(35,301,q),
(35,377,o),
(99,491,o),
(209,553,o),
(275,553,q),
(328,553,o),
(404,514,o),
(439,477,q),
(629,541,l),
(629,131,l),
(629,35,o),
(542,-97,o),
(388,-162,o),
(288,-162,q),
(220,-162,o),
(114,-132,o),
(50,-100,q),
(50,50,l),
(99,20,o),
(226,-25,o),
(286,-25,q),
(357,-25,o),
(442,41,o),
(442,109,q)
);
}
);
width = 680;
}
);
note = g;
unicode = 103;
},
{
glyphname = h;
layers = (
{
layerId = m01;
shapes = (
{
closed = 1;
nodes = (
(481,0,l),
(399,0,l),
(399,280,ls),
(399,346,o),
(345,412,o),
(288,412,qs),
(230,412,o),
(149,343,o),
(149,280,qs),
(149,0,l),
(67,0,l),
(67,732,l),
(141,732,l),
(141,416,l),
(169,450,o),
(257,493,o),
(309,493,qs),
(396,493,o),
(481,394,o),
(481,303,qs)
);
}
);
width = 542;
},
{
layerId = "4F54520B-6C1D-43AE-845C-9A591DE39CE0";
shapes = (
{
closed = 1;
nodes = (
(499,0,l),
(399,0,l),
(399,282,l),
(399,345,o),
(346,407,o),
(294,407,q),
(240,407,o),
(164,342,o),
(164,282,q),
(164,0,l),
(64,0,l),
(64,732,l),
(158,732,l),
(158,425,l),
(186,460,o),
(272,503,o),
(325,503,q),
(411,503,o),
(499,402,o),
(499,312,q)
);
}
);
width = 558;
},
{
layerId = "35043653-3C0A-484D-8455-0CC3777AD120";
shapes = (
{
closed = 1;
nodes = (
(587,0,l),
(397,0,l),
(397,293,l),
(397,337,o),
(355,384,o),
(321,384,q),
(287,384,o),
(241,336,o),
(241,293,q),
(241,0,l),
(51,0,l),
(51,730,l),
(241,730,l),
(241,467,l),
(271,506,o),
(350,553,o),
(403,553,q),
(488,553,o),
(587,442,o),
(587,354,q)
);
}
);
width = 635;
}
);
note = h;
unicode = 104;
},
{
glyphname = i;
layers = (
{
layerId = m01;
shapes = (
{
closed = 1;
nodes = (
(74,0,l),
(74,482,l),
(155,482,l),
(155,0,l)
);
},
{
closed = 1;
nodes = (
(139,698,o),
(174,664,o),
(174,637,qs),
(174,613,o),
(139,578,o),
(113,578,qs),
(89,578,o),
(53,614,o),
(53,637,qs),
(53,663,o),
(88,698,o),
(113,698,qs)
);
}
);
width = 229;
},
{
layerId = "4F54520B-6C1D-43AE-845C-9A591DE39CE0";
shapes = (
{
closed = 1;
nodes = (
(70,0,l),
(70,492,l),
(164,492,l),
(169,0,l)
);
},
{
closed = 1;
nodes = (
(148,712,o),
(187,674.656,o),
(187,645,q),
(187,617,o),
(148,580,o),
(118,580,q),
(91.2,580,o),
(51,618,o),
(51,645,q),
(51,673.557,o),
(89,712,o),
(122,712,q)
);
}
);
width = 239;
},
{
layerId = "35043653-3C0A-484D-8455-0CC3777AD120";
shapes = (
{
closed = 1;
nodes = (
(51,0,l),
(51,541,l),
(241,541,l),
(241,0,l)
);
},
{
closed = 1;
nodes = (
(192,780,o),
(253,730,o),
(253,684,q),
(253,638,o),
(192,587,o),
(145,587,q),
(98,587,o),
(38,638,o),
(38,684,q),
(38,730,o),
(98,780,o),
(145,780,q)
);
}
);
width = 291;
}
);
note = i;
unicode = 105;
},
{
glyphname = j;
layers = (
{
layerId = m01;
shapes = (
{
closed = 1;
nodes = (
(53,-119,l),
(70,-125,o),
(86,-125,qs),
(115,-125,o),
(136,-91,o),
(136,-62,qs),
(136,482,l),
(217,482,l),
(217,-37,ls),
(217,-113,o),
(172,-194,o),
(103,-194,qs),
(79,-194,o),
(53,-187,q)
);
},
{
closed = 1;
nodes = (
(196,698,o),
(232,663,o),
(232,637,qs),
(232,614,o),
(195,578,o),
(172,578,qs),
(148,578,o),
(112,614,o),
(112,637,qs),
(112,663,o),
(146,698,o),
(172,698,qs)
);
}
);
width = 287;
},
{
layerId = "4F54520B-6C1D-43AE-845C-9A591DE39CE0";
shapes = (
{
closed = 1;
nodes = (
(51,-103,l),
(67.795,-109,o),
(83.602,-109,q),
(112.253,-109,o),
(133,-76,o),
(133,-46,q),
(133,492,l),
(232,492,l),
(232,-27,l),
(232,-106,o),
(178,-189,o),
(105,-189,q),
(81,-189,o),
(51,-182,q)
);
},
{
closed = 1;
nodes = (
(207,712,o),
(247,675,o),
(247,644.755,q),
(247,618,o),
(206,580,o),
(178.596,580,q),
(150,580,o),
(111,617,o),
(111,645,q),
(111,675,o),
(149,712,o),
(181.154,712,q)
);
}
);
width = 299;
},
{
layerId = "35043653-3C0A-484D-8455-0CC3777AD120";
shapes = (
{
closed = 1;
nodes = (
(38,-23,l),
(62,-31,o),
(76,-31,q),
(96,-31,o),
(119,-1,o),
(119,32,q),
(119,541,l),
(309,541,l),
(309,24,l),
(309,-75,o),
(212,-163,o),
(116,-163,q),
(78,-163,o),
(38,-156,q)
);
},
{
closed = 1;
nodes = (
(260,780,o),
(321,730,o),
(321,684,q),
(321,638,o),
(260,587,o),
(213,587,q),
(166,587,o),
(106,638,o),
(106,684,q),
(106,730,o),
(166,780,o),
(213,780,q)
);
}
);
width = 359;
}
);
note = j;
unicode = 106;
},
{
glyphname = k;
layers = (
{
layerId = m01;
shapes = (
{
closed = 1;
nodes = (
(333,482,l),
(438,482,l),
(219,254,l),
(447,0,l),
(346,0,l),
(149,216,l),
(149,0,l),
(67,0,l),
(67,732,l),
(149,732,l),
(149,281,l)
);
}
);
width = 447;
},
{
layerId = "4F54520B-6C1D-43AE-845C-9A591DE39CE0";
shapes = (
{
closed = 1;
nodes = (
(342,492,l),
(466,492,l),
(252,266,l),
(474,0,l),
(355,0,l),
(164,227,l),
(164,0,l),
(64,0,l),
(64,732,l),
(164,732,l),
(164,294,l)
);
}
);
width = 474;
},
{
layerId = "35043653-3C0A-484D-8455-0CC3777AD120";
shapes = (
{
closed = 1;
nodes = (
(388,541,l),
(603,541,l),
(415,324,l),
(608,0,l),
(399,0,l),
(241,283,l),
(241,0,l),
(51,0,l),
(51,730,l),
(241,730,l),
(241,360,l)
);
}
);
width = 608;
}
);
note = k;
unicode = 107;
},
{
glyphname = l;
layers = (
{
layerId = m01;
shapes = (
{
closed = 1;
nodes = (
(67,0,l),
(67,732,l),
(148,732,l),
(148,0,l)
);
}
);
width = 217;
},
{
layerId = "4F54520B-6C1D-43AE-845C-9A591DE39CE0";
shapes = (
{
closed = 1;
nodes = (
(64,0,l),
(64,732,l),
(164,732,l),
(164,0,l)
);
}
);
width = 230;
},
{
layerId = "35043653-3C0A-484D-8455-0CC3777AD120";
shapes = (
{
closed = 1;
nodes = (
(51,0,l),
(51,730,l),
(241,730,l),
(241,0,l)
);
}
);
width = 293;
}
);
note = l;
unicode = 108;
},
{
glyphname = m;
layers = (
{
layerId = m01;
shapes = (
{
closed = 1;
nodes = (
(694,279,ls),
(694,352,o),
(639,421,o),
(586,421,qs),
(528,421,o),
(462,339,o),
(462,279,qs),
(462,0,l),
(380,0,l),
(380,279,ls),
(380,344,o),
(329,421,o),
(272,421,qs),
(214,421,o),
(149,339,o),
(149,279,qs),
(149,0,l),
(67,0,l),
(67,481,l),
(146,424,l),
(171,458,o),
(252,493,o),
(297,493,qs),
(348,493,o),
(425,450,o),
(444,404,q),
(467,446,o),
(555,493,o),
(609,493,qs),
(665,493,o),
(740,444,o),
(776,359,o),
(776,304,qs),
(776,0,l),
(694,0,l)
);
}
);
width = 836;
},
{
layerId = "4F54520B-6C1D-43AE-845C-9A591DE39CE0";
shapes = (
{
closed = 1;
nodes = (
(701,282,l),
(701,350,o),
(648,415,o),
(598,415,q),
(543,415,o),
(482,338,o),
(482,282,q),
(482,0,l),
(382,0,l),
(382,282,l),
(382,343,o),
(333,415,o),
(280,415,q),
(226,415,o),
(164,339,o),
(164,282,q),
(164,0,l),
(64,0,l),
(64,491,l),
(162,431,l),
(188,467,o),
(268,503,o),
(315,503,q),
(367,503,o),
(444,460,o),
(463,414,q),
(489,457,o),
(576,503,o),
(631,503,q),
(687,503,o),
(763,454,o),
(801,368,o),
(801,313,q),
(801,0,l),
(701,0,l)
);
}
);
width = 859;
},
{
layerId = "35043653-3C0A-484D-8455-0CC3777AD120";
shapes = (
{
closed = 1;
nodes = (
(734,294,l),
(734,338,o),
(693,384,o),
(660,384,q),
(623,384,o),
(582,331,o),
(582,294,q),
(582,0,l),
(392,0,l),
(392,294,l),
(392,337,o),
(351,384,o),
(318,384,q),
(284,384,o),
(241,337,o),
(241,294,q),
(241,0,l),
(51,0,l),
(51,541,l),
(241,467,l),
(275,509,o),
(355,553,o),
(404,553,q),
(454,553,o),
(537,508,o),
(558,465,q),
(595,509,o),
(682,553,o),
(740,553,q),
(796,553,o),
(879,500,o),
(924,409,o),
(924,355,q),
(924,0,l),
(734,0,l)
);
}
);
width = 971;
}
);
note = m;
unicode = 109;
},
{
glyphname = n;
layers = (
{
layerId = m01;
shapes = (
{
closed = 1;
nodes = (
(481,0,l),
(399,0,l),
(399,280,ls),
(399,354,o),
(331,421,o),
(281,421,qs),
(230,421,o),
(149,354,o),
(149,280,qs),
(149,0,l),
(67,0,l),
(67,482,l),
(151,421,l),
(211,493,o),
(307,493,qs),
(363,493,o),
(441,446,o),
(481,361,o),
(481,303,qs)
);
}
);
width = 542;
},
{
layerId = "4F54520B-6C1D-43AE-845C-9A591DE39CE0";
shapes = (
{
closed = 1;
nodes = (
(499,0,l),
(399,0,l),
(399,282,l),
(399,351,o),
(334,415,o),
(288,415,q),
(240.091,415,o),
(164,351,o),
(164,282,q),
(164,0,l),
(64,0,l),
(64,492,l),
(166,428,l),
(226.566,503,o),
(323.472,503,q),
(380,503,o),
(458.661,455.753,o),
(499,370.305,o),
(499,312,q)
);
}
);
width = 558;
},
{
layerId = "35043653-3C0A-484D-8455-0CC3777AD120";
shapes = (
{
closed = 1;
nodes = (
(587,0,l),
(397,0,l),
(397,293,l),
(397,336,o),
(354,384,o),
(321,384,q),
(287,384,o),
(241,336,o),
(241,293,q),
(241,0,l),
(51,0,l),
(51,541,l),
(241,465,l),
(309,553,o),
(403,553,q),
(459,553,o),
(542,501,o),
(587,411,o),
(587,354,q)
);
}
);
width = 635;
}
);
note = n;
unicode = 110;
},
{
glyphname = o;
layers = (
{
layerId = m01;
shapes = (
{
closed = 1;
nodes = (
(218,-10,o),
(101,56,o),
(35,170,o),
(35,240,qs),
(35,310,o),
(101,427,o),
(219,494,o),
(292,494,qs),
(365,494,o),
(484,427,o),
(551,312,o),
(551,242,qs),
(551,171,o),
(482,56,o),
(363,-10,o),
(291,-10,qs)
);
},
{
closed = 1;
nodes = (
(240,425,o),
(161,376,o),
(118,292,o),
(118,242,qs),
(118,191,o),
(164,107,o),
(243,59,o),
(292,59,qs),
(342,59,o),
(422,108,o),
(468,192,o),
(468,241,qs),
(468,291,o),
(423,375,o),
(342,425,o),
(291,425,qs)
);
}
);
width = 586;
},
{
layerId = "4F54520B-6C1D-43AE-845C-9A591DE39CE0";
shapes = (
{
closed = 1;
nodes = (
(222.004,-11,o),
(101.805,56.833,o),
(34,174,o),
(34,245.089,q),
(34,316.179,o),
(102,435,o),
(223,504,o),
(297.979,504,q),
(372.958,504,o),
(495.184,435.671,o),
(564,318.389,o),
(564,247,q),
(564,175,o),
(492.798,56.823,o),
(370,-11,o),
(297,-11,q)
);
},
{
closed = 1;
nodes = (
(251.262,423,o),
(175,374,o),
(134,294.541,o),
(134,247.243,q),
(134,199,o),
(177,120,o),
(252,74,o),
(298.263,74,q),
(345.469,74,o),
(421,121,o),
(464,199.947,o),
(464,246,q),
(464,293.388,o),
(421,373,o),
(345,420,o),
(300.495,423,q)
);
}
);
width = 598;
},
{
layerId = "35043653-3C0A-484D-8455-0CC3777AD120";
shapes = (
{
closed = 1;
nodes = (
(243.023,-13,o),
(106.828,62.533,o),
(30,193,o),
(30,270,q),
(30,347.487,o),
(108,477,o),
(245.22,553,o),
(330.11,553,q),
(415,553,o),
(551.274,477.901,o),
(628,349,o),
(628,272,q),
(628,192,o),
(547,61,o),
(409,-13,o),
(328,-13,q)
);
},
{
closed = 1;
nodes = (
(294,392,o),
(242.844,359.962,o),
(215,305.038,o),
(215,272.346,q),
(215,239,o),
(245,182,o),
(297.461,148,o),
(330,148,q),
(362.692,148,o),
(415,181,o),
(443,237.211,o),
(443,270,q),
(443,302,o),
(413,358,o),
(361,392,o),
(341.683,392,q)
);
}
);
width = 657;
}
);
note = o;
unicode = 111;
},
{
glyphname = p;
layers = (
{
layerId = m01;
shapes = (
{
closed = 1;
nodes = (
(150,-188,l),
(68,-188,l),
(68,482,l),
(160,406,l),
(197,449,o),
(279,494,o),
(335,494,qs),
(400,494,o),
(509,431,o),
(573,316,o),
(573,242,qs),
(573,168,o),
(507,53,o),
(398,-10,o),
(335,-10,qs),
(276,-10,o),
(184,38,o),
(150,84,q)
);
},
{
closed = 1;
nodes = (
(273,422,o),
(193,375,o),
(146,292,o),
(146,241,qs),
(146,191,o),
(195,107,o),
(276,59,o),
(322,59,qs),
(369,59,o),
(446,105,o),
(491,188,o),
(491,242,qs),
(491,292,o),
(448,374,o),
(370,422,o),
(319,422,qs)
);
}
);
width = 607;
},
{
layerId = "4F54520B-6C1D-43AE-845C-9A591DE39CE0";
shapes = (
{
closed = 1;
nodes = (
(165,-183,l),
(65,-183,l),
(65,492,l),
(174,417,l),
(210,459,o),
(291,504,o),
(347,504,q),
(412,504,o),
(521,440,o),
(585,322.566,o),
(585,247,q),
(585,171.434,o),
(519,54,o),
(410,-10,o),
(347,-10,q),
(288.781,-10,o),
(198,37,o),
(165,81,q)
);
},
{
closed = 1;
nodes = (
(280,417,o),
(205.669,372.892,o),
(162,295,o),
(162,246.02,q),
(162,198,o),
(207,119,o),
(282.879,74,o),
(325.971,74,q),
(370,74,o),
(444,117,o),
(486,196,o),
(486,247.097,q),
(486,294.409,o),
(446,372,o),
(372.45,420,o),
(326,417,q)
);
}
);
width = 618;
},
{
layerId = "35043653-3C0A-484D-8455-0CC3777AD120";
shapes = (
{
closed = 1;
nodes = (
(242,-160,l),
(52,-160,l),
(52,541,l),
(242,469,l),
(275,509,o),
(350,553,o),
(406,553,q),
(471,553,o),
(581,484,o),
(646,356,o),
(646,271,q),
(646,186,o),
(581,57,o),
(472,-12,o),
(407,-12,q),
(350,-12,o),
(273,30,o),
(242,66,q)
);
},
{
closed = 1;
nodes = (
(318,394,o),
(268,362,o),
(239,306,o),
(239,270,q),
(239,235,o),
(268,179,o),
(318,147,o),
(348,147,q),
(379,147,o),
(430,178,o),
(459,235,o),
(459,272,q),
(459,304,o),
(432,360,o),
(381,394,o),
(348,394,q)
);
}
);
width = 675;
}
);
note = p;
unicode = 112;
},
{
glyphname = q;
layers = (
{
layerId = m01;
shapes = (
{
closed = 1;
nodes = (
(456,87,l),
(421,40,o),
(331,-11,o),
(274,-11,qs),
(208,-11,o),
(99,54,o),
(35,169,o),
(35,241,qs),
(35,316,o),
(99,431,o),
(208,494,o),
(274,494,qs),
(330,494,o),
(409,451,o),
(446,410,q),
(538,482,l),
(538,-188,l),
(456,-188,l)
);
},
{
closed = 1;
nodes = (
(333,59,o),
(413,107,o),
(461,191,o),
(461,242,qs),
(461,293,o),
(414,377,o),
(334,424,o),
(288,424,qs),
(239,424,o),
(162,378,o),
(118,296,o),
(118,243,qs),
(118,194,o),
(160,110,o),
(237,59,o),
(287,59,qs)
);
}
);
width = 606;
},
{
layerId = "4F54520B-6C1D-43AE-845C-9A591DE39CE0";
shapes = (
{
closed = 1;
nodes = (
(452,85,l),
(417.577,38.959,o),
(329.06,-11,o),
(273,-11,q),
(207,-11,o),
(98,54,o),
(34,172,o),
(34,245.649,q),
(34,322.366,o),
(98,440,o),
(207,504,o),
(273,504,q),
(329,504,o),
(408,461,o),
(444,421,q),
(552,492,l),
(552,-183,l),
(452,-173,l)
);
},
{
closed = 1;
nodes = (
(333,69.861,o),
(413,119,o),
(457,199,o),
(457,246.984,q),
(457,294.968,o),
(413,374,o),
(338,419,o),
(294.407,419,q),
(247.971,419,o),
(175,376,o),
(134,298,o),
(134,247.907,q),
(134,201.595,o),
(173.882,122.203,o),
(247,74,o),
(287,69.861,q)
);
}
);
width = 618;
},
{
layerId = "35043653-3C0A-484D-8455-0CC3777AD120";
shapes = (
{
closed = 1;
nodes = (
(433,72,l),
(401,33,o),
(324,-12,o),
(269,-12,q),
(205,-12,o),
(95,58,o),
(29,186,o),
(29,270,q),
(29,355,o),
(94,484,o),
(203,553,o),
(268,553,q),
(324,553,o),
(401,511,o),
(433,475,q),
(623,541,l),
(623,-160,l),
(433,-160,l)
);
},
{
closed = 1;
nodes = (
(356,147,o),
(407,180,o),
(436,237,o),
(436,272,q),
(436,307,o),
(407,363,o),
(356,394,o),
(326,394,q),
(297,394,o),
(246,363,o),
(216,307,o),
(216,272,q),
(216,241,o),
(244,183,o),
(294,147,o),
(326,147,q)
);
}
);
width = 675;
}
);
note = q;
unicode = 113;
},
{
glyphname = r;
layers = (
{
layerId = m01;
shapes = (
{
closed = 1;
nodes = (
(341,410,l),
(324,419,o),
(297,419,qs),
(262,419,o),
(194,388,o),
(149,321,o),
(149,271,qs),
(149,0,l),
(67,0,l),
(67,482,l),
(151,428,l),
(178,458,o),
(259,491,o),
(299,491,qs),
(319,491,o),
(341,486,q)
);
}
);
width = 343;
},
{
layerId = "4F54520B-6C1D-43AE-845C-9A591DE39CE0";
shapes = (
{
closed = 1;
nodes = (
(353,400,l),
(340,408,o),
(314,408,q),
(276,408,o),
(208,375,o),
(164,306,o),
(164,254,q),
(164,0,l),
(64,0,l),
(64,492,l),
(166,429,l),
(192,464,o),
(272,501,o),
(316,501,q),
(338,501,o),
(353,497,q)
);
}
);
width = 355;
},
{
layerId = "35043653-3C0A-484D-8455-0CC3777AD120";
shapes = (
{
closed = 1;
nodes = (
(412,350,l),
(404,350,o),
(396,350,q),
(346,350,o),
(277,310,o),
(241,229,o),
(241,168,q),
(241,0,l),
(51,0,l),
(51,541,l),
(241,432,l),
(266,490,o),
(342,550,o),
(403,550,q),
(408,550,o),
(412,550,q)
);
}
);
width = 417;
}
);
note = r;
unicode = 114;
},
{
glyphname = s;
layers = (
{
layerId = m01;
shapes = (
{
closed = 1;
nodes = (
(270,157,o),
(241,195,o),
(199,220,o),
(161,237,qs),
(119,257,o),
(68,288,o),
(32,339,o),
(32,376,qs),
(32,430,o),
(112,493,o),
(182,493,qs),
(218,493,o),
(288,474,o),
(314,453,q),
(314,363,l),
(280,393,o),
(218,425,o),
(184,425,qs),
(150,425,o),
(111,395,o),
(111,373,qs),
(111,348,o),
(156,314,o),
(205,291,qs),
(251,269,o),
(308,233,o),
(349,174,o),
(349,133,qs),
(349,94,o),
(308,29,o),
(233,-10,o),
(183,-10,qs),
(132,-10,o),
(56,20,o),
(19,46,q),
(19,134,l),
(55,100,o),
(137,58,o),
(181,58,qs),
(219,58,o),
(270,94,o),
(270,131,qs)
);
}
);
width = 380;
},
{
layerId = "4F54520B-6C1D-43AE-845C-9A591DE39CE0";
shapes = (
{
closed = 1;
nodes = (
(275,157,o),
(247,190,o),
(207,213,o),
(170,230,q),
(125,249,o),
(69,282,o),
(30,336,o),
(30,376,q),
(30,434,o),
(116,503,o),
(191,503,q),
(231,503,o),
(302,483,o),
(332,463,q),
(332,363,l),
(293,392,o),
(227,424,o),
(192,424,q),
(160,424,o),
(124,396,o),
(124,376,q),
(124,352,o),
(170,320,o),
(217,299,q),
(265,278,o),
(326,241,o),
(369,181,o),
(369,138,q),
(369,96,o),
(326,29,o),
(247,-10,o),
(194,-10,q),
(143,-10,o),
(63,19,o),
(21,45,q),
(21,144,l),
(58,111,o),
(147,69,o),
(190,69,q),
(226,69,o),
(275,101,o),
(275,135,q)
);
}
);
width = 400;
},
{
layerId = "35043653-3C0A-484D-8455-0CC3777AD120";
shapes = (
{
closed = 1;
nodes = (
(297,162,o),
(276,178,o),
(237,190,o),
(215,196,q),
(155,213,o),
(77,246,o),
(18,316,o),
(18,373,q),
(18,457,o),
(140,552,o),
(236,552,q),
(289,552,o),
(368,535,o),
(423,513,q),
(423,360,l),
(382,383,o),
(268,419,o),
(234,419,q),
(213,419,o),
(190,404,o),
(190,391,q),
(190,373,o),
(233,351,o),
(280,337,q),
(336,321,o),
(413,286,o),
(469,218,o),
(469,164,q),
(469,109,o),
(414,30,o),
(314,-12,o),
(248,-12,q),
(194,-12,o),
(95,13,o),
(33,38,q),
(33,193,l),
(80,162,o),
(194,121,o),
(236,121,q),
(257,121,o),
(297,136,o),
(297,152,q)
);
}
);
width = 500;
}
);
note = s;
unicode = 115;
},
{
glyphname = t;
layers = (
{
layerId = m01;
shapes = (
{
closed = 1;
nodes = (
(113,412,l),
(15,412,l),
(193,649,l),
(193,482,l),
(321,482,l),
(321,412,l),
(193,412,l),
(193,112,ls),
(193,89,o),
(215,59,o),
(237,59,qs),
(257,59,o),
(276,68,q),
(276,-1,l),
(255,-11,o),
(227,-11,qs),
(171,-11,o),
(113,64,o),
(113,120,qs)
);
}
);
width = 335;
},
{
layerId = "4F54520B-6C1D-43AE-845C-9A591DE39CE0";
shapes = (
{
closed = 1;
nodes = (
(113,408,l),
(14,408,l),
(212,659,l),
(212,492,l),
(339,492,l),
(339,408,l),
(212,408,l),
(212,128,l),
(212,104,o),
(234,74,o),
(257,74,q),
(279,74,o),
(301,85,q),
(301,3,l),
(277,-11,o),
(239,-11,q),
(179,-11,o),
(113,68,o),
(113,128,q)
);
}
);
width = 353;
},
{
layerId = "35043653-3C0A-484D-8455-0CC3777AD120";
shapes = (
{
closed = 1;
nodes = (
(114,388,l),
(10,388,l),
(304,708,l),
(304,541,l),
(430,541,l),
(430,388,l),
(304,388,l),
(304,205,l),
(304,176,o),
(329,151,o),
(356,151,q),
(387,151,o),
(428,169,q),
(428,20,l),
(371,-11,o),
(296,-11,q),
(210,-11,o),
(114,75,o),
(114,168,q)
);
}
);
width = 441;
}
);
note = t;
unicode = 116;
},
{
glyphname = u;
layers = (
{
layerId = m01;
shapes = (
{
closed = 1;
nodes = (
(61,483,l),
(143,483,l),
(143,203,ls),
(143,129,o),
(211,62,o),
(261,62,qs),
(313,62,o),
(393,128,o),
(393,203,qs),
(393,483,l),
(475,483,l),
(475,0,l),
(391,62,l),
(362,28,o),
(286,-10,o),
(235,-10,qs),
(148,-10,o),
(61,91,o),
(61,180,qs)
);
}
);
width = 535;
},
{
layerId = "4F54520B-6C1D-43AE-845C-9A591DE39CE0";
shapes = (
{
closed = 1;
nodes = (
(59,493,l),
(159,493,l),
(159,211,l),
(159,142,o),
(223,78,o),
(270.059,78,q),
(319,78,o),
(393,142,o),
(393,211,q),
(393,493,l),
(493,493,l),
(493,-2,l),
(392,62,l),
(362.724,28,o),
(286,-10,o),
(235,-10,q),
(148,-10,o),
(59,91.532,o),
(59,181,q)
);
}
);
width = 551;
},
{
layerId = "35043653-3C0A-484D-8455-0CC3777AD120";
shapes = (
{
closed = 1;
nodes = (
(48,541,l),
(238,541,l),
(238,248,l),
(238,205,o),
(280,157,o),
(315,157,q),
(350,157,o),
(394,205,o),
(394,248,q),
(394,541,l),
(584,541,l),
(584,-12,l),
(394,62,l),
(369,29,o),
(287,-12,o),
(232,-12,q),
(142,-12,o),
(48,96,o),
(48,187,q)
);
}
);
width = 631;
}
);
note = u;
unicode = 117;
},
{
glyphname = v;
layers = (
{
layerId = m01;
shapes = (
{
closed = 1;
nodes = (
(198,0,l),
(-4,481,l),
(86,481,l),
(240,91,l),
(395,481,l),
(481,481,l),
(279,0,l)
);
}
);
width = 477;
},
{
layerId = "4F54520B-6C1D-43AE-845C-9A591DE39CE0";
shapes = (
{
closed = 1;
nodes = (
(200,-1,l),
(-4,491,l),
(104,491,l),
(250,113,l),
(396,491,l),
(501,491,l),
(296,-1,l)
);
}
);
width = 497;
},
{
layerId = "35043653-3C0A-484D-8455-0CC3777AD120";
shapes = (
{
closed = 1;
nodes = (
(210,-4,l),
(-6,541,l),
(194,541,l),
(298,225,l),
(402,541,l),
(599,541,l),
(383,-4,l)
);
}
);
width = 595;
}
);
note = v;
unicode = 118;
},
{
glyphname = w;
layers = (
{
layerId = m01;
shapes = (
{
closed = 1;
nodes = (
(209,99,l),
(327,483,l),
(410,483,l),
(527,100,l),
(647,482,l),
(733,482,l),
(569,0,l),
(488,0,l),
(365,395,l),
(244,0,l),
(166,0,l),
(1,482,l),
(86,482,l)
);
}
);
width = 734;
},
{
layerId = "4F54520B-6C1D-43AE-845C-9A591DE39CE0";
shapes = (
{
closed = 1;
nodes = (
(215,127,l),
(327,493,l),
(423,493,l),
(534,128,l),
(646,492,l),
(749,492,l),
(584,-1,l),
(489,-1,l),
(372,375,l),
(256,-1,l),
(164,-1,l),
(-1,492,l),
(101,492,l)
);
}
);
width = 748;
},
{
layerId = "35043653-3C0A-484D-8455-0CC3777AD120";
shapes = (
{
closed = 1;
nodes = (
(246,269,l),
(329,543,l),
(486,543,l),
(570,267,l),
(643,541,l),
(826,541,l),
(659,-4,l),
(495,-4,l),
(407,277,l),
(317,-4,l),
(154,-4,l),
(-11,541,l),
(175,541,l)
);
}
);
width = 815;
}
);
note = w;
unicode = 119;
},
{
glyphname = x;
layers = (
{
layerId = m01;
shapes = (
{
closed = 1;
nodes = (
(20,481,l),
(114,481,l),
(247,307,l),
(381,481,l),
(471,481,l),
(293,251,l),
(485,0,l),
(392,0,l),
(245,192,l),
(99,0,l),
(7,0,l),
(201,249,l)
);
}
);
width = 492;
},
{
layerId = "4F54520B-6C1D-43AE-845C-9A591DE39CE0";
shapes = (
{
closed = 1;
nodes = (
(17,491,l),
(130,491,l),
(254,324,l),
(379,491,l),
(488,491,l),
(310,255,l),
(500,0,l),
(388,0,l),
(252,183,l),
(116,0,l),
(6,0,l),
(198,253,l)
);
}
);
width = 506;
},
{
layerId = "35043653-3C0A-484D-8455-0CC3777AD120";
shapes = (
{
closed = 1;
nodes = (
(4,541,l),
(209,541,l),
(289,408,l),
(369,541,l),
(570,541,l),
(392,274,l),
(574,0,l),
(370,0,l),
(286,139,l),
(201,0,l),
(1,0,l),
(183,273,l)
);
}
);
width = 576;
}
);
note = x;
unicode = 120;
},
{
glyphname = y;
layers = (
{
layerId = m01;
shapes = (
{
closed = 1;
nodes = (
(85,481,l),
(250,98,l),
(399,481,l),
(485,481,l),
(217,-188,l),
(139,-188,l),
(214,0,l),
(-4,481,l)
);
}
);
width = 481;
},
{
layerId = "4F54520B-6C1D-43AE-845C-9A591DE39CE0";
shapes = (
{
closed = 1;
nodes = (
(103,491,l),
(259,114,l),
(400,491,l),
(504,491,l),
(237,-183,l),
(145,-183,l),
(215,-1,l),
(-4,491,l)
);
}
);
width = 500;
},
{
layerId = "35043653-3C0A-484D-8455-0CC3777AD120";
shapes = (
{
closed = 1;
nodes = (
(193,541,l),
(301,195,l),
(403,541,l),
(598,541,l),
(334,-160,l),
(173,-160,l),
(222,-6,l),
(-6,541,l)
);
}
);
width = 593;
}
);
note = y;
unicode = 121;
},
{
glyphname = z;
layers = (
{
layerId = m01;
shapes = (
{
closed = 1;
nodes = (
(473,70,l),
(473,0,l),
(12,0,l),
(12,69,l),
(381,414,l),
(33,414,l),
(33,482,l),
(479,482,l),
(479,414,l),
(110,70,l)
);
}
);
width = 504;
},
{
layerId = "4F54520B-6C1D-43AE-845C-9A591DE39CE0";
shapes = (
{
closed = 1;
nodes = (
(480,84,l),
(480,0,l),
(13,0,l),
(13,78,l),
(362,410,l),
(32,410,l),
(32,492,l),
(485,492,l),
(485,414,l),
(136,84,l)
);
}
);
width = 509;
},
{
layerId = "35043653-3C0A-484D-8455-0CC3777AD120";
shapes = (
{
closed = 1;
nodes = (
(517,151,l),
(517,0,l),
(15,0,l),
(15,125,l),
(265,390,l),
(24,390,l),
(24,541,l),
(517,541,l),
(517,416,l),
(266,151,l)
);
}
);
width = 536;
}
);
note = z;
unicode = 122;
},
{
glyphname = braceleft;
layers = (
{
layerId = m01;
shapes = (
{
closed = 1;
nodes = (
(42,325,l),
(73,325,o),
(117,340,o),
(144,373,o),
(148,399,qs),
(151,414,o),
(151,431,qs),
(151,472,o),
(150,491,qs),
(148,582,o),
(166,672,o),
(253,728,o),
(351,733,q),
(363,675,l),
(316,665,o),
(264,644,o),
(233,598,o),
(233,555,qs),
(234,530,o),
(234,504,qs),
(236,445,o),
(228,374,o),
(186,311,o),
(139,289,q),
(186,267,o),
(228,204,o),
(236,133,o),
(234,74,qs),
(234,49,o),
(233,23,qs),
(233,12,o),
(235,-6,qs),
(240,-36,o),
(273,-71,o),
(322,-89,o),
(363,-97,q),
(351,-155,l),
(269,-151,o),
(184,-114,o),
(149,-29,o),
(149,51,qs),
(150,73,o),
(150,94,qs),
(153,148,o),
(144,210,o),
(96,252,o),
(42,252,q)
);
}
);
width = 405;
},
{
layerId = "4F54520B-6C1D-43AE-845C-9A591DE39CE0";
shapes = (
{
closed = 1;
nodes = (
(41,329,l),
(78,329,o),
(124,347,o),
(148,383,o),
(152,413,q),
(154,435,o),
(154,448,q),
(154,451,o),
(154,453,q),
(154,559,o),
(174,662,o),
(263,725,o),
(364,730,q),
(374,662,l),
(329,652,o),
(280,632,o),
(250,587,o),
(250,546,q),
(251,522,o),
(251,497,q),
(253,439,o),
(245,371,o),
(202,311,o),
(154,289,q),
(201,267,o),
(243,205,o),
(252,136,o),
(251,76,q),
(251,61,o),
(251,45,q),
(251,33,o),
(253,15,q),
(257,-17,o),
(285,-56,o),
(334,-77,o),
(374,-85,q),
(364,-153,l),
(277,-147,o),
(188,-109,o),
(152,-21,o),
(152,64,q),
(152,78,o),
(152,91,q),
(153,145,o),
(143,206,o),
(94,247,o),
(41,247,q)
);
}
);
width = 415;
},
{
layerId = "35043653-3C0A-484D-8455-0CC3777AD120";
shapes = (
{
closed = 1;
nodes = (
(35,350,l),
(102,350,o),
(159,379,o),
(170,429,o),
(168,483,q),
(166,513,o),
(166,533,q),
(166,542,o),
(168,558,q),
(176,614,o),
(256,678,o),
(356,704,o),
(430,715,q),
(430,598,l),
(398,592,o),
(357,572,o),
(335,532,o),
(335,500,q),
(335,473,o),
(336,460,q),
(337,408,o),
(328,350,o),
(280,302,o),
(226,287,q),
(257,278,o),
(303,250,o),
(333,208,o),
(337,180,q),
(338,171,o),
(338,153,q),
(338,142,o),
(336,122,q),
(333,76,o),
(341,24,o),
(382,-16,o),
(430,-24,q),
(430,-141,l),
(319,-126,o),
(210,-81,o),
(165,23,o),
(169,126,q),
(170,138,o),
(168,156,q),
(163,186,o),
(125,215,o),
(73,224,o),
(35,224,q)
);
}
);
width = 464;
}
);
note = braceleft;
unicode = 123;
},
{
glyphname = bar;
layers = (
{
layerId = m01;
shapes = (
{
closed = 1;
nodes = (
(322,-168,l),
(249,-168,l),
(249,767,l),
(322,767,l)
);
}
);
width = 570;
},
{
layerId = "4F54520B-6C1D-43AE-845C-9A591DE39CE0";
shapes = (
{
closed = 1;
nodes = (
(338,-161,l),
(253,-161,l),
(253,772,l),
(338,772,l)
);
}
);
width = 589;
},
{
layerId = "35043653-3C0A-484D-8455-0CC3777AD120";
shapes = (
{
closed = 1;
nodes = (
(415,-128,l),
(270,-128,l),
(270,798,l),
(415,798,l)
);
}
);
width = 685;
}
);
note = bar;
unicode = 124;
},
{
glyphname = braceright;
layers = (
{
layerId = m01;
shapes = (
{
closed = 1;
nodes = (
(363,252,l),
(332,252,o),
(287,236,o),
(260,202,o),
(256,175,qs),
(254,157,o),
(254,147,qs),
(254,104,o),
(255,84,qs),
(257,-8,o),
(239,-97,o),
(153,-150,o),
(54,-155,q),
(42,-97,l),
(85,-88,o),
(135,-70,o),
(167,-32,o),
(171,2,qs),
(172,9,o),
(172,23,qs),
(172,49,o),
(171,74,qs),
(169,133,o),
(177,204,o),
(219,267,o),
(266,289,q),
(219,311,o),
(177,374,o),
(169,445,o),
(171,504,qs),
(172,530,o),
(172,555,qs),
(172,567,o),
(170,585,qs),
(164,615,o),
(131,650,o),
(83,666,o),
(42,675,q),
(54,733,l),
(136,729,o),
(221,692,o),
(256,607,o),
(256,527,qs),
(255,487,ls),
(253,433,o),
(262,368,o),
(310,324,o),
(363,325,q)
);
}
);
width = 405;
},
{
layerId = "4F54520B-6C1D-43AE-845C-9A591DE39CE0";
shapes = (
{
closed = 1;
nodes = (
(374,247,l),
(337,247,o),
(291,230,o),
(267,192,o),
(264,162,q),
(262,152,o),
(262,131,q),
(262,129,o),
(262,126,q),
(262,15,o),
(242,-88,o),
(153,-148,o),
(51,-153,q),
(41,-85,l),
(83,-77,o),
(133,-54,o),
(161,-12,o),
(164,24,q),
(165,30,o),
(165,45,q),
(165,62,o),
(165,79,q),
(164,137,o),
(172,207,o),
(215,268,o),
(262,289,q),
(215,310,o),
(172,371,o),
(164,439,o),
(165,498,q),
(165,516,o),
(165,533,q),
(165,545,o),
(163,563,q),
(159,595,o),
(130,633,o),
(81,654,o),
(41,662,q),
(51,730,l),
(131,726,o),
(221,690,o),
(263,606,o),
(263,528,q),
(262,487,l),
(260,432,o),
(269,369,o),
(319,328,o),
(374,329,q)
);
}
);
width = 415;
},
{
layerId = "35043653-3C0A-484D-8455-0CC3777AD120";
shapes = (
{
closed = 1;
nodes = (
(430,224,l),
(365,224,o),
(308,196,o),
(296,147,o),
(298,95,q),
(299,81,o),
(299,52,q),
(299,43,o),
(297,25,q),
(290,-35,o),
(213,-102,o),
(109,-131,o),
(35,-141,q),
(35,-24,l),
(84,-16,o),
(126,26,o),
(132,82,o),
(128,131,q),
(128,142,o),
(127,153,q),
(127,172,o),
(128,180,q),
(132,208,o),
(162,250,o),
(209,278,o),
(239,287,q),
(208,296,o),
(162,324,o),
(132,365,o),
(128,393,q),
(127,402,o),
(127,421,q),
(127,433,o),
(129,453,q),
(132,500,o),
(125,551,o),
(83,590,o),
(35,598,q),
(35,715,l),
(114,704,o),
(220,674,o),
(299,599,o),
(299,533,q),
(298,484,l),
(296,431,o),
(306,380,o),
(364,350,o),
(430,350,q)
);
}
);
width = 464;
}
);
note = braceright;
unicode = 125;
},
{
glyphname = asciitilde;
layers = (
{
layerId = m01;
shapes = (
{
closed = 1;
nodes = (
(469,347,l),
(447,293,o),
(390,235,o),
(351,235,qs),
(330,235,o),
(289,249,o),
(261,263,qs),
(235,276,o),
(196,290,o),
(178,290,qs),
(153,290,o),
(117,260,o),
(102,229,q),
(53,253,l),
(76,309,o),
(134,364,o),
(177,364,qs),
(202,364,o),
(245,348,o),
(273,333,qs),
(299,320,o),
(327,309,o),
(342,309,qs),
(366,309,o),
(406,341,o),
(419,369,q)
);
}
);
width = 523;
},
{
layerId = "4F54520B-6C1D-43AE-845C-9A591DE39CE0";
shapes = (
{
closed = 1;
nodes = (
(467,349,l),
(448,293,o),
(389,234,o),
(349,234,q),
(328,234,o),
(288,248,o),
(258,261,q),
(233,273,o),
(196,286,o),
(178,286,q),
(154,286,o),
(122,258,o),
(107,228,q),
(51,254,l),
(73,313,o),
(130,369,o),
(174,369,q),
(199,369,o),
(242,354,o),
(270,340,q),
(292,329,o),
(323,317,o),
(338,317,q),
(361,317,o),
(398,347,o),
(411,374,q)
);
}
);
width = 519;
},
{
layerId = "35043653-3C0A-484D-8455-0CC3777AD120";
shapes = (
{
closed = 1;
nodes = (
(455,357,l),
(440,287,o),
(379,227,o),
(336,227,q),
(315,227,o),
(272,238,o),
(244,249,q),
(227,256,o),
(192,266,o),
(179,266,q),
(160,266,o),
(140,245,o),
(129,220,q),
(41,260,l),
(58,333,o),
(114,394,o),
(161,394,q),
(184,394,o),
(227,382,o),
(255,371,q),
(272,365,o),
(305,355,o),
(317,355,q),
(336,355,o),
(358,376,o),
(368,401,q)
);
}
);
width = 497;
}
);
note = asciitilde;
unicode = 126;
},
{
glyphname = exclamdown;
layers = (
{
layerId = m01;
shapes = (
{
closed = 1;
nodes = (
(102,-53,l),
(118,324,l),
(173,324,l),
(189,-53,l),
(194,-179,l),
(96,-179,l)
);
},
{
closed = 1;
nodes = (
(120,418,o),
(85,452,o),
(85,477,qs),
(85,503,o),
(119,535,o),
(145,535,qs),
(169,535,o),
(205,503,o),
(205,477,qs),
(205,452,o),
(170,418,o),
(145,418,qs)
);
}
);
width = 291;
},
{
layerId = "4F54520B-6C1D-43AE-845C-9A591DE39CE0";
shapes = (
{
closed = 1;
nodes = (
(95,-60,l),
(118,319,l),
(181,319,l),
(204,-60,l),
(208,-179,l),
(90,-179,l)
);
},
{
closed = 1;
nodes = (
(121,405,o),
(81,441,o),
(81,470,q),
(81,500,o),
(120,535,o),
(149,535,q),
(177,535,o),
(217,500,o),
(217,470,q),
(217,442,o),
(177,405,o),
(149,405,q)
);
}
);
width = 299;
},
{
layerId = "35043653-3C0A-484D-8455-0CC3777AD120";
shapes = (
{
closed = 1;
nodes = (
(62,-94,l),
(120,293,l),
(220,293,l),
(278,-94,l),
(278,-179,l),
(62,-179,l)
);
},
{
closed = 1;
nodes = (
(124,341,o),
(63,391,o),
(63,437,q),
(63,483,o),
(124,534,o),
(171,534,q),
(218,534,o),
(278,483,o),
(278,437,q),
(278,391,o),
(218,341,o),
(171,341,q)
);
}
);
width = 341;
}
);
note = exclamdown;
unicode = 161;
},
{
glyphname = cent;
layers = (
{
layerId = m01;
shapes = (
{
closed = 1;
nodes = (
(264,550,l),
(194,545,o),
(116,455,o),
(116,375,qs),
(116,311,o),
(172,227,o),
(225,201,q)
);
},
{
closed = 1;
nodes = (
(443,485,l),
(424,507,o),
(361,540,o),
(325,544,q),
(286,192,l),
(329,192,o),
(409,233,o),
(442,268,q),
(442,184,l),
(378,122,o),
(281,122,q),
(270,36,l),
(205,36,l),
(217,131,l),
(135,153,o),
(35,285,o),
(35,371,qs),
(35,442,o),
(94,554,o),
(201,620,o),
(271,624,q),
(280,705,l),
(343,705,l),
(335,619,l),
(391,608,o),
(443,568,q)
);
}
);
width = 488;
},
{
layerId = "4F54520B-6C1D-43AE-845C-9A591DE39CE0";
shapes = (
{
closed = 1;
nodes = (
(270,540,l),
(204,535,o),
(130,447,o),
(130,372,q),
(130,311,o),
(180,232,o),
(230,207,q)
);
},
{
closed = 1;
nodes = (
(447,477,l),
(428,499,o),
(369,531,o),
(336,535,q),
(296,197,l),
(338,197,o),
(414,237,o),
(446,270,q),
(446,172,l),
(385,115,o),
(289,114,q),
(278,29,l),
(205,29,l),
(217,125,l),
(136,147,o),
(35,282,o),
(35,368,q),
(35,441,o),
(96,555,o),
(206,622,o),
(279,626,q),
(288,705,l),
(360,705,l),
(351,619,l),
(402,608,o),
(447,574,q)
);
}
);
width = 490;
},
{
layerId = "35043653-3C0A-484D-8455-0CC3777AD120";
shapes = (
{
closed = 1;
nodes = (
(298,491,l),
(252,484,o),
(197,410,o),
(197,355,q),
(197,315,o),
(226,255,o),
(253,238,q)
);
},
{
closed = 1;
nodes = (
(464,438,l),
(447,458,o),
(411,483,o),
(393,487,q),
(345,221,l),
(383,221,o),
(446,253,o),
(468,278,q),
(468,112,l),
(413,80,o),
(331,75,q),
(317,-6,l),
(202,-6,l),
(219,92,l),
(135,120,o),
(32,264,o),
(32,355,q),
(32,433,o),
(105,561,o),
(234,636,o),
(316,636,q),
(328,706,l),
(443,706,l),
(428,619,l),
(448,612,o),
(464,603,q)
);
}
);
width = 500;
}
);
note = cent;
unicode = 162;
},
{
glyphname = sterling;
layers = (
{
layerId = m01;
shapes = (
{
closed = 1;
nodes = (
(182,292,l),
(182,73,l),
(512,73,l),
(512,0,l),
(96,0,l),
(96,305,l),
(30,305,l),
(30,373,l),
(96,373,l),
(96,476,ls),
(96,546,o),
(149,655,o),
(251,717,o),
(321,717,qs),
(444,717,o),
(520,620,q),
(464,566,l),
(434,603,o),
(369,640,o),
(319,640,qs),
(249,640,o),
(182,547,o),
(182,475,qs),
(182,373,l),
(426,373,l),
(432,305,l)
);
}
);
width = 543;
},
{
layerId = "4F54520B-6C1D-43AE-845C-9A591DE39CE0";
shapes = (
{
closed = 1;
nodes = (
(201,298,l),
(201,86,l),
(524,86,l),
(524,0,l),
(97,0,l),
(97,298,l),
(29,298,l),
(29,377,l),
(97,377,l),
(97,472,l),
(97,542.871,o),
(151.375,653.228,o),
(256.021,716,o),
(327.837,716,q),
(454.028,716,o),
(532,619,q),
(464,554,l),
(435,589,o),
(374,623,o),
(327.743,623,q),
(262.984,623,o),
(201,538,o),
(201,471.379,q),
(201,377,l),
(445,377,l),
(445,298,l)
);
}
);
width = 552;
},
{
layerId = "35043653-3C0A-484D-8455-0CC3777AD120";
shapes = (
{
closed = 1;
nodes = (
(293,263,l),
(293,153,l),
(586,153,l),
(586,0,l),
(100,0,l),
(100,263,l),
(25,263,l),
(25,399,l),
(100,399,l),
(100,450,l),
(100,530,o),
(161,648,o),
(279,712,o),
(360,712,q),
(505,712,o),
(593,611,q),
(464,494,l),
(441,518,o),
(397,539,o),
(373,539,q),
(335,539,o),
(293,492,o),
(293,450,q),
(293,399,l),
(509,399,l),
(509,263,l)
);
}
);
width = 598;
}
);
note = sterling;
unicode = 163;
},
{
glyphname = currency;
layers = (
{
layerId = m01;
shapes = (
{
closed = 1;
nodes = (
(553,483,l),
(578,444,o),
(603,372,o),
(603,328,qs),
(603,242,o),
(551,171,q),
(646,77,l),
(596,27,l),
(500,122,l),
(430,74,o),
(347,74,qs),
(264,74,o),
(194,123,q),
(96,27,l),
(47,77,l),
(144,174,l),
(118,206,o),
(93,280,o),
(93,328,qs),
(93,376,o),
(115,444,o),
(141,481,q),
(47,574,l),
(96,624,l),
(191,530,l),
(224,556,o),
(304,582,o),
(347,582,qs),
(435,582,o),
(501,531,q),
(595,624,l),
(646,574,l)
);
},
{
closed = 1;
nodes = (
(173,279,o),
(217,197,o),
(296,149,o),
(347,149,qs),
(397,149,o),
(476,196,o),
(520,278,o),
(520,327,qs),
(520,379,o),
(476,461,o),
(398,507,o),
(347,507,qs),
(297,507,o),
(218,460,o),
(173,378,o),
(173,328,qs)
);
}
);
width = 693;
},
{
layerId = "4F54520B-6C1D-43AE-845C-9A591DE39CE0";
shapes = (
{
closed = 1;
nodes = (
(558,481,l),
(583,443,o),
(607,371,o),
(607,328,q),
(607,245,o),
(556,173,q),
(651,80,l),
(596,25,l),
(500,120,l),
(429,73,o),
(349,73,q),
(270,73,o),
(199,121,q),
(101,25,l),
(47,80,l),
(143,176,l),
(118,209,o),
(94,281,o),
(94,328,q),
(94,374,o),
(115,443,o),
(141,479,q),
(47,572,l),
(101,627,l),
(196,533,l),
(229,559,o),
(306,583,o),
(349,583,q),
(435,583,o),
(501,534,q),
(595,627,l),
(651,572,l)
);
},
{
closed = 1;
nodes = (
(181,280,o),
(224,201,o),
(300,155,o),
(349,155,q),
(398,155,o),
(474,201,o),
(517,280,o),
(517,327,q),
(517,377,o),
(475,456,o),
(398,502,o),
(349,502,q),
(301,502,o),
(224,456,o),
(181,377,o),
(181,328,q)
);
}
);
width = 697;
},
{
layerId = "35043653-3C0A-484D-8455-0CC3777AD120";
shapes = (
{
closed = 1;
nodes = (
(583,470,l),
(604,437,o),
(624,370,o),
(624,329,q),
(624,250,o),
(582,185,q),
(673,94,l),
(594,15,l),
(500,108,l),
(433,69,o),
(361,69,q),
(287,69,o),
(222,109,q),
(125,15,l),
(47,94,l),
(140,188,l),
(120,218,o),
(98,290,o),
(98,329,q),
(98,367,o),
(117,438,o),
(138,469,q),
(47,560,l),
(125,639,l),
(219,549,l),
(253,570,o),
(320,589,o),
(361,589,q),
(440,589,o),
(502,550,q),
(593,639,l),
(673,560,l)
);
},
{
closed = 1;
nodes = (
(223,289,o),
(258,223,o),
(321,184,o),
(361,184,q),
(401,184,o),
(464,223,o),
(499,289,o),
(499,329,q),
(499,369,o),
(464,435,o),
(401,474,o),
(361,474,q),
(321,474,o),
(258,436,o),
(223,369,o),
(223,329,q)
);
}
);
width = 719;
}
);
note = currency;
unicode = 164;
},
{
glyphname = yen;
layers = (
{
layerId = m01;
shapes = (
{
closed = 1;
nodes = (
(246,303,l),
(70,303,l),
(70,370,l),
(215,370,l),
(1,705,l),
(99,705,l),
(298,372,l),
(495,705,l),
(590,705,l),
(376,370,l),
(520,370,l),
(520,303,l),
(344,303,l),
(338,213,l),
(520,213,l),
(520,146,l),
(336,146,l),
(336,0,l),
(255,0,l),
(255,146,l),
(70,146,l),
(70,213,l),
(256,213,l)
);
}
);
width = 590;
},
{
layerId = "4F54520B-6C1D-43AE-845C-9A591DE39CE0";
shapes = (
{
closed = 1;
nodes = (
(245,296,l),
(69,296,l),
(69,372,l),
(213,372,l),
(0,704,l),
(118,704,l),
(306,388,l),
(492,704,l),
(607,704,l),
(394,372,l),
(537,372,l),
(537,296,l),
(362,296,l),
(355,213,l),
(537,213,l),
(537,137,l),
(353,137,l),
(353,0,l),
(254,0,l),
(254,137,l),
(69,137,l),
(69,213,l),
(255,213,l)
);
}
);
width = 606;
},
{
layerId = "35043653-3C0A-484D-8455-0CC3777AD120";
shapes = (
{
closed = 1;
nodes = (
(237,263,l),
(63,263,l),
(63,383,l),
(201,383,l),
(-7,700,l),
(213,700,l),
(345,470,l),
(477,700,l),
(693,700,l),
(484,383,l),
(623,383,l),
(623,263,l),
(449,263,l),
(439,213,l),
(623,213,l),
(623,93,l),
(439,93,l),
(439,0,l),
(247,0,l),
(247,93,l),
(63,93,l),
(63,213,l),
(247,213,l)
);
}
);
width = 687;
}
);
note = yen;
unicode = 165;
},
{
glyphname = brokenbar;
layers = (
{
layerId = m01;
shapes = (
{
closed = 1;
nodes = (
(325,328,l),
(249,328,l),
(249,681,l),
(325,681,l)
);
},
{
closed = 1;
nodes = (
(325,-174,l),
(249,-174,l),
(249,173,l),
(325,173,l)
);
}
);
width = 573;
},
{
layerId = "4F54520B-6C1D-43AE-845C-9A591DE39CE0";
shapes = (
{
closed = 1;
nodes = (
(344,327,l),
(253,327,l),
(253,680,l),
(344,679,l)
);
},
{
closed = 1;
nodes = (
(344,-174,l),
(253,-174,l),
(253,172.188,l),
(344,173,l)
);
}
);
width = 595;
},
{
layerId = "35043653-3C0A-484D-8455-0CC3777AD120";
shapes = (
{
closed = 1;
nodes = (
(437,321,l),
(270,321,l),
(270,674,l),
(437,667,l)
);
},
{
closed = 1;
nodes = (
(437,-173,l),
(270,-173,l),
(270,174,l),
(437,173,l)
);
}
);
width = 707;
}
);
note = brokenbar;
unicode = 166;
},
{
glyphname = section;
layers = (
{
layerId = m01;
shapes = (
{
closed = 1;
nodes = (
(430,588,l),
(389,622,o),
(319,654,o),
(275,654,qs),
(225,654,o),
(168,618,o),
(168,583,qs),
(168,555,o),
(237,498,o),
(319,470,qs),
(395,444,o),
(477,395,o),
(506,344,o),
(506,309,qs),
(506,257,o),
(445,195,o),
(385,179,q),
(421,152,o),
(456,95,o),
(456,62,qs),
(456,18,o),
(408,-49,o),
(324,-86,o),
(271,-86,qs),
(173,-86,o),
(102,-25,q),
(102,55,l),
(135,18,o),
(222,-18,o),
(272,-18,qs),
(321,-18,o),
(374,21,o),
(374,59,qs),
(374,93,o),
(295,149,o),
(217,173,qs),
(117,204,o),
(35,282,o),
(35,334,qs),
(35,385,o),
(98,450,o),
(159,464,q),
(126,487,o),
(86,547,o),
(86,584,qs),
(86,625,o),
(134,687,o),
(218,722,o),
(269,722,qs),
(317,722,o),
(399,693,o),
(430,668,q)
);
},
{
closed = 1;
nodes = (
(166,419,o),
(112,379,o),
(112,345,qs),
(112,315,o),
(166,264,o),
(265,228,o),
(331,218,q),
(375,218,o),
(429,257,o),
(429,287,qs),
(429,324,o),
(353,382,o),
(252,418,o),
(213,424,q)
);
}
);
width = 556;
},
{
layerId = "4F54520B-6C1D-43AE-845C-9A591DE39CE0";
shapes = (
{
closed = 1;
nodes = (
(434,578,l),
(393,611,o),
(321,642,o),
(278,642,q),
(232,642,o),
(180,610,o),
(180,578,q),
(180,552,o),
(244,502,o),
(322,476,q),
(396,452,o),
(480,404,o),
(515,351,o),
(515,317,q),
(515,268,o),
(456,207,o),
(399,191,q),
(432,166,o),
(466,110,o),
(466,77,q),
(466,33,o),
(418,-36,o),
(331,-74,o),
(274,-74,q),
(176,-74,o),
(106,-18,q),
(106,75,l),
(141,39,o),
(226,4,o),
(275,4,q),
(321,4,o),
(369,39,o),
(369,74,q),
(369,105,o),
(296,155,o),
(222,177,q),
(122,206,o),
(33,283,o),
(33,336,q),
(33,384,o),
(93,448,o),
(151,462,q),
(120,485,o),
(82,543,o),
(82,579,q),
(82,620,o),
(131,685,o),
(218,721,o),
(273,721,q),
(320,721,o),
(402,694,o),
(434,670,q)
);
},
{
closed = 1;
nodes = (
(170,416,o),
(121,380,o),
(121,349,q),
(121,320,o),
(179,273,o),
(277,239,o),
(337,231,q),
(378,231,o),
(427,267,o),
(427,295,q),
(427,329,o),
(350,382,o),
(252,414,o),
(214,421,q)
);
}
);
width = 562;
},
{
layerId = "35043653-3C0A-484D-8455-0CC3777AD120";
shapes = (
{
closed = 1;
nodes = (
(455,525,l),
(415,553,o),
(332,584,o),
(291,584,q),
(264,584,o),
(238,569,o),
(238,554,q),
(238,540,o),
(282,518,o),
(334,506,q),
(407,489,o),
(503,453,o),
(562,397,o),
(562,355,q),
(562,318,o),
(513,264,o),
(471,249,q),
(493,231,o),
(518,179,o),
(518,149,q),
(518,104,o),
(466,30,o),
(362,-13,o),
(288,-13,q),
(201,-13,o),
(128,18,q),
(128,175,l),
(167,147,o),
(252,116,o),
(291,116,q),
(319,116,o),
(345,131,o),
(345,146,q),
(345,160,o),
(299,184,o),
(249,194,q),
(144,215,o),
(20,287,o),
(20,345,q),
(20,381,o),
(69,436,o),
(112,451,q),
(89,468,o),
(64,521,o),
(64,552,q),
(64,598,o),
(116,671,o),
(220,713,o),
(295,713,q),
(340,713,o),
(419,697,o),
(455,681,q)
);
},
{
closed = 1;
nodes = (
(193,403,o),
(166,386,o),
(166,371,q),
(166,348,o),
(239,314,o),
(335,297,o),
(365,297,q),
(388,297,o),
(416,317,o),
(416,332,q),
(416,352,o),
(337,384,o),
(238,403,o),
(217,403,q)
);
}
);
width = 594;
}
);
note = section;
unicode = 167;
},
{
glyphname = dieresis;
layers = (
{
layerId = m01;
shapes = (
{
closed = 1;
nodes = (
(113,744,o),
(149,709,o),
(149,685,qs),
(149,661,o),
(113,626,o),
(89,626,qs),
(63,626,o),
(30,660,o),
(30,686,qs),
(30,710,o),
(65,744,o),
(89,744,qs)
);
},
{
closed = 1;
nodes = (
(305,744,o),
(338,710,o),
(338,685,qs),
(338,660,o),
(305,626,o),
(279,626,qs),
(255,626,o),
(222,660,o),
(222,686,qs),
(222,710,o),
(255,744,o),
(279,744,qs)
);
}
);
width = 368;
},
{
layerId = "4F54520B-6C1D-43AE-845C-9A591DE39CE0";
shapes = (
{
closed = 1;
nodes = (
(115,753,o),
(153,717,o),
(153,690,q),
(153,663,o),
(115,627,o),
(88,627,q),
(60,627,o),
(24,662,o),
(24,690,q),
(24,718,o),
(60,753,o),
(88,753,q)
);
},
{
closed = 1;
nodes = (
(313,753,o),
(348,717,o),
(348,690,q),
(348,662,o),
(313,627,o),
(284,627,q),
(258,627,o),
(222,663,o),
(222,690,q),
(222,717,o),
(257,753,o),
(284,753,q)
);
}
);
width = 372;
},
{
layerId = "35043653-3C0A-484D-8455-0CC3777AD120";
shapes = (
{
closed = 1;
nodes = (
(122,800,o),
(172,755,o),
(172,715,q),
(172,674,o),
(122,629,o),
(84,629,q),
(46,629,o),
(-4,674,o),
(-4,715,q),
(-4,754,o),
(44,800,o),
(84,800,q)
);
},
{
closed = 1;
nodes = (
(348,800,o),
(398,755,o),
(398,715,q),
(398,674,o),
(348,629,o),
(310,629,q),
(272,629,o),
(222,674,o),
(222,715,q),
(222,754,o),
(270,800,o),
(310,800,q)
);
}
);
width = 394;
}
);
note = dieresis;
unicode = 168;
},
{
glyphname = copyright;
layers = (
{
layerId = m01;
shapes = (
{
closed = 1;
nodes = (
(37,467,o),
(143,647,o),
(322,753,o),
(427,753,qs),
(532,753,o),
(712,647,o),
(818,466,o),
(818,358,qs),
(818,250,o),
(713,69,o),
(534,-36,o),
(428,-36,qs),
(320,-36,o),
(141,70,o),
(37,253,o),
(37,362,qs)
);
},
{
closed = 1;
nodes = (
(753,446,o),
(665,596,o),
(516,684,o),
(428,684,qs),
(339,684,o),
(190,597,o),
(102,448,o),
(102,360,qs),
(102,271,o),
(189,121,o),
(339,33,o),
(428,33,qs),
(515,33,o),
(665,120,o),
(753,270,o),
(753,358,qs)
);
},
{
closed = 1;
nodes = (
(559,184,l),
(502,133,o),
(425,133,qs),
(363,133,o),
(265,194,o),
(211,300,o),
(211,366,qs),
(211,431,o),
(265,535,o),
(363,594,o),
(427,594,qs),
(468,594,o),
(537,568,o),
(561,549,q),
(561,468,l),
(536,493,o),
(468,522,o),
(433,522,qs),
(394,522,o),
(330,481,o),
(293,409,o),
(293,366,qs),
(293,297,o),
(371,205,o),
(436,205,qs),
(501,205,o),
(559,258,q)
);
}
);
width = 854;
},
{
layerId = "4F54520B-6C1D-43AE-845C-9A591DE39CE0";
shapes = (
{
closed = 1;
nodes = (
(35,463,o),
(139,641,o),
(316,747,o),
(420,747,q),
(524,747,o),
(702,642,o),
(806,463,o),
(806,357,q),
(806,251,o),
(703,72,o),
(526,-32,o),
(421,-32,q),
(315,-32,o),
(138,73,o),
(35,253,o),
(35,360,q)
);
},
{
closed = 1;
nodes = (
(745,446,o),
(658,595,o),
(510,682,o),
(421,682,q),
(333,682,o),
(183,595,o),
(96,447,o),
(96,359,q),
(96,270,o),
(183,120,o),
(333,32,o),
(421,32,q),
(508,32,o),
(657,119,o),
(745,269,o),
(745,357,q)
);
},
{
closed = 1;
nodes = (
(549,183,l),
(492,137,o),
(421,137,q),
(360,137,o),
(262,197,o),
(207,301,o),
(207,364,q),
(207,427,o),
(261,528,o),
(360,587,o),
(423,587,q),
(461,587,o),
(526,564,o),
(550,547,q),
(550,458,l),
(526,482,o),
(462,509,o),
(429,509,q),
(392,509,o),
(332,471,o),
(298,405,o),
(298,364,q),
(298,300,o),
(371,216,o),
(431,216,q),
(494,216,o),
(549,266,q)
);
}
);
width = 840;
},
{
layerId = "35043653-3C0A-484D-8455-0CC3777AD120";
shapes = (
{
closed = 1;
nodes = (
(23,448,o),
(120,615,o),
(286,714,o),
(386,714,q),
(485,714,o),
(651,616,o),
(747,450,o),
(747,353,q),
(747,256,o),
(650,87,o),
(484,-14,o),
(384,-14,q),
(286,-14,o),
(120,84,o),
(23,252,o),
(23,351,q)
);
},
{
closed = 1;
nodes = (
(705,440,o),
(621,587,o),
(475,674,o),
(386,674,q),
(296,674,o),
(149,586,o),
(65,438,o),
(65,351,q),
(65,263,o),
(149,114,o),
(295,26,o),
(384,26,q),
(473,26,o),
(620,113,o),
(705,263,o),
(705,353,q)
);
},
{
closed = 1;
nodes = (
(497,178,l),
(447,155,o),
(399,155,q),
(343,155,o),
(246,210,o),
(189,302,o),
(189,355,q),
(189,408,o),
(247,499,o),
(346,554,o),
(405,554,q),
(430,554,o),
(475,544,o),
(494,534,q),
(494,405,l),
(476,421,o),
(434,441,o),
(410,441,q),
(385,441,o),
(344,418,o),
(320,379,o),
(320,355,q),
(320,319,o),
(372,268,o),
(407,268,q),
(457,268,o),
(497,304,q)
);
}
);
width = 769;
}
);
note = copyright;
unicode = 169;
},
{
glyphname = ordfeminine;
layers = (
{
layerId = m01;
shapes = (
{
closed = 1;
nodes = (
(24,562,o),
(90,611,o),
(146,611,qs),
(168,611,o),
(199,605,o),
(225,597,q),
(226,597,l),
(226,605,ls),
(226,640,o),
(185,675,o),
(148,675,qs),
(102,675,o),
(64,652,q),
(48,696,l),
(98,722,o),
(153,722,qs),
(209,722,o),
(277,663,o),
(277,605,qs),
(277,431,l),
(226,431,l),
(226,473,l),
(208,451,o),
(158,425,o),
(129,425,qs),
(88,425,o),
(24,474,o),
(24,515,qs)
);
},
{
closed = 1;
nodes = (
(282,356,l),
(282,304,l),
(14,304,l),
(14,356,l)
);
},
{
closed = 1;
nodes = (
(226,558,l),
(193,573,o),
(151,573,qs),
(115,573,o),
(75,544,o),
(75,518,qs),
(75,493,o),
(111,467,o),
(140,467,qs),
(174,467,o),
(226,504,o),
(226,537,qs)
);
}
);
width = 320;
},
{
layerId = "4F54520B-6C1D-43AE-845C-9A591DE39CE0";
shapes = (
{
closed = 1;
nodes = (
(24,560.51,o),
(90,609,o),
(146,609,q),
(167,609,o),
(198,603,o),
(223,596,q),
(224,596,l),
(224,603.487,l),
(224,636.244,o),
(184.626,669,o),
(149.13,669,q),
(105,669,o),
(65,647,q),
(49,696,l),
(103,722,o),
(156,722,q),
(216,722,o),
(284,662,o),
(284,602,q),
(284,429,l),
(224,429,l),
(224,469,l),
(206,447,o),
(158,423,o),
(128.586,423,q),
(87,423,o),
(23,471.338,o),
(24,514,q)
);
},
{
closed = 1;
nodes = (
(280,354.04,l),
(280,301,l),
(21,301,l),
(12,354.04,l)
);
},
{
closed = 1;
nodes = (
(224,554.203,l),
(191,569,o),
(155,569,q),
(121.368,569,o),
(84,542,o),
(84,517.351,q),
(84,493.649,o),
(117,469,o),
(143.983,469,q),
(175.617,469,o),
(224,505,o),
(224,533.486,q)
);
}
);
width = 326;
},
{
layerId = "35043653-3C0A-484D-8455-0CC3777AD120";
shapes = (
{
closed = 1;
nodes = (
(26,553,o),
(87,599,o),
(143,599,q),
(164,599,o),
(200,593,o),
(213,588,q),
(214,588,l),
(214,592,l),
(214,616,o),
(184,641,o),
(154,641,q),
(114,641,o),
(72,624,q),
(51,698,l),
(105,721,o),
(171,721,q),
(248,721,o),
(317,656,o),
(317,589,q),
(317,419,l),
(213,419,l),
(213,451,l),
(197,433,o),
(154,413,o),
(126,413,q),
(82,413,o),
(26,462,o),
(26,506,q)
);
},
{
closed = 1;
nodes = (
(322,363,l),
(322,286,l),
(23,286,l),
(23,363,l)
);
},
{
closed = 1;
nodes = (
(215,541,l),
(193,549,o),
(174,549,q),
(153,549,o),
(127,529,o),
(127,513,q),
(127,498,o),
(147,479,o),
(163,479,q),
(185,479,o),
(215,507,o),
(215,528,q)
);
}
);
width = 354;
}
);
note = ordfeminine;
unicode = 170;
},
{
glyphname = guillemotleft;
layers = (
{
layerId = m01;
shapes = (
{
closed = 1;
nodes = (
(199,43,l),
(47,250,l),
(199,461,l),
(268,437,l),
(138,253,l),
(266,72,l)
);
},
{
closed = 1;
nodes = (
(408,43,l),
(256,250,l),
(408,461,l),
(477,437,l),
(347,253,l),
(475,72,l)
);
}
);
width = 534;
},
{
layerId = "4F54520B-6C1D-43AE-845C-9A591DE39CE0";
shapes = (
{
closed = 1;
nodes = (
(200,42,l),
(45,253,l),
(200,468,l),
(281,437,l),
(151,256,l),
(280,76,l)
);
},
{
closed = 1;
nodes = (
(420,42,l),
(265,253,l),
(420,468,l),
(501,437,l),
(371,256,l),
(500,76,l)
);
}
);
width = 555;
},
{
layerId = "35043653-3C0A-484D-8455-0CC3777AD120";
shapes = (
{
closed = 1;
nodes = (
(205,37,l),
(32,268,l),
(206,500,l),
(347,439,l),
(217,268,l),
(347,98,l)
);
},
{
closed = 1;
nodes = (
(480,37,l),
(307,268,l),
(481,500,l),
(622,439,l),
(492,268,l),
(622,98,l)
);
}
);
width = 657;
}
);
note = guillemotleft;
unicode = 171;
},
{
glyphname = logicalnot;
layers = (
{
layerId = m01;
shapes = (
{
closed = 1;
nodes = (
(483,129,l),
(483,340,l),
(40,340,l),
(40,411,l),
(552,411,l),
(552,129,l)
);
}
);
width = 591;
},
{
layerId = "4F54520B-6C1D-43AE-845C-9A591DE39CE0";
shapes = (
{
closed = 1;
nodes = (
(479,128,l),
(479,330,l),
(47,330,l),
(47,412,l),
(561,412,l),
(561,128,l)
);
}
);
width = 607;
},
{
layerId = "35043653-3C0A-484D-8455-0CC3777AD120";
shapes = (
{
closed = 1;
nodes = (
(460,125,l),
(460,277,l),
(79,277,l),
(79,416,l),
(607,416,l),
(607,125,l)
);
}
);
width = 686;
}
);
note = logicalnot;
unicode = 172;
},
{
glyphname = registered;
layers = (
{
layerId = m01;
shapes = (
{
closed = 1;
nodes = (
(481,712,o),
(645,616,o),
(742,453,o),
(742,357,qs),
(742,261,o),
(643,97,o),
(478,-1,o),
(383,-1,qs),
(285,-1,o),
(118,96,o),
(21,261,o),
(21,357,qs),
(21,455,o),
(119,618,o),
(287,712,o),
(386,712,qs)
);
},
{
closed = 1;
nodes = (
(463,60,o),
(599,141,o),
(678,279,o),
(678,358,qs),
(678,437,o),
(598,572,o),
(463,651,o),
(385,651,qs),
(303,651,o),
(165,573,o),
(85,438,o),
(85,357,qs),
(85,277,o),
(164,140,o),
(301,60,o),
(383,60,qs)
);
},
{
closed = 1;
nodes = (
(394,570,ls),
(447,570,o),
(519,506,o),
(519,454,qs),
(519,408,o),
(457,341,o),
(412,332,q),
(563,143,l),
(479,143,l),
(337,324,l),
(324,324,l),
(324,143,l),
(253,143,l),
(253,570,l)
);
},
{
closed = 1;
nodes = (
(378,389,ls),
(411,389,o),
(455,421,o),
(455,448,qs),
(455,473,o),
(416,509,o),
(380,509,qs),
(324,509,l),
(324,389,l)
);
}
);
width = 762;
},
{
layerId = "4F54520B-6C1D-43AE-845C-9A591DE39CE0";
shapes = (
{
closed = 1;
nodes = (
(479.829,713,o),
(645,617,o),
(742,453.372,o),
(742,357.002,q),
(742,260.632,o),
(644,96,o),
(478,-2,o),
(383,-2,q),
(285,-2,o),
(118,95,o),
(21,260,o),
(21,357,q),
(21,454,o),
(118.632,618.268,o),
(286,713,o),
(384.15,713,q)
);
},
{
closed = 1;
nodes = (
(465,55,o),
(602,138,o),
(682,277,o),
(682,358,q),
(682,439,o),
(602,576,o),
(465,656,o),
(385.05,656,q),
(301,656,o),
(161.734,576.332,o),
(81,438.444,o),
(81,355.711,q),
(81,274,o),
(160.564,137,o),
(298.543,57,o),
(383,55,q)
);
},
{
closed = 1;
nodes = (
(395,568,l),
(452,568,o),
(527,502,o),
(527,449.469,q),
(527,403,o),
(468,338,o),
(424,328,q),
(565,148,l),
(475,148,l),
(344,318,l),
(325,318,l),
(325,148,l),
(248,148,l),
(254,568,l)
);
},
{
closed = 1;
nodes = (
(382,386,l),
(413.286,386,o),
(455,417,o),
(455,443.481,q),
(455,468,o),
(417.56,502,o),
(383,502,q),
(325,502,l),
(325.033,386,l)
);
}
);
width = 762;
},
{
layerId = "35043653-3C0A-484D-8455-0CC3777AD120";
shapes = (
{
closed = 1;
nodes = (
(482,719,o),
(647,620,o),
(743,453,o),
(743,355,q),
(743,258,o),
(646,90,o),
(480,-9,o),
(380,-9,q),
(280,-9,o),
(115,90,o),
(19,257,o),
(19,355,q),
(19,453,o),
(116,620,o),
(283,719,o),
(382,719,q)
);
},
{
closed = 1;
nodes = (
(470,31,o),
(617,119,o),
(701,268,o),
(701,357,q),
(701,445,o),
(617,592,o),
(471,679,o),
(382,679,q),
(292,679,o),
(145,591,o),
(61,442,o),
(61,353,q),
(61,266,o),
(145,118,o),
(291,31,o),
(380,31,q)
);
},
{
closed = 1;
nodes = (
(401,558,l),
(480,558,o),
(564,485,o),
(564,425,q),
(564,384,o),
(522,323,o),
(485,307,q),
(577,173,l),
(454,173,l),
(376,290,l),
(329,290,l),
(329,173,l),
(222,173,l),
(222,558,l)
);
},
{
closed = 1;
nodes = (
(399,373,l),
(426,373,o),
(457,399,o),
(457,420,q),
(457,440,o),
(425,466,o),
(398,466,q),
(329,466,l),
(329,373,l)
);
}
);
width = 762;
}
);
note = registered;
unicode = 174;
},
{
glyphname = degree;
layers = (
{
layerId = m01;
shapes = (
{
closed = 1;
nodes = (
(146,431,o),
(77,470,o),
(37,537,o),
(37,576,qs),
(37,615,o),
(78,683,o),
(146,723,o),
(185,723,qs),
(226,723,o),
(294,684,o),
(333,617,o),
(333,577,qs),
(333,537,o),
(293,470,o),
(225,431,o),
(185,431,qs)
);
},
{
closed = 1;
nodes = (
(147,669,o),
(94,614,o),
(94,577,qs),
(94,538,o),
(146,485,o),
(185,485,qs),
(224,485,o),
(276,536,o),
(276,577,qs),
(276,615,o),
(223,669,o),
(185,669,qs)
);
}
);
width = 370;
},
{
layerId = "4F54520B-6C1D-43AE-845C-9A591DE39CE0";
shapes = (
{
closed = 1;
nodes = (
(149.419,425,o),
(77.622,465.104,o),
(36,534,o),
(36,575,q),
(36,616,o),
(78,686,o),
(149.178,727,o),
(190,727,q),
(232.128,727,o),
(302,687,o),
(343,618,o),
(343,576.495,q),
(343,534.989,o),
(301.889,465.468,o),
(232,425,o),
(190,425,q)
);
},
{
closed = 1;
nodes = (
(152.418,667,o),
(100,612.598,o),
(100,576,q),
(100,537.424,o),
(151.429,485,o),
(190,485,q),
(228.571,485,o),
(280,535.446,o),
(280,576,q),
(280,614,o),
(227.582,668,o),
(190,667,q)
);
}
);
width = 379;
},
{
layerId = "35043653-3C0A-484D-8455-0CC3777AD120";
shapes = (
{
closed = 1;
nodes = (
(164,393,o),
(81,441,o),
(31,523,o),
(31,571,q),
(31,618,o),
(82,700,o),
(166,748,o),
(213,748,q),
(260,748,o),
(344,700,o),
(395,618,o),
(395,571,q),
(395,523,o),
(345,441,o),
(261,393,o),
(213,393,q)
);
},
{
closed = 1;
nodes = (
(178,656,o),
(129,607,o),
(129,571,q),
(129,535,o),
(177,485,o),
(213,485,q),
(249,485,o),
(297,535,o),
(297,571,q),
(297,607,o),
(249,656,o),
(213,656,q)
);
}
);
width = 425;
}
);
note = degree;
unicode = 176;
},
{
glyphname = plusminus;
layers = (
{
layerId = m01;
shapes = (
{
closed = 1;
nodes = (
(261,409,l),
(261,573,l),
(330,573,l),
(330,409,l),
(544,409,l),
(544,339,l),
(330,339,l),
(330,181,l),
(261,181,l),
(261,339,l),
(47,339,l),
(47,409,l)
);
},
{
closed = 1;
nodes = (
(544,104,l),
(544,34,l),
(47,34,l),
(47,104,l)
);
}
);
width = 591;
},
{
layerId = "4F54520B-6C1D-43AE-845C-9A591DE39CE0";
shapes = (
{
closed = 1;
nodes = (
(260,416,l),
(260,577,l),
(339,577,l),
(339,416,l),
(546,416,l),
(546,336,l),
(339,336,l),
(339,180,l),
(260,180,l),
(260,336,l),
(53,336,l),
(53,416,l)
);
},
{
closed = 1;
nodes = (
(546,108,l),
(546,28,l),
(53,28,l),
(53,108,l)
);
}
);
width = 599;
},
{
layerId = "35043653-3C0A-484D-8455-0CC3777AD120";
shapes = (
{
closed = 1;
nodes = (
(253,452,l),
(253,596,l),
(386,596,l),
(386,452,l),
(555,452,l),
(555,323,l),
(386,323,l),
(386,173,l),
(253,173,l),
(253,323,l),
(81,323,l),
(81,452,l)
);
},
{
closed = 1;
nodes = (
(555,129,l),
(555,0,l),
(81,0,l),
(81,129,l)
);
}
);
width = 636;
}
);
note = plusminus;
unicode = 177;
},
{
glyphname = uni00B2;
layers = (
{
layerId = m01;
shapes = (
{
closed = 1;
nodes = (
(130,429,l),
(148,451,ls),
(197,513,o),
(232,574,o),
(232,598,qs),
(232,626,o),
(195,663,o),
(167,663,qs),
(150,663,o),
(112,643,o),
(95,621,q),
(55,669,l),
(88,698,o),
(139,720,o),
(170,720,qs),
(210,720,o),
(269,689,o),
(300,634,o),
(300,598,qs),
(300,559,o),
(258,489,o),
(193,411,qs),
(137,342,l),
(302,342,l),
(271,285,l),
(13,285,l)
);
}
);
width = 333;
},
{
layerId = "4F54520B-6C1D-43AE-845C-9A591DE39CE0";
shapes = (
{
closed = 1;
nodes = (
(136,429,l),
(153,449,l),
(200,506,o),
(238,568,o),
(238,593,q),
(238,620,o),
(203,656,o),
(176,656,q),
(158,656,o),
(123,633,o),
(108,610,q),
(53,650,l),
(83,689,o),
(138,720,o),
(179,720,q),
(219,720,o),
(282,688,o),
(316,631,o),
(316,594,q),
(316,553,o),
(272,483,o),
(208,410,q),
(155,348,l),
(318,349,l),
(293,285,l),
(14,285,l)
);
}
);
width = 349;
},
{
layerId = "35043653-3C0A-484D-8455-0CC3777AD120";
shapes = (
{
closed = 1;
nodes = (
(168,428,l),
(176,436,l),
(214,470,o),
(268,537,o),
(268,569,q),
(268,591,o),
(242,619,o),
(220,619,q),
(194,619,o),
(172,582,o),
(172,555,q),
(43,555,l),
(50,635,o),
(137,717,o),
(223,717,q),
(268,717,o),
(348,682,o),
(396,616,o),
(396,574,q),
(396,522,o),
(336,440,o),
(282,404,q),
(242,378,l),
(400,386,l),
(400,285,l),
(18,285,l)
);
}
);
width = 430;
}
);
note = uni00B2;
unicode = 178;
},
{
glyphname = uni00B3;
layers = (
{
layerId = m01;
shapes = (
{
closed = 1;
nodes = (
(78,383,l),
(84,354,o),
(114,334,o),
(141,334,qs),
(177,334,o),
(224,382,o),
(224,417,qs),
(224,451,o),
(176,494,o),
(119,494,qs),
(95,494,l),
(95,550,l),
(114,550,ls),
(156,550,o),
(201,583,o),
(201,615,qs),
(201,640,o),
(171,667,o),
(142,667,qs),
(121,667,o),
(94,644,o),
(88,620,q),
(23,620,l),
(35,675,o),
(91,723,o),
(139,723,qs),
(196,723,o),
(265,668,o),
(265,620,qs),
(265,589,o),
(233,547,o),
(196,526,q),
(246,511,o),
(288,459,o),
(288,418,qs),
(288,356,o),
(201,278,o),
(136,278,qs),
(78,278,o),
(20,327,o),
(9,383,q)
);
}
);
width = 313;
},
{
layerId = "4F54520B-6C1D-43AE-845C-9A591DE39CE0";
shapes = (
{
closed = 1;
nodes = (
(85,391,l),
(92,363,o),
(122,340,o),
(150,340,q),
(185,340,o),
(230,385,o),
(230,419,q),
(230,447,o),
(185,488,o),
(134,488,q),
(111,487,l),
(111,546,l),
(128,546,l),
(164,546,o),
(209,581,o),
(209,611,q),
(209,633,o),
(179,661,o),
(154,661,q),
(132,661,o),
(106,638,o),
(97,610,q),
(25,610,l),
(33,669,o),
(98,723,o),
(153,723,q),
(210,723,o),
(283,667,o),
(283,617,q),
(283,584,o),
(251,538,o),
(215,521,q),
(265,504,o),
(305,456,o),
(305,417,q),
(305,355,o),
(215,278,o),
(145,278,q),
(85,278,o),
(17,332,o),
(9,391,q)
);
}
);
width = 329;
},
{
layerId = "35043653-3C0A-484D-8455-0CC3777AD120";
shapes = (
{
closed = 1;
nodes = (
(138,424,l),
(139,400,o),
(169,369,o),
(195,369,q),
(218,369,o),
(249,401,o),
(249,426,q),
(249,449,o),
(220,475,o),
(198,475,q),
(175,474,l),
(175,547,l),
(187,547,l),
(206,547,o),
(233,572,o),
(233,592,q),
(233,610,o),
(212,632,o),
(194,632,q),
(173,632,o),
(152,606,o),
(152,589,q),
(27,589,l),
(33,653,o),
(129,721,o),
(197,721,q),
(261,721,o),
(357,657,o),
(357,601,q),
(357,574,o),
(331,527,o),
(307,515,q),
(339,501,o),
(375,447,o),
(375,414,q),
(375,348,o),
(269,279,o),
(194,279,q),
(116,279,o),
(14,355,o),
(10,424,q)
);
}
);
width = 398;
}
);
note = uni00B3;
unicode = 179;
},
{
glyphname = acute;
layers = (
{
layerId = m01;
shapes = (
{
closed = 1;
nodes = (
(210,745,l),
(82,616,l),
(23,616,l),
(114,765,l)
);
}
);
width = 233;
},
{
layerId = "4F54520B-6C1D-43AE-845C-9A591DE39CE0";
shapes = (
{
closed = 1;
nodes = (
(223,745,l),
(92,616,l),
(20,616,l),
(113,771,l)
);
}
);
width = 239;
},
{
layerId = "35043653-3C0A-484D-8455-0CC3777AD120";
shapes = (
{
closed = 1;
nodes = (
(286,744,l),
(139,616,l),
(5,616,l),
(109,801,l)
);
}
);
width = 269;
}
);
note = acute;
unicode = 180;
},
{
glyphname = uni00B5;
layers = (
{
layerId = m01;
shapes = (
{
closed = 1;
nodes = (
(155,64,l),
(173,27,o),
(234,-10,o),
(271,-10,qs),
(311,-10,o),
(382,30,o),
(404,62,q),
(487,0,l),
(487,483,l),
(405,483,l),
(405,204,ls),
(405,135,o),
(329,61,o),
(271,61,qs),
(224,61,o),
(155,133,o),
(155,204,qs),
(155,483,l),
(73,483,l),
(73,-188,l),
(155,-188,l)
);
}
);
width = 564;
},
{
layerId = "4F54520B-6C1D-43AE-845C-9A591DE39CE0";
shapes = (
{
closed = 1;
nodes = (
(169,59,l),
(186,25,o),
(242,-10,o),
(277,-10,q),
(315,-10,o),
(381,30,o),
(402,64,q),
(503,0,l),
(503,493,l),
(403,493,l),
(403,211,l),
(403,146,o),
(332,77,o),
(278,77,q),
(234,77,o),
(169,145,o),
(169,211,q),
(169,493,l),
(69,493,l),
(69,-183,l),
(169,-183,l)
);
}
);
width = 576;
},
{
layerId = "35043653-3C0A-484D-8455-0CC3777AD120";
shapes = (
{
closed = 1;
nodes = (
(237,36,l),
(246,16,o),
(284,-12,o),
(307,-12,q),
(334,-12,o),
(378,30,o),
(393,74,q),
(583,0,l),
(583,541,l),
(393,541,l),
(393,248,l),
(393,205,o),
(349,157,o),
(314,157,q),
(279,157,o),
(237,205,o),
(237,248,q),
(237,541,l),
(47,541,l),
(47,-160,l),
(237,-160,l)
);
}
);
width = 634;
}
);
note = uni00B5;
unicode = 181;
},
{
glyphname = paragraph;
layers = (
{
layerId = m01;
shapes = (
{
closed = 1;
nodes = (
(206,361,l),
(154,372,o),
(80,405,o),
(33,474,o),
(33,532,qs),
(33,616,o),
(138,706,o),
(230,706,qs),
(492,706,l),
(492,625,l),
(459,625,l),
(459,-104,l),
(380,-104,l),
(380,625,l),
(285,625,l),
(285,-104,l),
(206,-104,l)
);
}
);
width = 632;
},
{
layerId = "4F54520B-6C1D-43AE-845C-9A591DE39CE0";
shapes = (
{
closed = 1;
nodes = (
(210,352,l),
(159,361,o),
(82,398,o),
(35,470,o),
(35,527,q),
(35,613,o),
(142,706,o),
(237,706,q),
(505,706,l),
(505,622,l),
(469,622,l),
(469,-106,l),
(384,-106,l),
(384,622,l),
(295,622,l),
(295,-106,l),
(210,-106,l)
);
}
);
width = 634;
},
{
layerId = "35043653-3C0A-484D-8455-0CC3777AD120";
shapes = (
{
closed = 1;
nodes = (
(230,308,l),
(175,315,o),
(91,365,o),
(43,448,o),
(43,502,q),
(43,597,o),
(163,706,o),
(273,706,q),
(571,706,l),
(571,604,l),
(516,604,l),
(516,-113,l),
(404,-113,l),
(404,604,l),
(342,604,l),
(342,-113,l),
(230,-113,l)
);
}
);
width = 641;
}
);
note = paragraph;
unicode = 182;
},
{
glyphname = periodcentered;
layers = (
{
layerId = m01;
shapes = (
{
closed = 1;
nodes = (
(169,411,o),
(204,376,o),
(204,352,qs),
(204,327,o),
(169,291,o),
(145,291,qs),
(120,291,o),
(85,327,o),
(85,352,qs),
(85,377,o),
(120,411,o),
(145,411,qs)
);
}
);
width = 290;
},
{
layerId = "4F54520B-6C1D-43AE-845C-9A591DE39CE0";
shapes = (
{
closed = 1;
nodes = (
(178,424,o),
(218,385,o),
(218,356,q),
(218,327,o),
(178,287,o),
(150,287,q),
(121,287,o),
(81,327,o),
(81,356,q),
(81,386,o),
(120,424,o),
(150,424,q)
);
}
);
width = 300;
},
{
layerId = "35043653-3C0A-484D-8455-0CC3777AD120";
shapes = (
{
closed = 1;
nodes = (
(224,488,o),
(287,431,o),
(287,379,q),
(287,327,o),
(224,269,o),
(174,269,q),
(124,269,o),
(62,327,o),
(62,379,q),
(62,430,o),
(122,488,o),
(174,488,q)
);
}
);
width = 349;
}
);
note = periodcentered;
unicode = 183;
},
{
glyphname = cedilla;
layers = (
{
layerId = m01;
shapes = (
{
closed = 1;
nodes = (
(153,-70,ls),
(184,-70,o),
(233,-100,o),
(233,-135,qs),
(233,-178,o),
(159,-221,o),
(113,-221,qs),
(72,-221,o),
(30,-201,q),
(41,-160,l),
(68,-170,o),
(90,-170,qs),
(113,-170,o),
(155,-148,o),
(155,-125,qs),
(155,-110,o),
(132,-94,o),
(114,-94,qs),
(100,-94,o),
(83,-101,q),
(66,-88,l),
(126,0,l),
(191,0,l),
(150,-70,l)
);
}
);
width = 273;
},
{
layerId = "4F54520B-6C1D-43AE-845C-9A591DE39CE0";
shapes = (
{
closed = 1;
nodes = (
(163,-70,l),
(195,-70,o),
(245,-102,o),
(245,-138,q),
(245,-182,o),
(170,-225,o),
(124,-225,q),
(81,-225,o),
(37,-204,q),
(51,-161,l),
(79,-172,o),
(103,-172,q),
(125,-172,o),
(166,-151,o),
(166,-129,q),
(166,-114,o),
(145,-99,o),
(126,-99,q),
(113,-99,o),
(92,-107,q),
(73,-92,l),
(135,0,l),
(201,0,l),
(159,-70,l)
);
}
);
width = 290;
},
{
layerId = "35043653-3C0A-484D-8455-0CC3777AD120";
shapes = (
{
closed = 1;
nodes = (
(214,-68,l),
(250,-68,o),
(306,-111,o),
(306,-150,q),
(306,-200,o),
(229,-246,o),
(180,-246,q),
(126,-246,o),
(72,-220,q),
(98,-164,l),
(134,-180,o),
(170,-180,q),
(189,-180,o),
(223,-165,o),
(223,-151,q),
(223,-139,o),
(202,-126,o),
(184,-126,q),
(162,-126,o),
(139,-136,q),
(108,-110,l),
(178,0,l),
(248,0,l),
(206,-68,l)
);
}
);
width = 372;
}
);
note = cedilla;
unicode = 184;
},
{
glyphname = uni00B9;
layers = (
{
layerId = m01;
shapes = (
{
closed = 1;
nodes = (
(80,619,l),
(57,586,o),
(23,562,q),
(23,631,l),
(32,638,o),
(48,654,o),
(56,661,q),
(79,687,o),
(94,714,q),
(148,714,l),
(148,286,l),
(80,286,l)
);
}
);
width = 219;
},
{
layerId = "4F54520B-6C1D-43AE-845C-9A591DE39CE0";
shapes = (
{
closed = 1;
nodes = (
(85,617,l),
(61,589,o),
(27,569,q),
(27,643,l),
(37,651,o),
(47,660,o),
(58,668,q),
(85,691,o),
(103,713,q),
(163,713,l),
(163,286,l),
(85,286,l)
);
}
);
width = 240;
},
{
layerId = "35043653-3C0A-484D-8455-0CC3777AD120";
shapes = (
{
closed = 1;
nodes = (
(112,604,l),
(80,603,o),
(47,602,q),
(47,704,l),
(56,704,o),
(64,705,o),
(73,705,q),
(112,706,o),
(150,706,q),
(240,708,l),
(240,285,l),
(112,285,l)
);
}
);
width = 347;
}
);
note = uni00B9;
unicode = 185;
},
{
glyphname = ordmasculine;
layers = (
{
layerId = m01;
shapes = (
{
closed = 1;
nodes = (
(20,613,o),
(59,682,o),
(127,723,o),
(169,723,qs),
(210,723,o),
(278,682,o),
(316,614,o),
(316,576,qs),
(316,535,o),
(277,464,o),
(208,423,o),
(167,423,qs),
(127,423,o),
(59,463,o),
(20,531,o),
(20,572,qs)
);
},
{
closed = 1;
nodes = (
(312,356,l),
(312,304,l),
(24,304,l),
(24,356,l)
);
},
{
closed = 1;
nodes = (
(262,617,o),
(209,673,o),
(167,673,qs),
(126,673,o),
(74,616,o),
(74,576,qs),
(74,533,o),
(127,476,o),
(169,476,qs),
(211,473,o),
(262,529,o),
(262,572,qs)
);
}
);
width = 336;
},
{
layerId = "4F54520B-6C1D-43AE-845C-9A591DE39CE0";
shapes = (
{
closed = 1;
nodes = (
(23,612.635,o),
(60,682,o),
(129.236,723,o),
(172,723,q),
(213.558,723,o),
(282.483,682,o),
(321,614,o),
(321,575.038,q),
(321,533,o),
(281,463,o),
(212,422,o),
(169.988,422,q),
(129,422,o),
(61,462,o),
(21,531,o),
(23,571.418,q)
);
},
{
closed = 1;
nodes = (
(309,354.924,l),
(309,302,l),
(27,302,l),
(21,354.924,l)
);
},
{
closed = 1;
nodes = (
(265,613.366,o),
(212,667,o),
(170,667,q),
(130,667,o),
(83,612.938,o),
(83,575,q),
(83,533.29,o),
(133,478,o),
(172.5,478,q),
(212,478,o),
(259,531,o),
(265,570.268,q)
);
}
);
width = 342;
},
{
layerId = "35043653-3C0A-484D-8455-0CC3777AD120";
shapes = (
{
closed = 1;
nodes = (
(23,611.086,o),
(66.009,681.914,o),
(141,724,o),
(186,724,q),
(232,724,o),
(305,683,o),
(347,612,o),
(347,570,q),
(347,528.196,o),
(304.75,455.804,o),
(230,414,o),
(184,414,q),
(140.667,414,o),
(67,454,o),
(23,525,o),
(23,569,q)
);
},
{
closed = 1;
nodes = (
(329,366,l),
(329,289,l),
(27.192,289,l),
(41,366,l)
);
},
{
closed = 1;
nodes = (
(245,597,o),
(211,635,o),
(184.244,635,q),
(158.126,635,o),
(125,598,o),
(125,570,q),
(125,542,o),
(160,503,o),
(186.5,503,q),
(213,503,o),
(245,542,o),
(245,559.326,q)
);
}
);
width = 370;
}
);
note = ordmasculine;
unicode = 186;
},
{
glyphname = guillemotright;
layers = (
{
layerId = m01;
shapes = (
{
closed = 1;
nodes = (
(51,437,l),
(120,461,l),
(272,250,l),
(120,43,l),
(53,72,l),
(181,253,l)
);
},
{
closed = 1;
nodes = (
(259,437,l),
(328,461,l),
(480,250,l),
(328,43,l),
(261,72,l),
(389,253,l)
);
}
);
width = 534;
},
{
layerId = "4F54520B-6C1D-43AE-845C-9A591DE39CE0";
shapes = (
{
closed = 1;
nodes = (
(49,437,l),
(130,468,l),
(285,253,l),
(130,42,l),
(50,76,l),
(179,256,l)
);
},
{
closed = 1;
nodes = (
(268,437,l),
(349,468,l),
(505,253,l),
(349,42,l),
(270,76,l),
(398,256,l)
);
}
);
width = 555;
},
{
layerId = "35043653-3C0A-484D-8455-0CC3777AD120";
shapes = (
{
closed = 1;
nodes = (
(36,439,l),
(177,500,l),
(351,268,l),
(178,37,l),
(36,98,l),
(166,268,l)
);
},
{
closed = 1;
nodes = (
(312,439,l),
(453,500,l),
(627,268,l),
(454,37,l),
(312,98,l),
(442,268,l)
);
}
);
width = 659;
}
);
note = guillemotright;
unicode = 187;
},
{
glyphname = questiondown;
layers = (
{
layerId = m01;
shapes = (
{
closed = 1;
nodes = (
(386,-125,l),
(362,-156,o),
(279,-193,o),
(229,-193,qs),
(176,-193,o),
(96,-151,o),
(52,-76,o),
(52,-27,qs),
(52,9,o),
(75,73,o),
(115,126,o),
(142,150,qs),
(183,185,o),
(216,250,o),
(216,302,qs),
(216,334,l),
(298,334,l),
(298,272,ls),
(298,215,o),
(249,137,o),
(204,95,qs),
(168,61,o),
(134,12,o),
(134,-20,qs),
(134,-59,o),
(189,-117,o),
(239,-117,qs),
(285,-117,o),
(357,-70,o),
(386,-28,q)
);
},
{
closed = 1;
nodes = (
(227,415,o),
(191,451,o),
(191,474,qs),
(191,500,o),
(226,533,o),
(252,533,qs),
(277,533,o),
(312,500,o),
(312,474,qs),
(312,450,o),
(276,415,o),
(252,415,qs)
);
}
);
width = 437;
},
{
layerId = "4F54520B-6C1D-43AE-845C-9A591DE39CE0";
shapes = (
{
closed = 1;
nodes = (
(403,-120,l),
(376,-154,o),
(289,-193,o),
(236,-193,q),
(181,-193,o),
(97,-150,o),
(50,-71,o),
(50,-20,q),
(50,17,o),
(74,81,o),
(114,133,o),
(143,157,q),
(182,190,o),
(212,248,o),
(212,297,q),
(212,329,l),
(310,329,l),
(310,270,l),
(310,213,o),
(260,134,o),
(217,96,q),
(184,66,o),
(150,17,o),
(150,-13,q),
(150,-49,o),
(205,-102,o),
(251,-102,q),
(296,-102,o),
(373,-54,o),
(403,-13,q)
);
},
{
closed = 1;
nodes = (
(227,402,o),
(187,440,o),
(187,468,q),
(187,497,o),
(226,533,o),
(256,533,q),
(284,533,o),
(324,497,o),
(324,468,q),
(324,440,o),
(284,402,o),
(256,402,q)
);
}
);
width = 452;
},
{
layerId = "35043653-3C0A-484D-8455-0CC3777AD120";
shapes = (
{
closed = 1;
nodes = (
(487,-94,l),
(449,-143,o),
(339,-190,o),
(273,-190,q),
(210,-190,o),
(102,-142,o),
(37,-50,o),
(37,13,q),
(37,56,o),
(65,118,o),
(109,162,o),
(150,194,q),
(177,214,o),
(194,243,o),
(194,270,q),
(194,301,l),
(368,301,l),
(368,258,l),
(368,204,o),
(322,134,o),
(281,102,q),
(258,85,o),
(228,45,o),
(228,25,q),
(228,-1,o),
(276,-28,o),
(308,-28,q),
(354,-28,o),
(444,24,o),
(487,64,q)
);
},
{
closed = 1;
nodes = (
(227,339,o),
(166,389,o),
(166,435,q),
(166,481,o),
(227,532,o),
(274,532,q),
(321,532,o),
(381,481,o),
(381,435,q),
(381,389,o),
(321,339,o),
(274,339,q)
);
}
);
width = 524;
}
);
note = questiondown;
unicode = 191;
},
{
glyphname = AE;
layers = (
{
layerId = m01;
shapes = (
{
closed = 1;
nodes = (
(915,705,l),
(915,629,l),
(541,629,l),
(541,397,l),
(886,397,l),
(886,321,l),
(541,321,l),
(541,76,l),
(926,76,l),
(926,0,l),
(455,0,l),
(455,197,l),
(206,197,l),
(86,0,l),
(-5,0,l),
(430,705,l)
);
},
{
closed = 1;
nodes = (
(455,602,l),
(252,272,l),
(455,272,l)
);
}
);
width = 926;
},
{
layerId = "4F54520B-6C1D-43AE-845C-9A591DE39CE0";
shapes = (
{
closed = 1;
nodes = (
(931,704,l),
(931,613,l),
(557,613,l),
(557,402,l),
(901,402,l),
(901,314,l),
(557,314,l),
(557,91,l),
(941,91,l),
(941,0,l),
(453,0,l),
(453,185,l),
(214,185,l),
(104,0,l),
(-6,0,l),
(407,704,l)
);
},
{
closed = 1;
nodes = (
(453,599,l),
(262,273,l),
(453,270.645,l)
);
}
);
width = 940;
},
{
layerId = "35043653-3C0A-484D-8455-0CC3777AD120";
shapes = (
{
closed = 1;
nodes = (
(1010,700,l),
(1010,535,l),
(637,535,l),
(637,429,l),
(975,429,l),
(975,276,l),
(637,276,l),
(637,165,l),
(1015,165,l),
(1015,0,l),
(445,0,l),
(445,125,l),
(255,125,l),
(196,0,l),
(-8,0,l),
(290,700,l)
);
},
{
closed = 1;
nodes = (
(445,582,l),
(312,276,l),
(445,262.963,l)
);
}
);
width = 1007;
}
);
note = AE;
unicode = 198;
},
{
glyphname = Eth;
layers = (
{
layerId = m01;
shapes = (
{
closed = 1;
nodes = (
(333,705,ls),
(440,705,o),
(611,617,o),
(709,457,o),
(709,353,qs),
(709,250,o),
(615,90,o),
(444,0,o),
(332,0,qs),
(112,0,l),
(112,705,l)
);
},
{
closed = 1;
nodes = (
(328,76,ls),
(420,76,o),
(551,146,o),
(619,270,o),
(619,351,qs),
(619,419,o),
(562,547,o),
(451,628,o),
(376,628,qs),
(197,628,l),
(197,76,l)
);
},
{
closed = 1;
nodes = (
(16,319,l),
(16,396,l),
(287,396,l),
(287,319,l)
);
}
);
width = 761;
},
{
layerId = "4F54520B-6C1D-43AE-845C-9A591DE39CE0";
shapes = (
{
closed = 1;
nodes = (
(336,704,l),
(444.54,704,o),
(618,617,o),
(715,457,o),
(715,353,q),
(715,250,o),
(620.645,90,o),
(449,0,o),
(335,0,q),
(107,0,l),
(125,704,l)
);
},
{
closed = 1;
nodes = (
(326.228,92,l),
(418,92,o),
(542,157,o),
(607,275,o),
(607,351,q),
(607,417,o),
(551,536,o),
(444.177,611,o),
(372,611,q),
(210,611,l),
(195.552,92,l)
);
},
{
closed = 1;
nodes = (
(15,307,l),
(15,399,l),
(285.552,399,l),
(295,307,l)
);
}
);
width = 765;
},
{
layerId = "35043653-3C0A-484D-8455-0CC3777AD120";
shapes = (
{
closed = 1;
nodes = (
(351,700,l),
(474,700,o),
(652,613,o),
(746,456,o),
(746,354,q),
(746,252,o),
(651,92,o),
(470,0,o),
(347,0,q),
(81,0,l),
(81,700,l)
);
},
{
closed = 1;
nodes = (
(354,172,l),
(412,172,o),
(499,215,o),
(547,295,o),
(547,351,q),
(547,406,o),
(499,486,o),
(412,528,o),
(354,528,q),
(275,528,l),
(275,172,l)
);
},
{
closed = 1;
nodes = (
(7,249,l),
(7,416,l),
(335,416,l),
(335,249,l)
);
}
);
width = 784;
}
);
note = Eth;
unicode = 208;
},
{
glyphname = multiply;
layers = (
{
layerId = m01;
shapes = (
{
closed = 1;
nodes = (
(87,533,l),
(136,583,l),
(319,399,l),
(501,583,l),
(551,533,l),
(369,351,l),
(551,168,l),
(501,117,l),
(319,301,l),
(136,117,l),
(86,167,l),
(270,351,l)
);
}
);
width = 638;
},
{
layerId = "4F54520B-6C1D-43AE-845C-9A591DE39CE0";
shapes = (
{
closed = 1;
nodes = (
(88,528,l),
(146,588,l),
(324,408,l),
(502,588,l),
(561,528,l),
(384,351,l),
(561,173,l),
(502,113,l),
(324,292,l),
(146,113,l),
(87,172,l),
(266,351,l)
);
}
);
width = 648;
},
{
layerId = "35043653-3C0A-484D-8455-0CC3777AD120";
shapes = (
{
closed = 1;
nodes = (
(90,505,l),
(196,610,l),
(351,455,l),
(505,610,l),
(610,505,l),
(456,350,l),
(610,195,l),
(505,90,l),
(351,245,l),
(196,90,l),
(90,195,l),
(246,350,l)
);
}
);
width = 700;
}
);
note = multiply;
unicode = 215;
},
{
glyphname = Oslash;
layers = (
{
layerId = m01;
shapes = (
{
closed = 1;
nodes = (
(136,112,l),
(94,160,o),
(51,282,o),
(51,351,qs),
(51,452,o),
(146,621,o),
(315,719,o),
(419,719,qs),
(550,719,o),
(653,635,q),
(732,719,l),
(775,676,l),
(694,594,l),
(736,546,o),
(782,422,o),
(782,354,qs),
(782,253,o),
(687,85,o),
(520,-14,o),
(417,-14,qs),
(281,-14,o),
(178,71,q),
(102,-6,l),
(61,36,l)
);
},
{
closed = 1;
nodes = (
(595,577,l),
(558,608,o),
(467,642,o),
(418,642,qs),
(337,642,o),
(209,565,o),
(138,434,o),
(138,354,qs),
(138,301,o),
(167,210,o),
(195,172,q)
);
},
{
closed = 1;
nodes = (
(235,129,l),
(271,96,o),
(367,63,o),
(418,63,qs),
(498,63,o),
(624,140,o),
(695,271,o),
(695,350,qs),
(695,456,o),
(635,534,q)
);
}
);
width = 833;
},
{
layerId = "4F54520B-6C1D-43AE-845C-9A591DE39CE0";
shapes = (
{
closed = 1;
nodes = (
(146,101,l),
(98,150,o),
(48,277,o),
(48,351,q),
(48,452,o),
(144,620,o),
(313,718,o),
(417,718,q),
(535,718,o),
(629,646,q),
(703,730,l),
(759,684,l),
(684,603,l),
(732,554,o),
(783,427,o),
(783,354,q),
(783,253,o),
(688,85,o),
(520,-14,o),
(416,-14,q),
(293,-14,o),
(202,58,q),
(129,-26,l),
(75,21,l)
);
},
{
closed = 1;
nodes = (
(567,571,l),
(532,598,o),
(452,624,o),
(407,624,q),
(334,624,o),
(219,551,o),
(154,427,o),
(154,354,q),
(154,304,o),
(182,216,o),
(209,180,q)
);
},
{
closed = 1;
nodes = (
(263,134,l),
(301,106,o),
(379,81,o),
(427,81,q),
(500,81,o),
(614,154,o),
(677,277,o),
(677,350,q),
(677,448,o),
(621,523,q)
);
}
);
width = 831;
},
{
layerId = "35043653-3C0A-484D-8455-0CC3777AD120";
shapes = (
{
closed = 1;
nodes = (
(195,47,l),
(118,99,o),
(32,256,o),
(32,350,q),
(32,449,o),
(131,616,o),
(303,714,o),
(409,714,q),
(460,714,o),
(508,702,q),
(554,798,l),
(679,739,l),
(634,645,l),
(707,594,o),
(786,442,o),
(786,352,q),
(786,253,o),
(687,85,o),
(513,-14,o),
(408,-14,q),
(372,-14,o),
(323,-5,q),
(265,-128,l),
(139,-69,l)
);
},
{
closed = 1;
nodes = (
(429,538,l),
(424,539,o),
(413,539,o),
(408,539,q),
(357,539,o),
(276,489,o),
(231,404,o),
(231,352,q),
(231,313,o),
(253,250,o),
(278,221,q)
);
},
{
closed = 1;
nodes = (
(403,161,l),
(405,161,o),
(407,161,o),
(409,161,q),
(460,161,o),
(542,212,o),
(587,298,o),
(587,350,q),
(587,415,o),
(549,467,q)
);
}
);
width = 818;
}
);
note = Oslash;
unicode = 216;
},
{
glyphname = Thorn;
layers = (
{
layerId = m01;
shapes = (
{
closed = 1;
nodes = (
(159,706,l),
(159,575,l),
(196,575,ls),
(310,575,o),
(451,485,o),
(451,376,qs),
(451,275,o),
(320,178,o),
(216,178,qs),
(159,178,l),
(159,0,l),
(80,0,l),
(80,706,l)
);
},
{
closed = 1;
nodes = (
(211,251,ls),
(285,251,o),
(372,308,o),
(372,378,qs),
(372,432,o),
(322,487,o),
(245,502,o),
(188,502,qs),
(159,502,l),
(159,251,l)
);
}
);
width = 481;
},
{
layerId = "4F54520B-6C1D-43AE-845C-9A591DE39CE0";
shapes = (
{
closed = 1;
nodes = (
(174,706,l),
(174,580,l),
(216,580,l),
(330.894,580,o),
(473,485,o),
(473,373.924,q),
(473,271,o),
(343,171,o),
(238,171,q),
(174,171,l),
(174,0,l),
(76,0,l),
(95,706,l)
);
},
{
closed = 1;
nodes = (
(222,256,l),
(293,256,o),
(375,309.858,o),
(375,376,q),
(375,426.532,o),
(328,478,o),
(256.172,493,o),
(203,493,q),
(174,493,l),
(164.046,256,l)
);
}
);
width = 501;
},
{
layerId = "35043653-3C0A-484D-8455-0CC3777AD120";
shapes = (
{
closed = 1;
nodes = (
(250,706,l),
(250,603,l),
(314,603,l),
(437,603,o),
(580,484,o),
(580,363,q),
(580,254,o),
(459,135,o),
(350,135,q),
(250,135,l),
(250,0,l),
(58,0,l),
(58,706,l)
);
},
{
closed = 1;
nodes = (
(277,281,l),
(331,281,o),
(387,316,o),
(387,368,q),
(387,402,o),
(358,438,o),
(310,449,o),
(275,449,q),
(250,449,l),
(250,281,l)
);
}
);
width = 603;
}
);
note = Thorn;
unicode = 222;
},
{
glyphname = germandbls;
layers = (
{
layerId = m01;
shapes = (
{
closed = 1;
nodes = (
(92,0,l),
(12,0,l),
(12,520,ls),
(12,585,o),
(60,690,o),
(160,753,o),
(235,753,qs),
(293,753,o),
(385,707,o),
(437,625,o),
(437,572,qs),
(437,511,o),
(371,424,o),
(314,399,q),
(387,386,o),
(484,284,o),
(484,209,qs),
(484,140,o),
(411,45,o),
(283,-3,o),
(201,-3,q),
(201,62,l),
(293,62,o),
(401,134,o),
(401,209,qs),
(401,280,o),
(305,347,o),
(211,360,q),
(211,422,l),
(282,448,o),
(354,509,o),
(354,564,qs),
(354,618,o),
(286,680,o),
(231,680,qs),
(162,680,o),
(92,585,o),
(92,519,qs)
);
}
);
width = 519;
},
{
layerId = "4F54520B-6C1D-43AE-845C-9A591DE39CE0";
shapes = (
{
closed = 1;
nodes = (
(109,0,l),
(11,0,l),
(11,513,l),
(11,580,o),
(61,688,o),
(165,751,o),
(242,751,q),
(303,751,o),
(399,704,o),
(452,619,o),
(452,565,q),
(452,504,o),
(387,418,o),
(332,393,q),
(401,380,o),
(497,280,o),
(497,207,q),
(497,137,o),
(421,42,o),
(291,-5,o),
(211,-3,q),
(211,74,l),
(296,74,o),
(397,142,o),
(397,210,q),
(397,275,o),
(308,337,o),
(220,350,q),
(220,418,l),
(286,444,o),
(353,502,o),
(353,554,q),
(353,605,o),
(290,663,o),
(239,663,q),
(175,663,o),
(109,576,o),
(109,513,q)
);
}
);
width = 531;
},
{
layerId = "35043653-3C0A-484D-8455-0CC3777AD120";
shapes = (
{
closed = 1;
nodes = (
(196,0,l),
(7,0,l),
(7,479,l),
(7,558,o),
(70,675,o),
(192,739,o),
(279,739,q),
(354,739,o),
(468,684,o),
(529,588,o),
(529,530,q),
(529,470,o),
(472,387,o),
(424,364,q),
(483,346,o),
(564,260,o),
(564,194,q),
(564,121,o),
(471,27,o),
(332,-10,o),
(263,-3,q),
(263,133,l),
(314,135,o),
(375,178,o),
(375,214,q),
(375,250,o),
(315,293,o),
(263,297,q),
(263,398,l),
(299,415,o),
(345,470,o),
(345,505,q),
(345,540,o),
(307,580,o),
(276,580,q),
(241,580,o),
(196,529,o),
(196,483,q)
);
}
);
width = 593;
}
);
note = germandbls;
unicode = 223;
},
{
glyphname = ae;
layers = (
{
layerId = m01;
shapes = (
{
closed = 1;
nodes = (
(818,44,l),
(786,19,o),
(700,-11,o),
(648,-11,qs),
(589,-11,o),
(488,35,o),
(453,80,q),
(409,35,o),
(296,-11,o),
(231,-11,qs),
(178,-11,o),
(86,34,o),
(31,117,o),
(31,171,qs),
(31,230,o),
(92,302,o),
(187,333,o),
(242,333,qs),
(287,333,o),
(363,317,o),
(394,299,q),
(394,318,ls),
(394,372,o),
(317,422,o),
(250,422,qs),
(199,422,o),
(104,397,o),
(63,372,q),
(63,450,l),
(158,492,o),
(253,492,qs),
(313,492,o),
(419,447,o),
(449,402,q),
(479,446,o),
(571,495,o),
(629,495,qs),
(695,495,o),
(795,434,o),
(854,330,o),
(862,266,q),
(487,175,l),
(505,122,o),
(589,59,o),
(653,59,qs),
(700,59,o),
(782,96,o),
(818,132,q)
);
},
{
closed = 1;
nodes = (
(394,228,l),
(364,245,o),
(298,266,o),
(254,266,qs),
(198,266,o),
(113,214,o),
(113,161,qs),
(113,110,o),
(191,57,o),
(249,57,qs),
(340,57,o),
(394,122,q)
);
},
{
closed = 1;
nodes = (
(779,316,l),
(766,364,o),
(687,425,o),
(632,425,qs),
(585,425,o),
(515,376,o),
(478,294,o),
(478,247,q)
);
}
);
width = 895;
},
{
layerId = "4F54520B-6C1D-43AE-845C-9A591DE39CE0";
shapes = (
{
closed = 1;
nodes = (
(828,44,l),
(794,18,o),
(708,-12,o),
(658,-12,q),
(597,-12,o),
(493,30,o),
(457,75,q),
(415,33,o),
(298,-11,o),
(235,-11,q),
(181,-11,o),
(88,30,o),
(31,110,o),
(31,165,q),
(31,221,o),
(91,297,o),
(187,332,o),
(241,332,q),
(286,332,o),
(360,317,o),
(390,300,q),
(390,318,l),
(390,371,o),
(315,419,o),
(248,419,q),
(199,419,o),
(104,395,o),
(65,372,q),
(65,460,l),
(161,501,o),
(253,501,q),
(311,501,o),
(426,458,o),
(456,417,q),
(487,458,o),
(578,504,o),
(635,504,q),
(704,504,o),
(807,439,o),
(867,329,o),
(874,262,q),
(502,171,l),
(520,124,o),
(597,69,o),
(655,69,q),
(703,69,o),
(793,107,o),
(828,142,q)
);
},
{
closed = 1;
nodes = (
(390,227,l),
(362,242,o),
(301,261,o),
(262,261,q),
(208,261,o),
(129,211,o),
(129,163,q),
(129,115,o),
(201,65,o),
(255,65,q),
(338,65,o),
(390,125,q)
);
},
{
closed = 1;
nodes = (
(774,317,l),
(761,364,o),
(688,422,o),
(636,422,q),
(591,422,o),
(526,374,o),
(492,296,o),
(492,251,q)
);
}
);
width = 906;
},
{
layerId = "35043653-3C0A-484D-8455-0CC3777AD120";
shapes = (
{
closed = 1;
nodes = (
(879,42,l),
(833,13,o),
(721,-17,o),
(664,-17,q),
(608,-17,o),
(514,17,o),
(477,48,q),
(421,15,o),
(310,-12,o),
(241,-12,q),
(183,-12,o),
(84,28,o),
(26,105,o),
(26,157,q),
(26,216,o),
(83,292,o),
(179,327,o),
(238,327,q),
(275,327,o),
(345,315,o),
(370,306,q),
(370,315,l),
(370,362,o),
(305,404,o),
(237,404,q),
(196,404,o),
(116,390,o),
(73,373,q),
(73,507,l),
(176,549,o),
(287,549,q),
(356,549,o),
(456,520,o),
(488,491,q),
(524,519,o),
(613,548,o),
(664,548,q),
(749,548,o),
(870,463,o),
(932,323,o),
(932,240,q),
(577,148,l),
(594,134,o),
(639,121,o),
(667,121,q),
(721,121,o),
(844,159,o),
(879,190,q)
);
},
{
closed = 1;
nodes = (
(370,221,l),
(357,227,o),
(319,235,o),
(299,235,q),
(258,235,o),
(211,198,o),
(211,170,q),
(211,143,o),
(253,107,o),
(283,107,q),
(332,107,o),
(370,139,q)
);
},
{
closed = 1;
nodes = (
(746,319,l),
(737,361,o),
(688,407,o),
(653,407,q),
(620,407,o),
(577,366,o),
(559,304,o),
(562,272,q)
);
}
);
width = 962;
}
);
note = ae;
unicode = 230;
},
{
glyphname = eth;
layers = (
{
layerId = m01;
shapes = (
{
closed = 1;
nodes = (
(131,778,l),
(184,745,o),
(230,713,o),
(260,686,q),
(389,772,l),
(426,734,l),
(301,650,l),
(306,645,ls),
(350,601,o),
(429,500,o),
(496,338,o),
(496,240,qs),
(496,157,o),
(427,44,o),
(321,-11,o),
(266,-11,qs),
(203,-11,o),
(97,51,o),
(35,157,o),
(35,220,qs),
(35,279,o),
(92,385,o),
(194,450,o),
(259,450,qs),
(311,450,o),
(381,414,o),
(403,392,qs),
(405,390,l),
(383,452,o),
(303,561,o),
(246,614,q),
(122,531,l),
(85,569,l),
(207,651,l),
(179,676,o),
(127,711,qs),
(90,735,l)
);
},
{
closed = 1;
nodes = (
(312,58,o),
(383,102,o),
(422,177,o),
(422,221,qs),
(422,264,o),
(383,339,o),
(313,384,o),
(268,384,qs),
(223,384,o),
(151,341,o),
(111,267,o),
(111,221,qs),
(111,177,o),
(151,102,o),
(222,58,o),
(267,58,qs)
);
}
);
width = 531;
},
{
layerId = "4F54520B-6C1D-43AE-845C-9A591DE39CE0";
shapes = (
{
closed = 1;
nodes = (
(147,780,l),
(190,754,o),
(239,719,o),
(271,691,q),
(397,773,l),
(437,732,l),
(315,652,l),
(321,646,l),
(366,600,o),
(446,494,o),
(509,338,o),
(509,245,q),
(509,160,o),
(438,44,o),
(329,-11,o),
(272,-11,q),
(208,-11,o),
(99,50,o),
(34,157,o),
(34,223,q),
(34,285,o),
(93,392,o),
(197,456,o),
(261,456,q),
(308,456,o),
(369,426,o),
(394,405,q),
(396,403,l),
(374,460,o),
(299,560,o),
(247,609,q),
(125,529,l),
(84,571,l),
(204,649,l),
(177,674,o),
(126,709,q),
(92,731,l)
);
},
{
closed = 1;
nodes = (
(311,87,o),
(370,124,o),
(403,187,o),
(403,225,q),
(403,262,o),
(370,324,o),
(310,361,o),
(272,361,q),
(236,361,o),
(176,325,o),
(142,264,o),
(142,226,q),
(142,188,o),
(176,124,o),
(236,87,o),
(274,87,q)
);
}
);
width = 543;
},
{
layerId = "35043653-3C0A-484D-8455-0CC3777AD120";
shapes = (
{
closed = 1;
nodes = (
(224,787,l),
(249,772,o),
(294,739,o),
(323,714,q),
(437,780,l),
(493,722,l),
(385,659,l),
(398,647,l),
(456,591,o),
(534,470,o),
(573,338,o),
(573,268,q),
(573,171,o),
(492,44,o),
(368,-13,o),
(301,-13,q),
(232,-13,o),
(108,44,o),
(30,158,o),
(30,239,q),
(30,314,o),
(97,424,o),
(208,483,o),
(272,483,q),
(296,483,o),
(329,477,o),
(348,471,q),
(350,470,l),
(329,503,o),
(283,558,o),
(254,586,q),
(137,519,l),
(80,578,l),
(191,640,l),
(172,657,o),
(121,695,q),
(103,708,l)
);
},
{
closed = 1;
nodes = (
(214,212,o),
(237,167,o),
(277,140,o),
(302,140,q),
(327,140,o),
(367,167,o),
(390,212,o),
(390,238,q),
(390,264,o),
(368,310,o),
(328,339,o),
(302,339,q),
(277,339,o),
(236,310,o),
(214,263,o),
(214,238,q)
);
}
);
width = 603;
}
);
note = eth;
unicode = 240;
},
{
glyphname = divide;
layers = (
{
layerId = m01;
shapes = (
{
closed = 1;
nodes = (
(47,314,l),
(47,386,l),
(559,386,l),
(559,314,l)
);
},
{
closed = 1;
nodes = (
(275,457,o),
(244,489,o),
(244,513,qs),
(244,537,o),
(276,571,o),
(301,571,qs),
(327,571,o),
(360,537,o),
(360,513,qs),
(360,489,o),
(325,457,o),
(301,457,qs)
);
},
{
closed = 1;
nodes = (
(276,136,o),
(244,170,o),
(244,194,qs),
(244,219,o),
(275,250,o),
(301,250,qs),
(327,250,o),
(360,219,o),
(360,194,qs),
(360,169,o),
(327,136,o),
(301,136,qs)
);
}
);
width = 604;
},
{
layerId = "4F54520B-6C1D-43AE-845C-9A591DE39CE0";
shapes = (
{
closed = 1;
nodes = (
(57,317,l),
(57,389,l),
(565,389,l),
(569,317,l)
);
},
{
closed = 1;
nodes = (
(280.632,453,o),
(248,487,o),
(248,511.878,q),
(248,536.756,o),
(282,572,o),
(308.19,572,q),
(335.429,572,o),
(370,536.828,o),
(370,512,q),
(370,485,o),
(335,453,o),
(308,453,q)
);
},
{
closed = 1;
nodes = (
(281.684,135,o),
(248,170,o),
(248,195.2,q),
(248,221.45,o),
(280.867,254,o),
(308.434,254,q),
(336,254,o),
(370,221,o),
(370,195.096,q),
(370,169.193,o),
(334,135,o),
(308,135,q)
);
}
);
width = 618;
},
{
layerId = "35043653-3C0A-484D-8455-0CC3777AD120";
shapes = (
{
closed = 1;
nodes = (
(81,302,l),
(81,402,l),
(594,402,l),
(604,302,l)
);
},
{
closed = 1;
nodes = (
(311,432,o),
(268,474,o),
(268,504.146,q),
(268,534.293,o),
(311,577,o),
(342.548,577,q),
(375.357,577,o),
(417,534.207,o),
(417,504,q),
(417,473.143,o),
(374,432,o),
(343,432,q)
);
},
{
closed = 1;
nodes = (
(311,128,o),
(268,171.379,o),
(268,202,q),
(268,232,o),
(310,273,o),
(342.729,273,q),
(375.459,273,o),
(417,232,o),
(417,202,q),
(417,177,o),
(375.61,144,o),
(336,128,q)
);
}
);
width = 685;
}
);
note = divide;
unicode = 247;
},
{
glyphname = oslash;
layers = (
{
layerId = m01;
shapes = (
{
closed = 1;
nodes = (
(172,88,l),
(194,70,o),
(245,53,o),
(277,53,qs),
(329,53,o),
(408,101,o),
(452,185,o),
(452,236,qs),
(452,293,o),
(421,344,q)
);
},
{
closed = 1;
nodes = (
(386,382,l),
(344,418,o),
(280,418,qs),
(228,418,o),
(151,370,o),
(109,287,o),
(109,236,qs),
(109,201,o),
(122,149,o),
(139,127,q)
);
},
{
closed = 1;
nodes = (
(87,74,l),
(57,110,o),
(29,189,o),
(29,236,qs),
(29,305,o),
(93,418,o),
(207,483,o),
(279,483,qs),
(376,483,o),
(435,435,q),
(490,489,l),
(524,451,l),
(475,398,l),
(503,363,o),
(532,285,o),
(532,236,qs),
(532,166,o),
(467,53,o),
(351,-12,o),
(279,-12,qs),
(231,-12,o),
(157,13,o),
(125,39,q),
(57,-35,l),
(18,4,l)
);
}
);
width = 550;
},
{
layerId = "4F54520B-6C1D-43AE-845C-9A591DE39CE0";
shapes = (
{
closed = 1;
nodes = (
(194,98,l),
(215,83,o),
(259,68,o),
(288,68,q),
(337,68,o),
(413,114,o),
(454,193,o),
(454,242,q),
(454,296,o),
(427,340,q)
);
},
{
closed = 1;
nodes = (
(386,384,l),
(349,415,o),
(291,415,q),
(242,415,o),
(168,369,o),
(128,290,o),
(128,242,q),
(128,210,o),
(140,163,o),
(155,142,q)
);
},
{
closed = 1;
nodes = (
(91,76,l),
(61,112,o),
(32,194,o),
(32,242,q),
(32,312,o),
(98,428,o),
(216,495,o),
(290,495,q),
(387,495,o),
(445,448,q),
(504,509,l),
(546,467,l),
(492,407,l),
(520,372,o),
(551,291,o),
(551,242,q),
(551,171,o),
(483,55,o),
(364,-12,o),
(290,-12,q),
(243,-12,o),
(169,12,o),
(136,37,q),
(64,-41,l),
(20,3,l)
);
}
);
width = 573;
},
{
layerId = "35043653-3C0A-484D-8455-0CC3777AD120";
shapes = (
{
closed = 1;
nodes = (
(301,148,l),
(311,144,o),
(333,140,o),
(345,140,q),
(381,140,o),
(436,175,o),
(466,234,o),
(466,270,q),
(466,299,o),
(456,322,q)
);
},
{
closed = 1;
nodes = (
(388,391,l),
(371,400,o),
(343,400,q),
(307,400,o),
(252,365,o),
(222,306,o),
(222,270,q),
(222,255,o),
(227,230,o),
(232,218,q)
);
},
{
closed = 1;
nodes = (
(113,87,l),
(80,124,o),
(45,217,o),
(45,270,q),
(45,347,o),
(123,477,o),
(260,553,o),
(345,553,q),
(428,553,o),
(496,515,q),
(574,608,l),
(649,536,l),
(575,454,l),
(608,417,o),
(643,323,o),
(643,270,q),
(643,193,o),
(565,63,o),
(428,-13,o),
(343,-13,q),
(301,-13,o),
(225,7,o),
(191,25,q),
(103,-73,l),
(30,-5,l)
);
}
);
width = 687;
}
);
note = oslash;
unicode = 248;
},
{
glyphname = thorn;
layers = (
{
layerId = m01;
shapes = (
{
closed = 1;
nodes = (
(139,181,o),
(173,104,o),
(238,57,o),
(283,57,qs),
(349,57,o),
(430,151,o),
(430,224,qs),
(430,292,o),
(350,383,o),
(282,383,qs),
(240,383,o),
(175,339,o),
(139,267,o),
(139,225,qs)
);
},
{
closed = 1;
nodes = (
(142,772,l),
(142,566,ls),
(142,525,o),
(142,483,qs),
(142,430,o),
(142,377,q),
(144,377,l),
(172,414,o),
(250,452,o),
(296,452,qs),
(317,452,o),
(342,447,qs),
(391,435,o),
(466,369,o),
(507,273,o),
(507,219,qs),
(507,164,o),
(467,69,o),
(393,3,o),
(342,-7,qs),
(317,-12,o),
(295,-12,qs),
(250,-12,o),
(171,26,o),
(144,62,q),
(142,62,l),
(142,-12,l),
(142,-247,l),
(67,-247,l),
(67,772,l)
);
}
);
width = 541;
},
{
layerId = "4F54520B-6C1D-43AE-845C-9A591DE39CE0";
shapes = (
{
closed = 1;
nodes = (
(154,187,o),
(186,115,o),
(247,71,o),
(288,71,q),
(349,71,o),
(425,159,o),
(425,227,q),
(425,290,o),
(349,376,o),
(287,376,q),
(248,376,o),
(187,334,o),
(154,266,o),
(154,228,q)
);
},
{
closed = 1;
nodes = (
(158,773,l),
(158,567,l),
(158,525,o),
(158,483,q),
(157,450,o),
(157,384,q),
(159,384,l),
(185,418,o),
(258,456,o),
(302,458,q),
(332,458,o),
(347,455,q),
(399,446,o),
(478,378,o),
(520,278,o),
(520,223,q),
(520,167,o),
(478,68,o),
(400,1,o),
(347,-8,q),
(325,-12,o),
(302,-11,q),
(259,-10,o),
(185,27,o),
(160,61,q),
(157,61,l),
(158,-13,l),
(158,-243,l),
(65,-243,l),
(65,773,l)
);
}
);
width = 553;
},
{
layerId = "35043653-3C0A-484D-8455-0CC3777AD120";
shapes = (
{
closed = 1;
nodes = (
(226,214,o),
(247,168,o),
(286,140,o),
(311,140,q),
(348,140,o),
(397,201,o),
(397,241,q),
(397,279,o),
(349,339,o),
(311,339,q),
(286,339,o),
(247,310,o),
(226,264,o),
(226,240,q)
);
},
{
closed = 1;
nodes = (
(238,776,l),
(238,571,l),
(235,542,o),
(235,480,q),
(234,449,o),
(232,418,q),
(232,418,l),
(248,437,o),
(300,475,o),
(330,485,q),
(356,492,o),
(374,492,q),
(439,492,o),
(534,421,o),
(583,306,o),
(583,243,q),
(583,180,o),
(533,62,o),
(437,-13,o),
(372,-13,q),
(357,-13,o),
(335,-8,q),
(305,-1,o),
(251,33,o),
(237,55,q),
(233,55,l),
(238,-20,l),
(238,-225,l),
(52,-225,l),
(52,776,l)
);
}
);
width = 612;
}
);
note = thorn;
unicode = 254;
},
{
glyphname = dcroat;
layers = (
{
layerId = m01;
shapes = (
{
closed = 1;
nodes = (
(446,77,l),
(410,34,o),
(330,-10,o),
(274,-10,qs),
(208,-10,o),
(99,52,o),
(35,167,o),
(35,241,qs),
(35,315,o),
(99,431,o),
(207,494,o),
(271,494,qs),
(331,494,o),
(425,444,o),
(456,398,q),
(456,732,l),
(538,732,l),
(538,1,l)
);
},
{
closed = 1;
nodes = (
(331,60,o),
(412,107,o),
(459,191,o),
(459,242,qs),
(459,293,o),
(410,376,o),
(330,424,o),
(284,424,qs),
(238,424,o),
(162,378,o),
(118,295,o),
(118,242,qs),
(118,193,o),
(158,110,o),
(234,60,o),
(284,60,qs)
);
},
{
closed = 1;
nodes = (
(317,584,l),
(317,661,l),
(588,661,l),
(588,584,l)
);
}
);
width = 583;
},
{
layerId = "4F54520B-6C1D-43AE-845C-9A591DE39CE0";
shapes = (
{
closed = 1;
nodes = (
(444,76,l),
(408,34,o),
(329,-10,o),
(273,-10,q),
(207,-10,o),
(98,53,o),
(34,170.427,o),
(34,245.989,q),
(34,321.551,o),
(98,440,o),
(206.628,504,o),
(271,504,q),
(330,504,o),
(421,455,o),
(452,411,q),
(452,732,l),
(546.424,732,l),
(552,-1,l)
);
},
{
closed = 1;
nodes = (
(336,75,o),
(411.305,119.13,o),
(455,198,o),
(455,246.519,q),
(455,295.038,o),
(410,374,o),
(334,419,o),
(291.5,419,q),
(249,419,o),
(176.8,375.589,o),
(135,297.26,o),
(135,247.242,q),
(135,201,o),
(173,123,o),
(244,75,o),
(291,75,q)
);
},
{
closed = 1;
nodes = (
(324,577,l),
(324,669,l),
(595,669,l),
(604,577,l)
);
}
);
width = 599;
},
{
layerId = "35043653-3C0A-484D-8455-0CC3777AD120";
shapes = (
{
closed = 1;
nodes = (
(434,72,l),
(402,33,o),
(325,-12,o),
(269.918,-12,q),
(205,-12,o),
(94.74,57.006,o),
(30,185,o),
(30,270,q),
(30,355,o),
(95,484,o),
(204.256,553,o),
(269,553,q),
(325,553,o),
(402,511,o),
(434,475,q),
(434,730,l),
(589.303,730,l),
(624,-12,l)
);
},
{
closed = 1;
nodes = (
(363.663,131,o),
(408,178,o),
(437,235,o),
(437,272,q),
(437,306.634,o),
(408,363,o),
(357,394,o),
(326.881,394,q),
(296.762,394,o),
(247,363,o),
(217,306.243,o),
(217,270,q),
(217,239,o),
(245,182,o),
(295,147,o),
(323,131,q)
);
},
{
closed = 1;
nodes = (
(356,542,l),
(356,709,l),
(627,709,l),
(684,542,l)
);
}
);
width = 681;
}
);
note = dcroat;
unicode = 273;
},
{
glyphname = kgreenlandic;
layers = (
{
layerId = m01;
shapes = (
{
closed = 1;
nodes = (
(333,482,l),
(438,482,l),
(219,254,l),
(447,0,l),
(346,0,l),
(149,216,l),
(149,0,l),
(67,0,l),
(67,482,l),
(149,482,l),
(149,281,l)
);
}
);
width = 454;
},
{
layerId = "4F54520B-6C1D-43AE-845C-9A591DE39CE0";
shapes = (
{
closed = 1;
nodes = (
(342,492,l),
(466,492,l),
(252,266,l),
(474,0,l),
(355,0,l),
(164,227,l),
(164,0,l),
(64,0,l),
(64,492,l),
(164,492,l),
(164,294,l)
);
}
);
width = 480;
},
{
layerId = "35043653-3C0A-484D-8455-0CC3777AD120";
shapes = (
{
closed = 1;
nodes = (
(388,541,l),
(603,541,l),
(415,324,l),
(608,0,l),
(399,0,l),
(241,283,l),
(241,0,l),
(51,0,l),
(51,541,l),
(241,541,l),
(241,360,l)
);
}
);
width = 609;
}
);
note = kgreenlandic;
unicode = 312;
},
{
glyphname = Eng;
layers = (
{
layerId = m01;
shapes = (
{
closed = 1;
nodes = (
(165,700,l),
(584,126,l),
(584,705,l),
(666,705,l),
(666,0,l),
(666,-37,ls),
(666,-113,o),
(621,-194,o),
(552,-194,qs),
(528,-194,o),
(502,-187,q),
(502,-119,l),
(519,-125,o),
(535,-125,qs),
(564,-125,o),
(585,-91,o),
(585,-62,qs),
(585,-4,l),
(162,577,l),
(162,0,l),
(80,0,l),
(80,700,l)
);
}
);
width = 746;
},
{
layerId = "4F54520B-6C1D-43AE-845C-9A591DE39CE0";
shapes = (
{
closed = 1;
nodes = (
(177,700,l),
(575,160,l),
(575,704,l),
(675,704,l),
(675,14,l),
(675,-27,l),
(675,-106,o),
(621,-189,o),
(548,-189,q),
(521,-189,o),
(493,-182,q),
(493,-103,l),
(511,-109,o),
(527,-109,q),
(555,-109,o),
(576,-76,o),
(576,-48,q),
(576,1,l),
(177,545,l),
(177,0,l),
(76,0,l),
(76,700,l)
);
}
);
width = 751;
},
{
layerId = "35043653-3C0A-484D-8455-0CC3777AD120";
shapes = (
{
closed = 1;
nodes = (
(239,700,l),
(527,330,l),
(527,700,l),
(719,700,l),
(719,81,l),
(719,24,l),
(719,-75,o),
(622,-163,o),
(526,-163,q),
(488,-163,o),
(448,-156,q),
(448,-23,l),
(472,-31,o),
(486,-31,q),
(505,-31,o),
(529,-4,o),
(529,25,q),
(529,26,l),
(250,384,l),
(250,0,l),
(58,0,l),
(58,700,l)
);
}
);
width = 778;
}
);
note = Eng;
unicode = 330;
},
{
glyphname = eng;
layers = (
{
layerId = m01;
shapes = (
{
closed = 1;
nodes = (
(151,421,l),
(211,493,o),
(307,493,qs),
(360,493,o),
(439,450,o),
(481,364,o),
(481,303,qs),
(481,-37,ls),
(481,-112,o),
(435,-194,o),
(366,-194,qs),
(342,-194,o),
(316,-187,q),
(316,-119,l),
(333,-125,o),
(349,-125,qs),
(378,-125,o),
(399,-91,o),
(399,-62,qs),
(399,280,ls),
(399,354,o),
(331,421,o),
(281,421,qs),
(230,421,o),
(149,354,o),
(149,280,qs),
(149,0,l),
(67,0,l),
(67,482,l)
);
}
);
width = 542;
},
{
layerId = "4F54520B-6C1D-43AE-845C-9A591DE39CE0";
shapes = (
{
closed = 1;
nodes = (
(166,428,l),
(227,503,o),
(323,503,q),
(377,503,o),
(456,459,o),
(499,373,o),
(499,312,q),
(499,-27,l),
(499,-105,o),
(444,-189,o),
(371,-189,q),
(344,-189,o),
(316,-182,q),
(316,-103,l),
(334,-109,o),
(350,-109,q),
(378,-109,o),
(399,-76,o),
(399,-46,q),
(399,282,l),
(399,351,o),
(334,415,o),
(288,415,q),
(240,415,o),
(164,351,o),
(164,282,q),
(164,0,l),
(64,0,l),
(64,492,l)
);
}
);
width = 558;
},
{
layerId = "35043653-3C0A-484D-8455-0CC3777AD120";
shapes = (
{
closed = 1;
nodes = (
(241,465,l),
(309,553,o),
(403,553,q),
(456,553,o),
(539,504,o),
(587,414,o),
(587,354,q),
(587,24,l),
(587,-75,o),
(490,-163,o),
(394,-163,q),
(356,-163,o),
(316,-156,q),
(316,-23,l),
(340,-31,o),
(354,-31,q),
(374,-31,o),
(397,-1,o),
(397,32,q),
(397,293,l),
(397,336,o),
(354,384,o),
(321,384,q),
(287,384,o),
(241,336,o),
(241,293,q),
(241,0,l),
(51,0,l),
(51,541,l)
);
}
);
width = 635;
}
);
note = eng;
unicode = 331;
},
{
glyphname = OE;
layers = (
{
layerId = m01;
shapes = (
{
closed = 1;
nodes = (
(511,78,l),
(492,71,o),
(439,63,o),
(418,63,qs),
(337,63,o),
(209,140,o),
(138,272,o),
(138,354,qs),
(138,435,o),
(210,566,o),
(337,642,o),
(418,642,qs),
(469,642,o),
(511,626,q)
);
},
{
closed = 1;
nodes = (
(942,321,l),
(942,397,l),
(597,397,l),
(597,629,l),
(971,629,l),
(971,705,l),
(522,705,l),
(472,719,o),
(419,719,qs),
(315,719,o),
(146,621,o),
(51,452,o),
(51,351,qs),
(51,248,o),
(148,81,o),
(316,-14,o),
(417,-14,qs),
(477,-14,o),
(520,0,q),
(982,0,l),
(982,76,l),
(597,76,l),
(597,321,l)
);
}
);
width = 1049;
},
{
layerId = "4F54520B-6C1D-43AE-845C-9A591DE39CE0";
shapes = (
{
closed = 1;
nodes = (
(511,97,l),
(493,90,o),
(463,82,o),
(443,82,q),
(361,82,o),
(230,146,o),
(154,269,o),
(154,354,q),
(154,431,o),
(222,555,o),
(344,625,o),
(421,625,q),
(465,625,o),
(511,607,q)
);
},
{
closed = 1;
nodes = (
(958,314,l),
(958,402,l),
(615,402,l),
(615,613,l),
(988,613,l),
(988,704,l),
(522,704,l),
(472,718,o),
(418,718,q),
(314,718,o),
(145,620,o),
(49,452,o),
(49,351,q),
(49,248,o),
(150,82,o),
(323,-13,o),
(426,-13,q),
(476,-13,o),
(530,0,q),
(998,0,l),
(998,91,l),
(615,91,l),
(615,314,l)
);
}
);
width = 1062;
},
{
layerId = "35043653-3C0A-484D-8455-0CC3777AD120";
shapes = (
{
closed = 1;
nodes = (
(510,189,l),
(492,176,o),
(452,162,o),
(432,162,q),
(378,162,o),
(288,213,o),
(236,301,o),
(236,352,q),
(236,403,o),
(281,488,o),
(361,539,o),
(413,539,q),
(466,539,o),
(510,510,q)
);
},
{
closed = 1;
nodes = (
(1038,276,l),
(1038,429,l),
(702,429,l),
(702,535,l),
(1073,535,l),
(1073,700,l),
(521,700,l),
(467,714,o),
(414,714,q),
(308,714,o),
(136,616,o),
(37,449,o),
(37,350,q),
(37,250,o),
(135,84,o),
(307,-14,o),
(413,-14,q),
(474,-14,o),
(519,0,q),
(1078,0,l),
(1078,165,l),
(702,165,l),
(702,276,l)
);
}
);
width = 1127;
}
);
note = OE;
unicode = 338;
},
{
glyphname = oe;
layers = (
{
layerId = m01;
shapes = (
{
closed = 1;
nodes = (
(911,44,l),
(879,19,o),
(792,-11,o),
(741,-11,qs),
(664,-11,o),
(550,61,o),
(523,126,q),
(490,64,o),
(368,-10,o),
(291,-10,qs),
(218,-10,o),
(101,56,o),
(35,170,o),
(35,240,qs),
(35,310,o),
(101,427,o),
(219,494,o),
(292,494,qs),
(368,494,o),
(490,421,o),
(523,360,q),
(549,423,o),
(649,495,o),
(722,495,qs),
(788,495,o),
(888,434,o),
(947,330,o),
(955,266,q),
(592,176,l),
(611,121,o),
(684,59,o),
(746,59,qs),
(793,59,o),
(875,96,o),
(911,132,q)
);
},
{
closed = 1;
nodes = (
(240,425,o),
(161,376,o),
(118,292,o),
(118,242,qs),
(118,191,o),
(164,107,o),
(243,59,o),
(292,59,qs),
(342,59,o),
(422,108,o),
(468,192,o),
(468,241,qs),
(468,291,o),
(423,375,o),
(342,425,o),
(291,425,qs)
);
},
{
closed = 1;
nodes = (
(855,316,l),
(842,364,o),
(763,425,o),
(708,425,qs),
(662,425,o),
(604,378,o),
(578,301,o),
(578,251,q)
);
}
);
width = 990;
},
{
layerId = "4F54520B-6C1D-43AE-845C-9A591DE39CE0";
shapes = (
{
closed = 1;
nodes = (
(917,44,l),
(883,18,o),
(791,-12,o),
(740,-12,q),
(665,-12,o),
(555,54,o),
(525,115,q),
(490,57,o),
(371,-11,o),
(297,-11,q),
(222,-11,o),
(102,57,o),
(34,174,o),
(34,245,q),
(34,316,o),
(102,435,o),
(223,504,o),
(298,504,q),
(372,504,o),
(492,437,o),
(526,379,q),
(553,438,o),
(654,504,o),
(724,504,q),
(793,504,o),
(896,439,o),
(956,329,o),
(963,262,q),
(601,171,l),
(620,122,o),
(688,69,o),
(744,69,q),
(792,69,o),
(882,107,o),
(917,142,q)
);
},
{
closed = 1;
nodes = (
(249,420,o),
(175,374,o),
(134,295,o),
(134,247,q),
(134,199,o),
(177,120,o),
(252,74,o),
(298,74,q),
(345,74,o),
(421,121,o),
(464,200,o),
(464,246,q),
(464,293,o),
(421,373,o),
(345,420,o),
(297,420,q)
);
},
{
closed = 1;
nodes = (
(848,317,l),
(836,364,o),
(762,422,o),
(710,422,q),
(666,422,o),
(611,377,o),
(587,302,o),
(587,255,q)
);
}
);
width = 997;
},
{
layerId = "35043653-3C0A-484D-8455-0CC3777AD120";
shapes = (
{
closed = 1;
nodes = (
(947,42,l),
(900,11,o),
(784,-17,o),
(732,-17,q),
(670,-17,o),
(569,23,o),
(533,62,q),
(493,26,o),
(388,-13,o),
(328,-13,q),
(243,-13,o),
(107,63,o),
(30,193,o),
(30,270,q),
(30,347,o),
(108,477,o),
(245,553,o),
(330,553,q),
(392,553,o),
(499,512,o),
(539,475,q),
(575,511,o),
(673,548,o),
(732,548,q),
(817,548,o),
(938,463,o),
(1000,323,o),
(1000,240,q),
(645,148,l),
(662,134,o),
(707,121,o),
(735,121,q),
(789,121,o),
(912,159,o),
(947,190,q)
);
},
{
closed = 1;
nodes = (
(294,392,o),
(243,360,o),
(215,305,o),
(215,272,q),
(215,239,o),
(245,182,o),
(297,148,o),
(330,148,q),
(363,148,o),
(415,181,o),
(443,237,o),
(443,270,q),
(443,302,o),
(414,358,o),
(361,392,o),
(328,392,q)
);
},
{
closed = 1;
nodes = (
(814,319,l),
(805,361,o),
(756,407,o),
(721,407,q),
(688,407,o),
(645,366,o),
(627,304,o),
(630,272,q)
);
}
);
width = 1030;
}
);
note = oe;
unicode = 339;
},
{
glyphname = florin;
layers = (
{
layerId = m01;
shapes = (
{
closed = 1;
nodes = (
(-3,371,l),
(10,439,l),
(94,439,l),
(113,531,ls),
(133,630,o),
(234,713,o),
(295,713,qs),
(330,713,o),
(359,703,q),
(345,631,l),
(328,641,o),
(300,641,qs),
(256,641,o),
(203,580,o),
(188,500,qs),
(176,439,l),
(277,439,l),
(265,371,l),
(163,371,l),
(56,-103,l),
(-22,-103,l),
(80,371,l)
);
}
);
width = 382;
},
{
layerId = "4F54520B-6C1D-43AE-845C-9A591DE39CE0";
shapes = (
{
closed = 1;
nodes = (
(0,364,l),
(16,445,l),
(96,445,l),
(115,538,l),
(135,635,o),
(236,718,o),
(303,718,q),
(344,718,o),
(374,708,q),
(358,625,l),
(343,634,o),
(315,634,q),
(273,634,o),
(221,577,o),
(208,506,q),
(196,445,l),
(299,445,l),
(284,364,l),
(181,364,l),
(76,-113,l),
(-21,-113,l),
(80,364,l)
);
}
);
width = 396;
},
{
layerId = "35043653-3C0A-484D-8455-0CC3777AD120";
shapes = (
{
closed = 1;
nodes = (
(17,329,l),
(47,473,l),
(103,473,l),
(126,571,l),
(146,659,o),
(249,743,o),
(344,743,q),
(402,743,o),
(450,731,q),
(425,596,l),
(410,599,o),
(387,599,q),
(352,599,o),
(317,570,o),
(309,536,q),
(294,473,l),
(408,473,l),
(378,329,l),
(268,329,l),
(177,-163,l),
(-13,-163,l),
(78,329,l)
);
}
);
width = 463;
}
);
note = florin;
unicode = 402;
},
{
glyphname = Aringacute;
layers = (
{
layerId = m01;
shapes = (
{
closed = 1;
nodes = (
(357,656,o),
(388,687,o),
(388,711,qs),
(388,735,o),
(355,768,o),
(331,768,qs),
(306,768,o),
(273,735,o),
(273,712,qs),
(273,687,o),
(306,656,o),
(331,656,qs)
);
},
{
closed = 1;
nodes = (
(283,623,l),
(258,636,o),
(229,682,o),
(229,711,qs),
(229,738,o),
(257,785,o),
(303,812,o),
(329,812,qs),
(372,812,o),
(432,752,o),
(432,709,qs),
(432,679,o),
(401,632,o),
(374,621,q),
(662,0,l),
(569,0,l),
(496,167,l),
(159,167,l),
(86,0,l),
(-5,0,l)
);
},
{
closed = 1;
nodes = (
(328,555,l),
(192,242,l),
(464,242,l)
);
},
{
closed = 1;
nodes = (
(494,954,l),
(366,825,l),
(307,825,l),
(398,974,l)
);
}
);
width = 657;
},
{
layerId = "4F54520B-6C1D-43AE-845C-9A591DE39CE0";
shapes = (
{
closed = 1;
nodes = (
(363,663,o),
(392,692,o),
(392,713,q),
(392,735,o),
(363,765,o),
(340,765,q),
(317,765,o),
(288,735,o),
(288,714,q),
(288,692,o),
(317,663,o),
(340,663,q)
);
},
{
closed = 1;
nodes = (
(284,627,l),
(260,642,o),
(234,686,o),
(234,713,q),
(234,742,o),
(263,789,o),
(311,817,o),
(338,817,q),
(382,817,o),
(445,756,o),
(445,712,q),
(445,683,o),
(416,637,o),
(391,625,q),
(681,0,l),
(569,0,l),
(501,155,l),
(172,155,l),
(104,0,l),
(-6,0,l)
);
},
{
closed = 1;
nodes = (
(337,536,l),
(210,243,l),
(464,243,l)
);
},
{
closed = 1;
nodes = (
(515,962,l),
(384,833,l),
(312,833,l),
(405,988,l)
);
}
);
width = 675;
},
{
layerId = "35043653-3C0A-484D-8455-0CC3777AD120";
shapes = (
{
closed = 1;
nodes = (
(395,700,o),
(409,713,o),
(409,724,q),
(409,734,o),
(395,747,o),
(386,747,q),
(375,747,o),
(361,734,o),
(361,724,q),
(361,714,o),
(375,700,o),
(385,700,q)
);
},
{
closed = 1;
nodes = (
(289,646,l),
(275,662,o),
(260,700,o),
(260,723,q),
(260,756,o),
(294,811,o),
(351,843,o),
(383,843,q),
(434,843,o),
(507,773,o),
(507,724,q),
(507,702,o),
(492,663,o),
(478,646,q),
(775,0,l),
(567,0,l),
(527,95,l),
(236,95,l),
(196,0,l),
(-8,0,l)
);
},
{
closed = 1;
nodes = (
(381,438,l),
(300,246,l),
(463,246,l)
);
},
{
closed = 1;
nodes = (
(598,999,l),
(451,871,l),
(317,871,l),
(421,1056,l)
);
}
);
width = 767;
}
);
note = Aringacute;
unicode = 506;
},
{
glyphname = circumflex;
layers = (
{
layerId = m01;
shapes = (
{
closed = 1;
nodes = (
(251,625,l),
(173,707,l),
(97,625,l),
(31,625,l),
(138,766,l),
(211,766,l),
(317,625,l)
);
}
);
width = 349;
},
{
layerId = "4F54520B-6C1D-43AE-845C-9A591DE39CE0";
shapes = (
{
closed = 1;
nodes = (
(250,623,l),
(175,702,l),
(102,623,l),
(25,623,l),
(137,772,l),
(215,772,l),
(326,623,l)
);
}
);
width = 352;
},
{
layerId = "35043653-3C0A-484D-8455-0CC3777AD120";
shapes = (
{
closed = 1;
nodes = (
(242,613,l),
(183,674,l),
(124,613,l),
(-7,613,l),
(133,799,l),
(232,799,l),
(372,613,l)
);
}
);
width = 365;
}
);
note = circumflex;
unicode = 710;
},
{
glyphname = caron;
layers = (
{
layerId = m01;
shapes = (
{
closed = 1;
nodes = (
(211,606,l),
(136,606,l),
(24,749,l),
(96,749,l),
(173,663,l),
(251,749,l),
(322,749,l)
);
}
);
width = 347;
},
{
layerId = "4F54520B-6C1D-43AE-845C-9A591DE39CE0";
shapes = (
{
closed = 1;
nodes = (
(215,603,l),
(136,603,l),
(19,754,l),
(102,754,l),
(176,672,l),
(250,754,l),
(332,754,l)
);
}
);
width = 351;
},
{
layerId = "35043653-3C0A-484D-8455-0CC3777AD120";
shapes = (
{
closed = 1;
nodes = (
(237,590,l),
(137,590,l),
(-9,777,l),
(131,777,l),
(189,714,l),
(245,777,l),
(382,777,l)
);
}
);
width = 373;
}
);
note = caron;
unicode = 711;
},
{
glyphname = uni02C9;
layers = (
{
layerId = m01;
shapes = (
{
closed = 1;
nodes = (
(48,611,l),
(48,668,l),
(349,668,l),
(349,611,l)
);
}
);
width = 395;
},
{
layerId = "4F54520B-6C1D-43AE-845C-9A591DE39CE0";
shapes = (
{
closed = 1;
nodes = (
(45,606,l),
(45,673,l),
(358,673,l),
(358,606,l)
);
}
);
width = 401;
},
{
layerId = "35043653-3C0A-484D-8455-0CC3777AD120";
shapes = (
{
closed = 1;
nodes = (
(31,579,l),
(31,696,l),
(402,696,l),
(402,579,l)
);
}
);
width = 432;
}
);
note = uni02C9;
unicode = 713;
},
{
glyphname = breve;
layers = (
{
layerId = m01;
shapes = (
{
closed = 1;
nodes = (
(325,741,l),
(319,678,o),
(236,602,o),
(174,602,qs),
(133,602,o),
(70,636,o),
(32,699,o),
(26,741,q),
(80,741,l),
(89,706,o),
(140,668,o),
(177,668,qs),
(213,668,o),
(262,706,o),
(271,741,q)
);
}
);
width = 351;
},
{
layerId = "4F54520B-6C1D-43AE-845C-9A591DE39CE0";
shapes = (
{
closed = 1;
nodes = (
(327,744,l),
(321,678,o),
(236,597,o),
(173,597,q),
(132,597,o),
(67,634,o),
(26,700,o),
(21,744,q),
(84,744,l),
(93,709,o),
(141,672,o),
(176,672,q),
(210,672,o),
(256,709,o),
(265,744,q)
);
}
);
width = 348;
},
{
layerId = "35043653-3C0A-484D-8455-0CC3777AD120";
shapes = (
{
closed = 1;
nodes = (
(337,757,l),
(331,676,o),
(236,574,o),
(167,574,q),
(122,574,o),
(48,620,o),
(2,704,o),
(-2,757,q),
(102,757,l),
(111,726,o),
(147,691,o),
(169,691,q),
(191,691,o),
(224,726,o),
(233,757,q)
);
}
);
width = 335;
}
);
note = breve;
unicode = 728;
},
{
glyphname = dotaccent;
layers = (
{
layerId = m01;
shapes = (
{
closed = 1;
nodes = (
(129,739,o),
(164,705,o),
(164,678,qs),
(164,654,o),
(129,619,o),
(103,619,qs),
(79,619,o),
(43,655,o),
(43,678,qs),
(43,704,o),
(78,739,o),
(103,739,qs)
);
}
);
width = 205;
},
{
layerId = "4F54520B-6C1D-43AE-845C-9A591DE39CE0";
shapes = (
{
closed = 1;
nodes = (
(136,745,o),
(174,709,o),
(174,679,q),
(174,651,o),
(135,613,o),
(106,613,q),
(78,613,o),
(38,651,o),
(38,679,q),
(38,708,o),
(77,745,o),
(106,745,q)
);
}
);
width = 211;
},
{
layerId = "35043653-3C0A-484D-8455-0CC3777AD120";
shapes = (
{
closed = 1;
nodes = (
(165,777,o),
(226,727,o),
(226,681,q),
(226,635,o),
(165,584,o),
(118,584,q),
(71,584,o),
(11,635,o),
(11,681,q),
(11,727,o),
(71,777,o),
(118,777,q)
);
}
);
width = 239;
}
);
note = dotaccent;
unicode = 729;
},
{
glyphname = ring;
layers = (
{
layerId = m01;
shapes = (
{
closed = 1;
nodes = (
(105,612,o),
(59,638,o),
(31,684,o),
(31,711,qs),
(31,738,o),
(59,785,o),
(105,812,o),
(131,812,qs),
(174,812,o),
(234,752,o),
(234,709,qs),
(234,667,o),
(174,612,o),
(131,612,qs)
);
},
{
closed = 1;
nodes = (
(108,768,o),
(75,735,o),
(75,712,qs),
(75,686,o),
(108,656,o),
(133,656,qs),
(159,656,o),
(190,687,o),
(190,711,qs),
(190,735,o),
(157,768,o),
(133,768,qs)
);
}
);
width = 265;
},
{
layerId = "4F54520B-6C1D-43AE-845C-9A591DE39CE0";
shapes = (
{
closed = 1;
nodes = (
(106.96,609,o),
(59.12,635.722,o),
(30,683,o),
(30,711.5,q),
(30,740,o),
(59,787,o),
(107,815,o),
(133.806,815,q),
(178.14,815,o),
(240,753.759,o),
(240,709.869,q),
(240,667,o),
(177.624,612,o),
(134,609,q)
);
},
{
closed = 1;
nodes = (
(112.586,763,o),
(83,733.22,o),
(83,712.463,q),
(83,689,o),
(112.586,661,o),
(135,661,q),
(158.719,661,o),
(187,690,o),
(187,711,q),
(187,734,o),
(158,763,o),
(135,763,q)
);
}
);
width = 270;
},
{
layerId = "35043653-3C0A-484D-8455-0CC3777AD120";
shapes = (
{
closed = 1;
nodes = (
(113.861,591,o),
(57,623,o),
(23,678,o),
(23,711,q),
(23,744,o),
(57,799,o),
(113.861,831,o),
(146,831,q),
(197,831,o),
(270,761,o),
(270,712,q),
(270,661,o),
(196.337,606,o),
(146,591,q)
);
},
{
closed = 1;
nodes = (
(136.086,735,o),
(123,721.317,o),
(123,711.78,q),
(123,701,o),
(136,687,o),
(146.366,687,q),
(157.146,687,o),
(170,700,o),
(170,711,q),
(170,722,o),
(157,735,o),
(146,735,q)
);
}
);
width = 293;
}
);
note = ring;
unicode = 730;
},
{
glyphname = ogonek;
layers = (
{
layerId = m01;
shapes = (
{
closed = 1;
nodes = (
(275,-182,l),
(241,-197,o),
(207,-197,qs),
(157,-197,o),
(95,-148,o),
(95,-104,qs),
(95,-78,o),
(122,-28,o),
(144,0,q),
(204,0,l),
(193,-17,ls),
(176,-44,o),
(163,-74,o),
(163,-92,qs),
(163,-116,o),
(195,-147,o),
(221,-147,qs),
(235,-147,o),
(265,-139,q)
);
}
);
width = 369;
},
{
layerId = "4F54520B-6C1D-43AE-845C-9A591DE39CE0";
shapes = (
{
closed = 1;
nodes = (
(281,-187,l),
(243,-204,o),
(207,-204,q),
(157,-204,o),
(93,-153,o),
(93,-108,q),
(93,-81,o),
(120,-31,o),
(144,0,q),
(215,0,l),
(213,-3,l),
(189,-39,o),
(170,-76,o),
(170,-95,q),
(170,-117,o),
(199,-145,o),
(223,-145,q),
(243,-145,o),
(269,-136,q)
);
}
);
width = 374;
},
{
layerId = "35043653-3C0A-484D-8455-0CC3777AD120";
shapes = (
{
closed = 1;
nodes = (
(313,-211,l),
(263,-238,o),
(209,-238,q),
(153,-238,o),
(81,-178,o),
(81,-128,q),
(81,-94,o),
(115,-33,o),
(144,0,q),
(270,0,l),
(256,-17,l),
(226,-54,o),
(204,-98,o),
(204,-109,q),
(204,-121,o),
(221,-133,o),
(234,-133,q),
(254,-133,o),
(290,-118,q)
);
}
);
width = 401;
}
);
note = ogonek;
unicode = 731;
},
{
glyphname = tilde;
layers = (
{
layerId = m01;
shapes = (
{
closed = 1;
nodes = (
(31,618,l),
(46,667,o),
(100,722,o),
(138,722,qs),
(155,722,o),
(184,713,o),
(208,702,qs),
(226,693,o),
(250,685,o),
(261,685,qs),
(278,685,o),
(299,707,o),
(308,730,q),
(361,720,l),
(346,670,o),
(301,617,o),
(267,617,qs),
(252,617,o),
(223,627,o),
(205,636,qs),
(185,645,o),
(158,654,o),
(144,654,qs),
(125,654,o),
(93,631,o),
(85,608,q)
);
}
);
width = 392;
},
{
layerId = "4F54520B-6C1D-43AE-845C-9A591DE39CE0";
shapes = (
{
closed = 1;
nodes = (
(25,616,l),
(41,669,o),
(95,728,o),
(135,728,q),
(152,728,o),
(183,718,o),
(206,707,q),
(219,701,o),
(246,691,o),
(257,691,q),
(274,691,o),
(293,712,o),
(302,736,q),
(363,724,l),
(347,670,o),
(299,614,o),
(264,614,q),
(249,614,o),
(223,623,o),
(199,633,q),
(180,642,o),
(155,651,o),
(142,651,q),
(124,651,o),
(95,629,o),
(87,605,q)
);
}
);
width = 388;
},
{
layerId = "35043653-3C0A-484D-8455-0CC3777AD120";
shapes = (
{
closed = 1;
nodes = (
(-6,607,l),
(12,677,o),
(74,755,o),
(120,755,q),
(138,755,o),
(167,746,o),
(197,734,q),
(209,728,o),
(231,720,o),
(239,720,q),
(249,720,o),
(264,741,o),
(270,765,q),
(372,746,l),
(353,677,o),
(292,601,o),
(246,601,q),
(228,601,o),
(194,612,o),
(172,622,q),
(159,629,o),
(139,636,o),
(131,636,q),
(120,636,o),
(105,616,o),
(97,589,q)
);
}
);
width = 366;
}
);
note = tilde;
unicode = 732;
},
{
glyphname = hungarumlaut;
layers = (
{
layerId = m01;
shapes = (
{
closed = 1;
nodes = (
(24,606,l),
(125,755,l),
(214,739,l),
(90,606,l)
);
},
{
closed = 1;
nodes = (
(177,606,l),
(278,755,l),
(367,737,l),
(241,606,l)
);
}
);
width = 385;
},
{
layerId = "4F54520B-6C1D-43AE-845C-9A591DE39CE0";
shapes = (
{
closed = 1;
nodes = (
(17,605,l),
(123,762,l),
(223,744,l),
(93,605,l)
);
},
{
closed = 1;
nodes = (
(183,605,l),
(289,762,l),
(389,742,l),
(258,605,l)
);
}
);
width = 399;
},
{
layerId = "35043653-3C0A-484D-8455-0CC3777AD120";
shapes = (
{
closed = 1;
nodes = (
(-20,600,l),
(114,796,l),
(268,767,l),
(109,600,l)
);
},
{
closed = 1;
nodes = (
(213,600,l),
(345,796,l),
(500,768,l),
(341,600,l)
);
}
);
width = 471;
}
);
note = hungarumlaut;
unicode = 733;
},
{
glyphname = tonos;
layers = (
{
layerId = m01;
shapes = (
{
closed = 1;
nodes = (
(312,806,l),
(165,657,l),
(106,657,l),
(197,806,l)
);
}
);
width = 414;
},
{
layerId = "4F54520B-6C1D-43AE-845C-9A591DE39CE0";
shapes = (
{
closed = 1;
nodes = (
(331,812,l),
(173,657,l),
(102,657,l),
(195,812,l)
);
}
);
width = 427;
},
{
layerId = "35043653-3C0A-484D-8455-0CC3777AD120";
shapes = (
{
closed = 1;
nodes = (
(423,842,l),
(215,657,l),
(81,657,l),
(185,842,l)
);
}
);
width = 493;
}
);
note = tonos;
unicode = 900;
},
